<?xml version="1.0" encoding="UTF-8" standalone="no"?>
<!DOCTYPE svg PUBLIC "-//W3C//DTD SVG 1.1//EN"
 "http://www.w3.org/Graphics/SVG/1.1/DTD/svg11.dtd">
<!-- Generated by graphviz version 11.0.0 (20240428.1522)
 -->
<!-- Pages: 1 -->
<svg width="1914pt" height="548pt"
 viewBox="0.00 0.00 1913.92 548.00" xmlns="http://www.w3.org/2000/svg" xmlns:xlink="http://www.w3.org/1999/xlink">
<g id="graph0" class="graph" transform="scale(1 1) rotate(0) translate(4 544)">
<polygon fill="white" stroke="none" points="-4,4 -4,-544 1909.92,-544 1909.92,4 -4,4"/>
<!-- 4449335952 -->
<g id="node1" class="node">
<title>4449335952</title>
<ellipse fill="none" stroke="black" cx="656.15" cy="-522" rx="76.43" ry="18"/>
<text text-anchor="start" x="608.15" y="-516.95" font-family="Times,serif" font-size="14.00">class &#39;ast.Module&#39;</text>
</g>
<!-- 4449335904 -->
<g id="node2" class="node">
<title>4449335904</title>
<ellipse fill="none" stroke="black" cx="656.15" cy="-450" rx="54.42" ry="18"/>
<text text-anchor="middle" x="656.15" y="-444.95" font-family="Times,serif" font-size="14.00">1: ClassDef</text>
</g>
<!-- 4449335952&#45;&gt;4449335904 -->
<g id="edge1" class="edge">
<title>4449335952&#45;&gt;4449335904</title>
<path fill="none" stroke="black" d="M656.15,-503.7C656.15,-496.41 656.15,-487.73 656.15,-479.54"/>
<polygon fill="black" stroke="black" points="659.65,-479.62 656.15,-469.62 652.65,-479.62 659.65,-479.62"/>
</g>
<!-- 4449335856 -->
<g id="node3" class="node">
<title>4449335856</title>
<ellipse fill="none" stroke="black" cx="266.15" cy="-378" rx="67.22" ry="18"/>
<text text-anchor="middle" x="266.15" y="-372.95" font-family="Times,serif" font-size="14.00">3: FunctionDef</text>
</g>
<!-- 4449335904&#45;&gt;4449335856 -->
<g id="edge2" class="edge">
<title>4449335904&#45;&gt;4449335856</title>
<path fill="none" stroke="black" d="M609.11,-440.56C539.98,-428.15 410.67,-404.94 332.1,-390.84"/>
<polygon fill="black" stroke="black" points="332.84,-387.41 322.38,-389.09 331.6,-394.3 332.84,-387.41"/>
</g>
<!-- 4449335520 -->
<g id="node11" class="node">
<title>4449335520</title>
<ellipse fill="none" stroke="black" cx="580.15" cy="-378" rx="67.22" ry="18"/>
<text text-anchor="middle" x="580.15" y="-372.95" font-family="Times,serif" font-size="14.00">6: FunctionDef</text>
</g>
<!-- 4449335904&#45;&gt;4449335520 -->
<g id="edge10" class="edge">
<title>4449335904&#45;&gt;4449335520</title>
<path fill="none" stroke="black" d="M638.53,-432.76C628.98,-423.97 616.99,-412.93 606.37,-403.14"/>
<polygon fill="black" stroke="black" points="609.05,-400.86 599.33,-396.66 604.31,-406.01 609.05,-400.86"/>
</g>
<!-- 4449335184 -->
<g id="node17" class="node">
<title>4449335184</title>
<ellipse fill="none" stroke="black" cx="732.15" cy="-378" rx="67.22" ry="18"/>
<text text-anchor="middle" x="732.15" y="-372.95" font-family="Times,serif" font-size="14.00">9: FunctionDef</text>
</g>
<!-- 4449335904&#45;&gt;4449335184 -->
<g id="edge16" class="edge">
<title>4449335904&#45;&gt;4449335184</title>
<path fill="none" stroke="black" d="M673.78,-432.76C683.33,-423.97 695.32,-412.93 705.94,-403.14"/>
<polygon fill="black" stroke="black" points="708,-406.01 712.98,-396.66 703.26,-400.86 708,-406.01"/>
</g>
<!-- 4449334608 -->
<g id="node30" class="node">
<title>4449334608</title>
<ellipse fill="none" stroke="black" cx="1207.15" cy="-378" rx="71.82" ry="18"/>
<text text-anchor="middle" x="1207.15" y="-372.95" font-family="Times,serif" font-size="14.00">13: FunctionDef</text>
</g>
<!-- 4449335904&#45;&gt;4449334608 -->
<g id="edge30" class="edge">
<title>4449335904&#45;&gt;4449334608</title>
<path fill="none" stroke="black" d="M706.02,-442.66C803.22,-430.32 1018.45,-402.97 1132.64,-388.47"/>
<polygon fill="black" stroke="black" points="1133.06,-391.94 1142.54,-387.21 1132.18,-385 1133.06,-391.94"/>
</g>
<!-- 4449335808 -->
<g id="node4" class="node">
<title>4449335808</title>
<ellipse fill="none" stroke="black" cx="86.15" cy="-306" rx="86.15" ry="18"/>
<text text-anchor="start" x="31.03" y="-300.95" font-family="Times,serif" font-size="14.00">class &#39;ast.arguments&#39;</text>
</g>
<!-- 4449335856&#45;&gt;4449335808 -->
<g id="edge3" class="edge">
<title>4449335856&#45;&gt;4449335808</title>
<path fill="none" stroke="black" d="M229.29,-362.67C202.45,-352.23 165.79,-337.97 136.29,-326.5"/>
<polygon fill="black" stroke="black" points="137.77,-323.32 127.19,-322.96 135.24,-329.84 137.77,-323.32"/>
</g>
<!-- 4449335712 -->
<g id="node6" class="node">
<title>4449335712</title>
<ellipse fill="none" stroke="black" cx="266.15" cy="-306" rx="45.72" ry="18"/>
<text text-anchor="middle" x="266.15" y="-300.95" font-family="Times,serif" font-size="14.00">4: Assign</text>
</g>
<!-- 4449335856&#45;&gt;4449335712 -->
<g id="edge5" class="edge">
<title>4449335856&#45;&gt;4449335712</title>
<path fill="none" stroke="black" d="M266.15,-359.7C266.15,-352.41 266.15,-343.73 266.15,-335.54"/>
<polygon fill="black" stroke="black" points="269.65,-335.62 266.15,-325.62 262.65,-335.62 269.65,-335.62"/>
</g>
<!-- 4449335760 -->
<g id="node5" class="node">
<title>4449335760</title>
<ellipse fill="none" stroke="black" cx="71.15" cy="-234" rx="32.41" ry="18"/>
<text text-anchor="middle" x="71.15" y="-228.95" font-family="Times,serif" font-size="14.00">3: arg</text>
</g>
<!-- 4449335808&#45;&gt;4449335760 -->
<g id="edge4" class="edge">
<title>4449335808&#45;&gt;4449335760</title>
<path fill="none" stroke="black" d="M82.45,-287.7C80.87,-280.32 78.98,-271.52 77.21,-263.25"/>
<polygon fill="black" stroke="black" points="80.65,-262.63 75.14,-253.58 73.81,-264.1 80.65,-262.63"/>
</g>
<!-- 4449335664 -->
<g id="node7" class="node">
<title>4449335664</title>
<ellipse fill="none" stroke="black" cx="175.15" cy="-234" rx="53.4" ry="18"/>
<text text-anchor="middle" x="175.15" y="-228.95" font-family="Times,serif" font-size="14.00">4: Attribute</text>
</g>
<!-- 4449335712&#45;&gt;4449335664 -->
<g id="edge6" class="edge">
<title>4449335712&#45;&gt;4449335664</title>
<path fill="none" stroke="black" d="M245.96,-289.46C233.88,-280.17 218.3,-268.19 204.84,-257.83"/>
<polygon fill="black" stroke="black" points="207.18,-255.22 197.12,-251.9 202.92,-260.77 207.18,-255.22"/>
</g>
<!-- 4449335568 -->
<g id="node10" class="node">
<title>4449335568</title>
<ellipse fill="none" stroke="black" cx="300.15" cy="-234" rx="53.4" ry="18"/>
<text text-anchor="middle" x="300.15" y="-228.95" font-family="Times,serif" font-size="14.00">4: Constant</text>
</g>
<!-- 4449335712&#45;&gt;4449335568 -->
<g id="edge9" class="edge">
<title>4449335712&#45;&gt;4449335568</title>
<path fill="none" stroke="black" d="M274.38,-288.05C278.19,-280.23 282.79,-270.75 287.05,-261.98"/>
<polygon fill="black" stroke="black" points="290.12,-263.67 291.34,-253.15 283.82,-260.62 290.12,-263.67"/>
</g>
<!-- 4449335616 -->
<g id="node8" class="node">
<title>4449335616</title>
<ellipse fill="none" stroke="black" cx="175.15" cy="-162" rx="43.16" ry="18"/>
<text text-anchor="middle" x="175.15" y="-156.95" font-family="Times,serif" font-size="14.00">4: Name</text>
</g>
<!-- 4449335664&#45;&gt;4449335616 -->
<g id="edge7" class="edge">
<title>4449335664&#45;&gt;4449335616</title>
<path fill="none" stroke="black" d="M175.15,-215.7C175.15,-208.41 175.15,-199.73 175.15,-191.54"/>
<polygon fill="black" stroke="black" points="178.65,-191.62 175.15,-181.62 171.65,-191.62 178.65,-191.62"/>
</g>
<!-- 4311043232 -->
<g id="node9" class="node">
<title>4311043232</title>
<ellipse fill="none" stroke="black" cx="686.15" cy="-90" rx="66.71" ry="18"/>
<text text-anchor="start" x="645.28" y="-84.95" font-family="Times,serif" font-size="14.00">class &#39;ast.Store&#39;</text>
</g>
<!-- 4449335664&#45;&gt;4311043232 -->
<g id="edge8" class="edge">
<title>4449335664&#45;&gt;4311043232</title>
<path fill="none" stroke="black" d="M215.25,-221.86C305.71,-196.72 525.87,-135.54 629.91,-106.63"/>
<polygon fill="black" stroke="black" points="630.66,-110.05 639.36,-104 628.78,-103.31 630.66,-110.05"/>
</g>
<!-- 4449335472 -->
<g id="node12" class="node">
<title>4449335472</title>
<ellipse fill="none" stroke="black" cx="431.15" cy="-306" rx="86.15" ry="18"/>
<text text-anchor="start" x="376.03" y="-300.95" font-family="Times,serif" font-size="14.00">class &#39;ast.arguments&#39;</text>
</g>
<!-- 4449335520&#45;&gt;4449335472 -->
<g id="edge11" class="edge">
<title>4449335520&#45;&gt;4449335472</title>
<path fill="none" stroke="black" d="M547.82,-361.81C526.6,-351.84 498.56,-338.67 475.29,-327.73"/>
<polygon fill="black" stroke="black" points="476.88,-324.62 466.34,-323.53 473.91,-330.95 476.88,-324.62"/>
</g>
<!-- 4449335328 -->
<g id="node15" class="node">
<title>4449335328</title>
<ellipse fill="none" stroke="black" cx="581.15" cy="-306" rx="45.72" ry="18"/>
<text text-anchor="middle" x="581.15" y="-300.95" font-family="Times,serif" font-size="14.00">7: Return</text>
</g>
<!-- 4449335520&#45;&gt;4449335328 -->
<g id="edge14" class="edge">
<title>4449335520&#45;&gt;4449335328</title>
<path fill="none" stroke="black" d="M580.4,-359.7C580.51,-352.41 580.63,-343.73 580.75,-335.54"/>
<polygon fill="black" stroke="black" points="584.25,-335.67 580.89,-325.62 577.25,-335.57 584.25,-335.67"/>
</g>
<!-- 4449335424 -->
<g id="node13" class="node">
<title>4449335424</title>
<ellipse fill="none" stroke="black" cx="404.15" cy="-234" rx="32.41" ry="18"/>
<text text-anchor="middle" x="404.15" y="-228.95" font-family="Times,serif" font-size="14.00">6: arg</text>
</g>
<!-- 4449335472&#45;&gt;4449335424 -->
<g id="edge12" class="edge">
<title>4449335472&#45;&gt;4449335424</title>
<path fill="none" stroke="black" d="M424.48,-287.7C421.57,-280.15 418.09,-271.12 414.83,-262.68"/>
<polygon fill="black" stroke="black" points="418.16,-261.59 411.3,-253.52 411.63,-264.11 418.16,-261.59"/>
</g>
<!-- 4449335376 -->
<g id="node14" class="node">
<title>4449335376</title>
<ellipse fill="none" stroke="black" cx="487.15" cy="-234" rx="32.41" ry="18"/>
<text text-anchor="middle" x="487.15" y="-228.95" font-family="Times,serif" font-size="14.00">6: arg</text>
</g>
<!-- 4449335472&#45;&gt;4449335376 -->
<g id="edge13" class="edge">
<title>4449335472&#45;&gt;4449335376</title>
<path fill="none" stroke="black" d="M444.71,-288.05C451.51,-279.56 459.87,-269.11 467.37,-259.73"/>
<polygon fill="black" stroke="black" points="470.03,-262.01 473.55,-252.01 464.57,-257.63 470.03,-262.01"/>
</g>
<!-- 4449335280 -->
<g id="node16" class="node">
<title>4449335280</title>
<ellipse fill="none" stroke="black" cx="581.15" cy="-234" rx="43.16" ry="18"/>
<text text-anchor="middle" x="581.15" y="-228.95" font-family="Times,serif" font-size="14.00">7: Name</text>
</g>
<!-- 4449335328&#45;&gt;4449335280 -->
<g id="edge15" class="edge">
<title>4449335328&#45;&gt;4449335280</title>
<path fill="none" stroke="black" d="M581.15,-287.7C581.15,-280.41 581.15,-271.73 581.15,-263.54"/>
<polygon fill="black" stroke="black" points="584.65,-263.62 581.15,-253.62 577.65,-263.62 584.65,-263.62"/>
</g>
<!-- 4449335136 -->
<g id="node18" class="node">
<title>4449335136</title>
<ellipse fill="none" stroke="black" cx="732.15" cy="-306" rx="86.15" ry="18"/>
<text text-anchor="start" x="677.03" y="-300.95" font-family="Times,serif" font-size="14.00">class &#39;ast.arguments&#39;</text>
</g>
<!-- 4449335184&#45;&gt;4449335136 -->
<g id="edge17" class="edge">
<title>4449335184&#45;&gt;4449335136</title>
<path fill="none" stroke="black" d="M732.15,-359.7C732.15,-352.41 732.15,-343.73 732.15,-335.54"/>
<polygon fill="black" stroke="black" points="735.65,-335.62 732.15,-325.62 728.65,-335.62 735.65,-335.62"/>
</g>
<!-- 4449334992 -->
<g id="node21" class="node">
<title>4449334992</title>
<ellipse fill="none" stroke="black" cx="868.15" cy="-306" rx="31.39" ry="18"/>
<text text-anchor="middle" x="868.15" y="-300.95" font-family="Times,serif" font-size="14.00">10: If</text>
</g>
<!-- 4449335184&#45;&gt;4449334992 -->
<g id="edge20" class="edge">
<title>4449335184&#45;&gt;4449334992</title>
<path fill="none" stroke="black" d="M762.34,-361.46C783.96,-350.34 813.05,-335.36 835.26,-323.93"/>
<polygon fill="black" stroke="black" points="836.6,-327.18 843.89,-319.49 833.4,-320.95 836.6,-327.18"/>
</g>
<!-- 4449335088 -->
<g id="node19" class="node">
<title>4449335088</title>
<ellipse fill="none" stroke="black" cx="675.15" cy="-234" rx="32.41" ry="18"/>
<text text-anchor="middle" x="675.15" y="-228.95" font-family="Times,serif" font-size="14.00">9: arg</text>
</g>
<!-- 4449335136&#45;&gt;4449335088 -->
<g id="edge18" class="edge">
<title>4449335136&#45;&gt;4449335088</title>
<path fill="none" stroke="black" d="M718.36,-288.05C711.44,-279.56 702.93,-269.11 695.29,-259.73"/>
<polygon fill="black" stroke="black" points="698.03,-257.55 689,-252 692.6,-261.97 698.03,-257.55"/>
</g>
<!-- 4449335040 -->
<g id="node20" class="node">
<title>4449335040</title>
<ellipse fill="none" stroke="black" cx="758.15" cy="-234" rx="32.41" ry="18"/>
<text text-anchor="middle" x="758.15" y="-228.95" font-family="Times,serif" font-size="14.00">9: arg</text>
</g>
<!-- 4449335136&#45;&gt;4449335040 -->
<g id="edge19" class="edge">
<title>4449335136&#45;&gt;4449335040</title>
<path fill="none" stroke="black" d="M738.58,-287.7C741.38,-280.15 744.74,-271.12 747.87,-262.68"/>
<polygon fill="black" stroke="black" points="751.07,-264.12 751.27,-253.52 744.51,-261.68 751.07,-264.12"/>
</g>
<!-- 4449334944 -->
<g id="node22" class="node">
<title>4449334944</title>
<ellipse fill="none" stroke="black" cx="868.15" cy="-234" rx="59.54" ry="18"/>
<text text-anchor="middle" x="868.15" y="-228.95" font-family="Times,serif" font-size="14.00">10: Compare</text>
</g>
<!-- 4449334992&#45;&gt;4449334944 -->
<g id="edge21" class="edge">
<title>4449334992&#45;&gt;4449334944</title>
<path fill="none" stroke="black" d="M868.15,-287.7C868.15,-280.41 868.15,-271.73 868.15,-263.54"/>
<polygon fill="black" stroke="black" points="871.65,-263.62 868.15,-253.62 864.65,-263.62 871.65,-263.62"/>
</g>
<!-- 4449334800 -->
<g id="node26" class="node">
<title>4449334800</title>
<ellipse fill="none" stroke="black" cx="999.15" cy="-234" rx="50.33" ry="18"/>
<text text-anchor="middle" x="999.15" y="-228.95" font-family="Times,serif" font-size="14.00">11: Assign</text>
</g>
<!-- 4449334992&#45;&gt;4449334800 -->
<g id="edge25" class="edge">
<title>4449334992&#45;&gt;4449334800</title>
<path fill="none" stroke="black" d="M890.67,-292.97C910.21,-282.53 938.89,-267.2 961.85,-254.93"/>
<polygon fill="black" stroke="black" points="963.44,-258.05 970.61,-250.25 960.14,-251.88 963.44,-258.05"/>
</g>
<!-- 4449334896 -->
<g id="node23" class="node">
<title>4449334896</title>
<ellipse fill="none" stroke="black" cx="581.15" cy="-162" rx="47.77" ry="18"/>
<text text-anchor="middle" x="581.15" y="-156.95" font-family="Times,serif" font-size="14.00">10: Name</text>
</g>
<!-- 4449334944&#45;&gt;4449334896 -->
<g id="edge22" class="edge">
<title>4449334944&#45;&gt;4449334896</title>
<path fill="none" stroke="black" d="M823.28,-221.79C815.25,-219.83 806.96,-217.83 799.15,-216 727.78,-199.23 709.11,-198.49 638.15,-180 634.86,-179.14 631.47,-178.22 628.07,-177.27"/>
<polygon fill="black" stroke="black" points="629.26,-173.98 618.69,-174.59 627.34,-180.71 629.26,-173.98"/>
</g>
<!-- 4311045584 -->
<g id="node24" class="node">
<title>4311045584</title>
<ellipse fill="none" stroke="black" cx="718.15" cy="-162" rx="71.31" ry="18"/>
<text text-anchor="start" x="673.9" y="-156.95" font-family="Times,serif" font-size="14.00">class &#39;ast.NotEq&#39;</text>
</g>
<!-- 4449334944&#45;&gt;4311045584 -->
<g id="edge23" class="edge">
<title>4449334944&#45;&gt;4311045584</title>
<path fill="none" stroke="black" d="M836.71,-218.33C814.86,-208.13 785.46,-194.41 761.4,-183.18"/>
<polygon fill="black" stroke="black" points="763.03,-180.08 752.49,-179.02 760.07,-186.42 763.03,-180.08"/>
</g>
<!-- 4449334848 -->
<g id="node25" class="node">
<title>4449334848</title>
<ellipse fill="none" stroke="black" cx="865.15" cy="-162" rx="58" ry="18"/>
<text text-anchor="middle" x="865.15" y="-156.95" font-family="Times,serif" font-size="14.00">10: Constant</text>
</g>
<!-- 4449334944&#45;&gt;4449334848 -->
<g id="edge24" class="edge">
<title>4449334944&#45;&gt;4449334848</title>
<path fill="none" stroke="black" d="M867.41,-215.7C867.1,-208.41 866.73,-199.73 866.38,-191.54"/>
<polygon fill="black" stroke="black" points="869.88,-191.46 865.95,-181.62 862.88,-191.76 869.88,-191.46"/>
</g>
<!-- 4449334752 -->
<g id="node27" class="node">
<title>4449334752</title>
<ellipse fill="none" stroke="black" cx="999.15" cy="-162" rx="58" ry="18"/>
<text text-anchor="middle" x="999.15" y="-156.95" font-family="Times,serif" font-size="14.00">11: Attribute</text>
</g>
<!-- 4449334800&#45;&gt;4449334752 -->
<g id="edge26" class="edge">
<title>4449334800&#45;&gt;4449334752</title>
<path fill="none" stroke="black" d="M999.15,-215.7C999.15,-208.41 999.15,-199.73 999.15,-191.54"/>
<polygon fill="black" stroke="black" points="1002.65,-191.62 999.15,-181.62 995.65,-191.62 1002.65,-191.62"/>
</g>
<!-- 4449334656 -->
<g id="node29" class="node">
<title>4449334656</title>
<ellipse fill="none" stroke="black" cx="1123.15" cy="-162" rx="47.77" ry="18"/>
<text text-anchor="middle" x="1123.15" y="-156.95" font-family="Times,serif" font-size="14.00">11: Name</text>
</g>
<!-- 4449334800&#45;&gt;4449334656 -->
<g id="edge29" class="edge">
<title>4449334800&#45;&gt;4449334656</title>
<path fill="none" stroke="black" d="M1025.15,-218.33C1043.29,-208.08 1067.73,-194.29 1087.66,-183.04"/>
<polygon fill="black" stroke="black" points="1089.31,-186.12 1096.3,-178.16 1085.87,-180.03 1089.31,-186.12"/>
</g>
<!-- 4449334752&#45;&gt;4311043232 -->
<g id="edge28" class="edge">
<title>4449334752&#45;&gt;4311043232</title>
<path fill="none" stroke="black" d="M955.6,-149.71C947.81,-147.75 939.75,-145.78 932.15,-144 870.2,-129.47 799.11,-114.32 749.34,-103.95"/>
<polygon fill="black" stroke="black" points="750.09,-100.54 739.59,-101.93 748.67,-107.39 750.09,-100.54"/>
</g>
<!-- 4449334704 -->
<g id="node28" class="node">
<title>4449334704</title>
<ellipse fill="none" stroke="black" cx="999.15" cy="-90" rx="47.77" ry="18"/>
<text text-anchor="middle" x="999.15" y="-84.95" font-family="Times,serif" font-size="14.00">11: Name</text>
</g>
<!-- 4449334752&#45;&gt;4449334704 -->
<g id="edge27" class="edge">
<title>4449334752&#45;&gt;4449334704</title>
<path fill="none" stroke="black" d="M999.15,-143.7C999.15,-136.41 999.15,-127.73 999.15,-119.54"/>
<polygon fill="black" stroke="black" points="1002.65,-119.62 999.15,-109.62 995.65,-119.62 1002.65,-119.62"/>
</g>
<!-- 4449334560 -->
<g id="node31" class="node">
<title>4449334560</title>
<ellipse fill="none" stroke="black" cx="1207.15" cy="-306" rx="86.15" ry="18"/>
<text text-anchor="start" x="1152.03" y="-300.95" font-family="Times,serif" font-size="14.00">class &#39;ast.arguments&#39;</text>
</g>
<!-- 4449334608&#45;&gt;4449334560 -->
<g id="edge31" class="edge">
<title>4449334608&#45;&gt;4449334560</title>
<path fill="none" stroke="black" d="M1207.15,-359.7C1207.15,-352.41 1207.15,-343.73 1207.15,-335.54"/>
<polygon fill="black" stroke="black" points="1210.65,-335.62 1207.15,-325.62 1203.65,-335.62 1210.65,-335.62"/>
</g>
<!-- 4449334416 -->
<g id="node34" class="node">
<title>4449334416</title>
<ellipse fill="none" stroke="black" cx="1469.15" cy="-306" rx="31.39" ry="18"/>
<text text-anchor="middle" x="1469.15" y="-300.95" font-family="Times,serif" font-size="14.00">14: If</text>
</g>
<!-- 4449334608&#45;&gt;4449334416 -->
<g id="edge34" class="edge">
<title>4449334608&#45;&gt;4449334416</title>
<path fill="none" stroke="black" d="M1254.9,-364.24C1305.22,-350.8 1383.51,-329.88 1430.22,-317.4"/>
<polygon fill="black" stroke="black" points="1430.88,-320.85 1439.63,-314.89 1429.07,-314.09 1430.88,-320.85"/>
</g>
<!-- 4449334512 -->
<g id="node32" class="node">
<title>4449334512</title>
<ellipse fill="none" stroke="black" cx="1161.15" cy="-234" rx="37.02" ry="18"/>
<text text-anchor="middle" x="1161.15" y="-228.95" font-family="Times,serif" font-size="14.00">13: arg</text>
</g>
<!-- 4449334560&#45;&gt;4449334512 -->
<g id="edge32" class="edge">
<title>4449334560&#45;&gt;4449334512</title>
<path fill="none" stroke="black" d="M1195.78,-287.7C1190.53,-279.7 1184.17,-270.02 1178.34,-261.15"/>
<polygon fill="black" stroke="black" points="1181.33,-259.32 1172.91,-252.89 1175.48,-263.17 1181.33,-259.32"/>
</g>
<!-- 4449334464 -->
<g id="node33" class="node">
<title>4449334464</title>
<ellipse fill="none" stroke="black" cx="1253.15" cy="-234" rx="37.02" ry="18"/>
<text text-anchor="middle" x="1253.15" y="-228.95" font-family="Times,serif" font-size="14.00">13: arg</text>
</g>
<!-- 4449334560&#45;&gt;4449334464 -->
<g id="edge33" class="edge">
<title>4449334560&#45;&gt;4449334464</title>
<path fill="none" stroke="black" d="M1218.53,-287.7C1223.78,-279.7 1230.14,-270.02 1235.97,-261.15"/>
<polygon fill="black" stroke="black" points="1238.83,-263.17 1241.4,-252.89 1232.98,-259.32 1238.83,-263.17"/>
</g>
<!-- 4449334368 -->
<g id="node35" class="node">
<title>4449334368</title>
<ellipse fill="none" stroke="black" cx="1392.15" cy="-234" rx="59.54" ry="18"/>
<text text-anchor="middle" x="1392.15" y="-228.95" font-family="Times,serif" font-size="14.00">14: Compare</text>
</g>
<!-- 4449334416&#45;&gt;4449334368 -->
<g id="edge35" class="edge">
<title>4449334416&#45;&gt;4449334368</title>
<path fill="none" stroke="black" d="M1452.82,-290.15C1442.9,-281.14 1430,-269.41 1418.65,-259.09"/>
<polygon fill="black" stroke="black" points="1421.22,-256.69 1411.47,-252.56 1416.51,-261.87 1421.22,-256.69"/>
</g>
<!-- 4449334224 -->
<g id="node39" class="node">
<title>4449334224</title>
<ellipse fill="none" stroke="black" cx="1546.15" cy="-234" rx="43.16" ry="18"/>
<text text-anchor="middle" x="1546.15" y="-228.95" font-family="Times,serif" font-size="14.00">15: Expr</text>
</g>
<!-- 4449334416&#45;&gt;4449334224 -->
<g id="edge39" class="edge">
<title>4449334416&#45;&gt;4449334224</title>
<path fill="none" stroke="black" d="M1485.48,-290.15C1495.62,-280.94 1508.85,-268.91 1520.38,-258.43"/>
<polygon fill="black" stroke="black" points="1522.61,-261.13 1527.66,-251.81 1517.9,-255.95 1522.61,-261.13"/>
</g>
<!-- 4449322896 -->
<g id="node44" class="node">
<title>4449322896</title>
<ellipse fill="none" stroke="black" cx="1692.15" cy="-234" rx="43.16" ry="18"/>
<text text-anchor="middle" x="1692.15" y="-228.95" font-family="Times,serif" font-size="14.00">17: Expr</text>
</g>
<!-- 4449334416&#45;&gt;4449322896 -->
<g id="edge44" class="edge">
<title>4449334416&#45;&gt;4449322896</title>
<path fill="none" stroke="black" d="M1496.05,-296.56C1533.54,-284.79 1601.97,-263.31 1647.26,-249.09"/>
<polygon fill="black" stroke="black" points="1648.3,-252.43 1656.79,-246.1 1646.21,-245.76 1648.3,-252.43"/>
</g>
<!-- 4449334320 -->
<g id="node36" class="node">
<title>4449334320</title>
<ellipse fill="none" stroke="black" cx="1237.15" cy="-162" rx="47.77" ry="18"/>
<text text-anchor="middle" x="1237.15" y="-156.95" font-family="Times,serif" font-size="14.00">14: Name</text>
</g>
<!-- 4449334368&#45;&gt;4449334320 -->
<g id="edge36" class="edge">
<title>4449334368&#45;&gt;4449334320</title>
<path fill="none" stroke="black" d="M1360.04,-218.5C1335.96,-207.62 1302.85,-192.67 1277.06,-181.02"/>
<polygon fill="black" stroke="black" points="1278.8,-177.97 1268.25,-177.04 1275.92,-184.35 1278.8,-177.97"/>
</g>
<!-- 4311045488 -->
<g id="node37" class="node">
<title>4311045488</title>
<ellipse fill="none" stroke="black" cx="1360.15" cy="-162" rx="57.49" ry="18"/>
<text text-anchor="start" x="1326.03" y="-156.95" font-family="Times,serif" font-size="14.00">class &#39;ast.Eq&#39;</text>
</g>
<!-- 4449334368&#45;&gt;4311045488 -->
<g id="edge37" class="edge">
<title>4449334368&#45;&gt;4311045488</title>
<path fill="none" stroke="black" d="M1384.24,-215.7C1380.76,-208.07 1376.57,-198.92 1372.68,-190.4"/>
<polygon fill="black" stroke="black" points="1375.94,-189.12 1368.6,-181.48 1369.58,-192.03 1375.94,-189.12"/>
</g>
<!-- 4449334272 -->
<g id="node38" class="node">
<title>4449334272</title>
<ellipse fill="none" stroke="black" cx="1493.15" cy="-162" rx="58" ry="18"/>
<text text-anchor="middle" x="1493.15" y="-156.95" font-family="Times,serif" font-size="14.00">14: Constant</text>
</g>
<!-- 4449334368&#45;&gt;4449334272 -->
<g id="edge38" class="edge">
<title>4449334368&#45;&gt;4449334272</title>
<path fill="none" stroke="black" d="M1415.33,-216.94C1428.8,-207.6 1445.98,-195.69 1460.78,-185.44"/>
<polygon fill="black" stroke="black" points="1462.62,-188.42 1468.85,-179.85 1458.63,-182.67 1462.62,-188.42"/>
</g>
<!-- 4449324480 -->
<g id="node40" class="node">
<title>4449324480</title>
<ellipse fill="none" stroke="black" cx="1610.15" cy="-162" rx="40.6" ry="18"/>
<text text-anchor="middle" x="1610.15" y="-156.95" font-family="Times,serif" font-size="14.00">15: Call</text>
</g>
<!-- 4449334224&#45;&gt;4449324480 -->
<g id="edge40" class="edge">
<title>4449334224&#45;&gt;4449324480</title>
<path fill="none" stroke="black" d="M1561,-216.76C1568.91,-208.11 1578.82,-197.27 1587.66,-187.6"/>
<polygon fill="black" stroke="black" points="1590.21,-190.01 1594.37,-180.26 1585.04,-185.28 1590.21,-190.01"/>
</g>
<!-- 4449327888 -->
<g id="node41" class="node">
<title>4449327888</title>
<ellipse fill="none" stroke="black" cx="1486.15" cy="-90" rx="58" ry="18"/>
<text text-anchor="middle" x="1486.15" y="-84.95" font-family="Times,serif" font-size="14.00">15: Attribute</text>
</g>
<!-- 4449324480&#45;&gt;4449327888 -->
<g id="edge41" class="edge">
<title>4449324480&#45;&gt;4449327888</title>
<path fill="none" stroke="black" d="M1585.66,-147.17C1567.78,-137.08 1543.25,-123.23 1523.02,-111.81"/>
<polygon fill="black" stroke="black" points="1524.93,-108.87 1514.5,-107 1521.49,-114.97 1524.93,-108.87"/>
</g>
<!-- 4449333360 -->
<g id="node43" class="node">
<title>4449333360</title>
<ellipse fill="none" stroke="black" cx="1610.15" cy="-90" rx="47.77" ry="18"/>
<text text-anchor="middle" x="1610.15" y="-84.95" font-family="Times,serif" font-size="14.00">15: Name</text>
</g>
<!-- 4449324480&#45;&gt;4449333360 -->
<g id="edge43" class="edge">
<title>4449324480&#45;&gt;4449333360</title>
<path fill="none" stroke="black" d="M1610.15,-143.7C1610.15,-136.41 1610.15,-127.73 1610.15,-119.54"/>
<polygon fill="black" stroke="black" points="1613.65,-119.62 1610.15,-109.62 1606.65,-119.62 1613.65,-119.62"/>
</g>
<!-- 4449333456 -->
<g id="node42" class="node">
<title>4449333456</title>
<ellipse fill="none" stroke="black" cx="1486.15" cy="-18" rx="47.77" ry="18"/>
<text text-anchor="middle" x="1486.15" y="-12.95" font-family="Times,serif" font-size="14.00">15: Name</text>
</g>
<!-- 4449327888&#45;&gt;4449333456 -->
<g id="edge42" class="edge">
<title>4449327888&#45;&gt;4449333456</title>
<path fill="none" stroke="black" d="M1486.15,-71.7C1486.15,-64.41 1486.15,-55.73 1486.15,-47.54"/>
<polygon fill="black" stroke="black" points="1489.65,-47.62 1486.15,-37.62 1482.65,-47.62 1489.65,-47.62"/>
</g>
<!-- 4449324192 -->
<g id="node45" class="node">
<title>4449324192</title>
<ellipse fill="none" stroke="black" cx="1734.15" cy="-162" rx="40.6" ry="18"/>
<text text-anchor="middle" x="1734.15" y="-156.95" font-family="Times,serif" font-size="14.00">17: Call</text>
</g>
<!-- 4449322896&#45;&gt;4449324192 -->
<g id="edge45" class="edge">
<title>4449322896&#45;&gt;4449324192</title>
<path fill="none" stroke="black" d="M1702.32,-216.05C1707.12,-208.06 1712.96,-198.33 1718.31,-189.4"/>
<polygon fill="black" stroke="black" points="1721.16,-191.46 1723.3,-181.09 1715.16,-187.86 1721.16,-191.46"/>
</g>
<!-- 4449323184 -->
<g id="node46" class="node">
<title>4449323184</title>
<ellipse fill="none" stroke="black" cx="1734.15" cy="-90" rx="58" ry="18"/>
<text text-anchor="middle" x="1734.15" y="-84.95" font-family="Times,serif" font-size="14.00">17: Attribute</text>
</g>
<!-- 4449324192&#45;&gt;4449323184 -->
<g id="edge46" class="edge">
<title>4449324192&#45;&gt;4449323184</title>
<path fill="none" stroke="black" d="M1734.15,-143.7C1734.15,-136.41 1734.15,-127.73 1734.15,-119.54"/>
<polygon fill="black" stroke="black" points="1737.65,-119.62 1734.15,-109.62 1730.65,-119.62 1737.65,-119.62"/>
</g>
<!-- 4449332832 -->
<g id="node48" class="node">
<title>4449332832</title>
<ellipse fill="none" stroke="black" cx="1858.15" cy="-90" rx="47.77" ry="18"/>
<text text-anchor="middle" x="1858.15" y="-84.95" font-family="Times,serif" font-size="14.00">17: Name</text>
</g>
<!-- 4449324192&#45;&gt;4449332832 -->
<g id="edge48" class="edge">
<title>4449324192&#45;&gt;4449332832</title>
<path fill="none" stroke="black" d="M1758.65,-147.17C1776.89,-136.88 1802.05,-122.67 1822.51,-111.12"/>
<polygon fill="black" stroke="black" points="1824.12,-114.23 1831.11,-106.27 1820.68,-108.14 1824.12,-114.23"/>
</g>
<!-- 4449322080 -->
<g id="node47" class="node">
<title>4449322080</title>
<ellipse fill="none" stroke="black" cx="1734.15" cy="-18" rx="47.77" ry="18"/>
<text text-anchor="middle" x="1734.15" y="-12.95" font-family="Times,serif" font-size="14.00">17: Name</text>
</g>
<!-- 4449323184&#45;&gt;4449322080 -->
<g id="edge47" class="edge">
<title>4449323184&#45;&gt;4449322080</title>
<path fill="none" stroke="black" d="M1734.15,-71.7C1734.15,-64.41 1734.15,-55.73 1734.15,-47.54"/>
<polygon fill="black" stroke="black" points="1737.65,-47.62 1734.15,-37.62 1730.65,-47.62 1737.65,-47.62"/>
</g>
</g>
</svg>
