<?xml version="1.0" encoding="UTF-8" standalone="no"?>
<!DOCTYPE svg PUBLIC "-//W3C//DTD SVG 1.1//EN"
 "http://www.w3.org/Graphics/SVG/1.1/DTD/svg11.dtd">
<!-- Generated by graphviz version 11.0.0 (20240428.1522)
 -->
<!-- Pages: 1 -->
<svg width="790pt" height="404pt"
 viewBox="0.00 0.00 790.32 404.00" xmlns="http://www.w3.org/2000/svg" xmlns:xlink="http://www.w3.org/1999/xlink">
<g id="graph0" class="graph" transform="scale(1 1) rotate(0) translate(4 400)">
<polygon fill="white" stroke="none" points="-4,4 -4,-400 786.32,-400 786.32,4 -4,4"/>
<!-- 4381286144 -->
<g id="node1" class="node">
<title>4381286144</title>
<ellipse fill="none" stroke="black" cx="240.15" cy="-378" rx="76.43" ry="18"/>
<text text-anchor="start" x="192.15" y="-372.95" font-family="Times,serif" font-size="14.00">class &#39;ast.Module&#39;</text>
</g>
<!-- 4381288112 -->
<g id="node2" class="node">
<title>4381288112</title>
<ellipse fill="none" stroke="black" cx="240.15" cy="-306" rx="67.22" ry="18"/>
<text text-anchor="middle" x="240.15" y="-300.95" font-family="Times,serif" font-size="14.00">0: FunctionDef</text>
</g>
<!-- 4381286144&#45;&gt;4381288112 -->
<g id="edge1" class="edge">
<title>4381286144&#45;&gt;4381288112</title>
<path fill="none" stroke="black" d="M240.15,-359.7C240.15,-352.41 240.15,-343.73 240.15,-335.54"/>
<polygon fill="black" stroke="black" points="243.65,-335.62 240.15,-325.62 236.65,-335.62 243.65,-335.62"/>
</g>
<!-- 4381288256 -->
<g id="node3" class="node">
<title>4381288256</title>
<ellipse fill="none" stroke="black" cx="86.15" cy="-234" rx="86.15" ry="18"/>
<text text-anchor="start" x="31.03" y="-228.95" font-family="Times,serif" font-size="14.00">class &#39;ast.arguments&#39;</text>
</g>
<!-- 4381288112&#45;&gt;4381288256 -->
<g id="edge2" class="edge">
<title>4381288112&#45;&gt;4381288256</title>
<path fill="none" stroke="black" d="M207.12,-289.98C185.02,-279.94 155.66,-266.6 131.4,-255.57"/>
<polygon fill="black" stroke="black" points="132.94,-252.42 122.39,-251.47 130.04,-258.79 132.94,-252.42"/>
</g>
<!-- 4381288160 -->
<g id="node5" class="node">
<title>4381288160</title>
<ellipse fill="none" stroke="black" cx="240.15" cy="-234" rx="27" ry="18"/>
<text text-anchor="middle" x="240.15" y="-228.95" font-family="Times,serif" font-size="14.00">1: If</text>
</g>
<!-- 4381288112&#45;&gt;4381288160 -->
<g id="edge4" class="edge">
<title>4381288112&#45;&gt;4381288160</title>
<path fill="none" stroke="black" d="M240.15,-287.7C240.15,-280.41 240.15,-271.73 240.15,-263.54"/>
<polygon fill="black" stroke="black" points="243.65,-263.62 240.15,-253.62 236.65,-263.62 243.65,-263.62"/>
</g>
<!-- 4381288544 -->
<g id="node11" class="node">
<title>4381288544</title>
<ellipse fill="none" stroke="black" cx="507.15" cy="-234" rx="27" ry="18"/>
<text text-anchor="middle" x="507.15" y="-228.95" font-family="Times,serif" font-size="14.00">4: If</text>
</g>
<!-- 4381288112&#45;&gt;4381288544 -->
<g id="edge10" class="edge">
<title>4381288112&#45;&gt;4381288544</title>
<path fill="none" stroke="black" d="M286.97,-292.73C339.47,-278.96 423.49,-256.93 471.12,-244.45"/>
<polygon fill="black" stroke="black" points="471.88,-247.87 480.66,-241.95 470.1,-241.1 471.88,-247.87"/>
</g>
<!-- 4381288208 -->
<g id="node4" class="node">
<title>4381288208</title>
<ellipse fill="none" stroke="black" cx="62.15" cy="-162" rx="32.41" ry="18"/>
<text text-anchor="middle" x="62.15" y="-156.95" font-family="Times,serif" font-size="14.00">0: arg</text>
</g>
<!-- 4381288256&#45;&gt;4381288208 -->
<g id="edge3" class="edge">
<title>4381288256&#45;&gt;4381288208</title>
<path fill="none" stroke="black" d="M80.22,-215.7C77.66,-208.24 74.61,-199.32 71.74,-190.97"/>
<polygon fill="black" stroke="black" points="75.06,-189.86 68.51,-181.54 68.44,-192.13 75.06,-189.86"/>
</g>
<!-- 4381288064 -->
<g id="node6" class="node">
<title>4381288064</title>
<ellipse fill="none" stroke="black" cx="167.15" cy="-162" rx="54.93" ry="18"/>
<text text-anchor="middle" x="167.15" y="-156.95" font-family="Times,serif" font-size="14.00">1: Compare</text>
</g>
<!-- 4381288160&#45;&gt;4381288064 -->
<g id="edge5" class="edge">
<title>4381288160&#45;&gt;4381288064</title>
<path fill="none" stroke="black" d="M225.38,-218.83C215.89,-209.73 203.31,-197.67 192.27,-187.08"/>
<polygon fill="black" stroke="black" points="194.94,-184.8 185.3,-180.4 190.1,-189.85 194.94,-184.8"/>
</g>
<!-- 4381288496 -->
<g id="node10" class="node">
<title>4381288496</title>
<ellipse fill="none" stroke="black" cx="286.15" cy="-162" rx="45.72" ry="18"/>
<text text-anchor="middle" x="286.15" y="-156.95" font-family="Times,serif" font-size="14.00">2: Return</text>
</g>
<!-- 4381288160&#45;&gt;4381288496 -->
<g id="edge9" class="edge">
<title>4381288160&#45;&gt;4381288496</title>
<path fill="none" stroke="black" d="M250.59,-217.12C256.02,-208.85 262.8,-198.54 268.98,-189.14"/>
<polygon fill="black" stroke="black" points="271.72,-191.34 274.28,-181.06 265.87,-187.5 271.72,-191.34"/>
</g>
<!-- 4381288448 -->
<g id="node7" class="node">
<title>4381288448</title>
<ellipse fill="none" stroke="black" cx="46.15" cy="-90" rx="43.16" ry="18"/>
<text text-anchor="middle" x="46.15" y="-84.95" font-family="Times,serif" font-size="14.00">1: Name</text>
</g>
<!-- 4381288064&#45;&gt;4381288448 -->
<g id="edge6" class="edge">
<title>4381288064&#45;&gt;4381288448</title>
<path fill="none" stroke="black" d="M140.9,-145.81C123.22,-135.59 99.73,-122 80.57,-110.91"/>
<polygon fill="black" stroke="black" points="82.43,-107.94 72.02,-105.96 78.92,-114 82.43,-107.94"/>
</g>
<!-- 4311045488 -->
<g id="node8" class="node">
<title>4311045488</title>
<ellipse fill="none" stroke="black" cx="290.15" cy="-90" rx="57.49" ry="18"/>
<text text-anchor="start" x="256.03" y="-84.95" font-family="Times,serif" font-size="14.00">class &#39;ast.Eq&#39;</text>
</g>
<!-- 4381288064&#45;&gt;4311045488 -->
<g id="edge7" class="edge">
<title>4381288064&#45;&gt;4311045488</title>
<path fill="none" stroke="black" d="M193.84,-145.81C211.33,-135.86 234.42,-122.72 253.61,-111.8"/>
<polygon fill="black" stroke="black" points="255.24,-114.9 262.2,-106.91 251.78,-108.81 255.24,-114.9"/>
</g>
<!-- 4381288400 -->
<g id="node9" class="node">
<title>4381288400</title>
<ellipse fill="none" stroke="black" cx="161.15" cy="-90" rx="53.4" ry="18"/>
<text text-anchor="middle" x="161.15" y="-84.95" font-family="Times,serif" font-size="14.00">1: Constant</text>
</g>
<!-- 4381288064&#45;&gt;4381288400 -->
<g id="edge8" class="edge">
<title>4381288064&#45;&gt;4381288400</title>
<path fill="none" stroke="black" d="M165.67,-143.7C165.05,-136.41 164.3,-127.73 163.6,-119.54"/>
<polygon fill="black" stroke="black" points="167.09,-119.28 162.75,-109.61 160.12,-119.87 167.09,-119.28"/>
</g>
<!-- 4381288304 -->
<g id="node12" class="node">
<title>4381288304</title>
<ellipse fill="none" stroke="black" cx="424.15" cy="-162" rx="54.93" ry="18"/>
<text text-anchor="middle" x="424.15" y="-156.95" font-family="Times,serif" font-size="14.00">4: Compare</text>
</g>
<!-- 4381288544&#45;&gt;4381288304 -->
<g id="edge11" class="edge">
<title>4381288544&#45;&gt;4381288304</title>
<path fill="none" stroke="black" d="M490.76,-219.17C479.7,-209.85 464.84,-197.31 451.96,-186.45"/>
<polygon fill="black" stroke="black" points="454.49,-184 444.59,-180.23 449.98,-189.36 454.49,-184"/>
</g>
<!-- 4381287872 -->
<g id="node18" class="node">
<title>4381287872</title>
<ellipse fill="none" stroke="black" cx="591.15" cy="-162" rx="38.56" ry="18"/>
<text text-anchor="middle" x="591.15" y="-156.95" font-family="Times,serif" font-size="14.00">5: Expr</text>
</g>
<!-- 4381288544&#45;&gt;4381287872 -->
<g id="edge18" class="edge">
<title>4381288544&#45;&gt;4381287872</title>
<path fill="none" stroke="black" d="M523.35,-219.5C535,-209.79 550.99,-196.47 564.51,-185.21"/>
<polygon fill="black" stroke="black" points="566.36,-188.22 571.8,-179.13 561.88,-182.84 566.36,-188.22"/>
</g>
<!-- 4381287680 -->
<g id="node21" class="node">
<title>4381287680</title>
<ellipse fill="none" stroke="black" cx="719.15" cy="-162" rx="38.56" ry="18"/>
<text text-anchor="middle" x="719.15" y="-156.95" font-family="Times,serif" font-size="14.00">7: Expr</text>
</g>
<!-- 4381288544&#45;&gt;4381287680 -->
<g id="edge21" class="edge">
<title>4381288544&#45;&gt;4381287680</title>
<path fill="none" stroke="black" d="M531.06,-225.11C566.52,-213.4 633.58,-191.26 677.3,-176.82"/>
<polygon fill="black" stroke="black" points="678.31,-180.17 686.71,-173.71 676.12,-173.52 678.31,-180.17"/>
</g>
<!-- 4381288304&#45;&gt;4311045488 -->
<g id="edge16" class="edge">
<title>4381288304&#45;&gt;4311045488</title>
<path fill="none" stroke="black" d="M395.74,-146.15C376.19,-135.95 350.01,-122.27 328.6,-111.09"/>
<polygon fill="black" stroke="black" points="330.36,-108.05 319.87,-106.52 327.12,-114.26 330.36,-108.05"/>
</g>
<!-- 4381288016 -->
<g id="node13" class="node">
<title>4381288016</title>
<ellipse fill="none" stroke="black" cx="411.15" cy="-90" rx="45.21" ry="18"/>
<text text-anchor="middle" x="411.15" y="-84.95" font-family="Times,serif" font-size="14.00">4: BinOp</text>
</g>
<!-- 4381288304&#45;&gt;4381288016 -->
<g id="edge12" class="edge">
<title>4381288304&#45;&gt;4381288016</title>
<path fill="none" stroke="black" d="M420.94,-143.7C419.57,-136.32 417.94,-127.52 416.4,-119.25"/>
<polygon fill="black" stroke="black" points="419.87,-118.79 414.61,-109.59 412.99,-120.06 419.87,-118.79"/>
</g>
<!-- 4381287440 -->
<g id="node17" class="node">
<title>4381287440</title>
<ellipse fill="none" stroke="black" cx="528.15" cy="-90" rx="53.4" ry="18"/>
<text text-anchor="middle" x="528.15" y="-84.95" font-family="Times,serif" font-size="14.00">4: Constant</text>
</g>
<!-- 4381288304&#45;&gt;4381287440 -->
<g id="edge17" class="edge">
<title>4381288304&#45;&gt;4381287440</title>
<path fill="none" stroke="black" d="M447.49,-145.29C461.68,-135.74 480,-123.41 495.6,-112.91"/>
<polygon fill="black" stroke="black" points="497.3,-115.99 503.64,-107.5 493.39,-110.18 497.3,-115.99"/>
</g>
<!-- 4381287536 -->
<g id="node14" class="node">
<title>4381287536</title>
<ellipse fill="none" stroke="black" cx="257.15" cy="-18" rx="43.16" ry="18"/>
<text text-anchor="middle" x="257.15" y="-12.95" font-family="Times,serif" font-size="14.00">4: Name</text>
</g>
<!-- 4381288016&#45;&gt;4381287536 -->
<g id="edge13" class="edge">
<title>4381288016&#45;&gt;4381287536</title>
<path fill="none" stroke="black" d="M382.19,-75.83C357.73,-64.72 322.5,-48.7 295.67,-36.51"/>
<polygon fill="black" stroke="black" points="297.4,-33.45 286.85,-32.5 294.5,-39.82 297.4,-33.45"/>
</g>
<!-- 4311044192 -->
<g id="node15" class="node">
<title>4311044192</title>
<ellipse fill="none" stroke="black" cx="383.15" cy="-18" rx="65.17" ry="18"/>
<text text-anchor="start" x="343.4" y="-12.95" font-family="Times,serif" font-size="14.00">class &#39;ast.Mod&#39;</text>
</g>
<!-- 4381288016&#45;&gt;4311044192 -->
<g id="edge14" class="edge">
<title>4381288016&#45;&gt;4311044192</title>
<path fill="none" stroke="black" d="M404.38,-72.05C401.36,-64.52 397.73,-55.44 394.33,-46.94"/>
<polygon fill="black" stroke="black" points="397.59,-45.67 390.63,-37.68 391.09,-48.27 397.59,-45.67"/>
</g>
<!-- 4381287488 -->
<g id="node16" class="node">
<title>4381287488</title>
<ellipse fill="none" stroke="black" cx="520.15" cy="-18" rx="53.4" ry="18"/>
<text text-anchor="middle" x="520.15" y="-12.95" font-family="Times,serif" font-size="14.00">4: Constant</text>
</g>
<!-- 4381288016&#45;&gt;4381287488 -->
<g id="edge15" class="edge">
<title>4381288016&#45;&gt;4381287488</title>
<path fill="none" stroke="black" d="M434.27,-74.15C449.52,-64.36 469.75,-51.37 486.75,-40.45"/>
<polygon fill="black" stroke="black" points="488.52,-43.47 495.04,-35.13 484.74,-37.58 488.52,-43.47"/>
</g>
<!-- 4381287824 -->
<g id="node19" class="node">
<title>4381287824</title>
<ellipse fill="none" stroke="black" cx="635.15" cy="-90" rx="36" ry="18"/>
<text text-anchor="middle" x="635.15" y="-84.95" font-family="Times,serif" font-size="14.00">5: Call</text>
</g>
<!-- 4381287872&#45;&gt;4381287824 -->
<g id="edge19" class="edge">
<title>4381287872&#45;&gt;4381287824</title>
<path fill="none" stroke="black" d="M601.58,-144.41C606.73,-136.22 613.07,-126.14 618.84,-116.95"/>
<polygon fill="black" stroke="black" points="621.64,-119.08 624,-108.75 615.71,-115.36 621.64,-119.08"/>
</g>
<!-- 4381287920 -->
<g id="node20" class="node">
<title>4381287920</title>
<ellipse fill="none" stroke="black" cx="635.15" cy="-18" rx="43.16" ry="18"/>
<text text-anchor="middle" x="635.15" y="-12.95" font-family="Times,serif" font-size="14.00">5: Name</text>
</g>
<!-- 4381287824&#45;&gt;4381287920 -->
<g id="edge20" class="edge">
<title>4381287824&#45;&gt;4381287920</title>
<path fill="none" stroke="black" d="M635.15,-71.7C635.15,-64.41 635.15,-55.73 635.15,-47.54"/>
<polygon fill="black" stroke="black" points="638.65,-47.62 635.15,-37.62 631.65,-47.62 638.65,-47.62"/>
</g>
<!-- 4381287632 -->
<g id="node22" class="node">
<title>4381287632</title>
<ellipse fill="none" stroke="black" cx="732.15" cy="-90" rx="36" ry="18"/>
<text text-anchor="middle" x="732.15" y="-84.95" font-family="Times,serif" font-size="14.00">7: Call</text>
</g>
<!-- 4381287680&#45;&gt;4381287632 -->
<g id="edge22" class="edge">
<title>4381287680&#45;&gt;4381287632</title>
<path fill="none" stroke="black" d="M722.37,-143.7C723.74,-136.32 725.37,-127.52 726.91,-119.25"/>
<polygon fill="black" stroke="black" points="730.32,-120.06 728.7,-109.59 723.43,-118.79 730.32,-120.06"/>
</g>
<!-- 4381287728 -->
<g id="node23" class="node">
<title>4381287728</title>
<ellipse fill="none" stroke="black" cx="739.15" cy="-18" rx="43.16" ry="18"/>
<text text-anchor="middle" x="739.15" y="-12.95" font-family="Times,serif" font-size="14.00">7: Name</text>
</g>
<!-- 4381287632&#45;&gt;4381287728 -->
<g id="edge23" class="edge">
<title>4381287632&#45;&gt;4381287728</title>
<path fill="none" stroke="black" d="M733.88,-71.7C734.61,-64.41 735.48,-55.73 736.3,-47.54"/>
<polygon fill="black" stroke="black" points="739.78,-47.91 737.29,-37.61 732.82,-47.21 739.78,-47.91"/>
</g>
</g>
</svg>
