<?xml version="1.0" encoding="UTF-8" standalone="no"?>
<!DOCTYPE svg PUBLIC "-//W3C//DTD SVG 1.1//EN"
 "http://www.w3.org/Graphics/SVG/1.1/DTD/svg11.dtd">
<!-- Generated by graphviz version 11.0.0 (20240428.1522)
 -->
<!-- Pages: 1 -->
<svg width="568pt" height="332pt"
 viewBox="0.00 0.00 567.55 332.00" xmlns="http://www.w3.org/2000/svg" xmlns:xlink="http://www.w3.org/1999/xlink">
<g id="graph0" class="graph" transform="scale(1 1) rotate(0) translate(4 328)">
<polygon fill="white" stroke="none" points="-4,4 -4,-328 563.55,-328 563.55,4 -4,4"/>
<!-- 4381282640 -->
<g id="node1" class="node">
<title>4381282640</title>
<ellipse fill="none" stroke="black" cx="255.15" cy="-306" rx="76.43" ry="18"/>
<text text-anchor="start" x="207.15" y="-300.95" font-family="Times,serif" font-size="14.00">class &#39;ast.Module&#39;</text>
</g>
<!-- 4381294016 -->
<g id="node2" class="node">
<title>4381294016</title>
<ellipse fill="none" stroke="black" cx="255.15" cy="-234" rx="67.22" ry="18"/>
<text text-anchor="middle" x="255.15" y="-228.95" font-family="Times,serif" font-size="14.00">0: FunctionDef</text>
</g>
<!-- 4381282640&#45;&gt;4381294016 -->
<g id="edge1" class="edge">
<title>4381282640&#45;&gt;4381294016</title>
<path fill="none" stroke="black" d="M255.15,-287.7C255.15,-280.41 255.15,-271.73 255.15,-263.54"/>
<polygon fill="black" stroke="black" points="258.65,-263.62 255.15,-253.62 251.65,-263.62 258.65,-263.62"/>
</g>
<!-- 4381294064 -->
<g id="node3" class="node">
<title>4381294064</title>
<ellipse fill="none" stroke="black" cx="86.15" cy="-162" rx="86.15" ry="18"/>
<text text-anchor="start" x="31.03" y="-156.95" font-family="Times,serif" font-size="14.00">class &#39;ast.arguments&#39;</text>
</g>
<!-- 4381294016&#45;&gt;4381294064 -->
<g id="edge2" class="edge">
<title>4381294016&#45;&gt;4381294064</title>
<path fill="none" stroke="black" d="M219.73,-218.33C194.95,-208.06 161.55,-194.23 134.35,-182.96"/>
<polygon fill="black" stroke="black" points="135.86,-179.8 125.28,-179.21 133.18,-186.27 135.86,-179.8"/>
</g>
<!-- 4381288064 -->
<g id="node4" class="node">
<title>4381288064</title>
<ellipse fill="none" stroke="black" cx="255.15" cy="-162" rx="65.17" ry="18"/>
<text text-anchor="start" x="215.4" y="-156.95" font-family="Times,serif" font-size="14.00">class &#39;ast.Expr&#39;</text>
</g>
<!-- 4381294016&#45;&gt;4381288064 -->
<g id="edge3" class="edge">
<title>4381294016&#45;&gt;4381288064</title>
<path fill="none" stroke="black" d="M255.15,-215.7C255.15,-208.41 255.15,-199.73 255.15,-191.54"/>
<polygon fill="black" stroke="black" points="258.65,-191.62 255.15,-181.62 251.65,-191.62 258.65,-191.62"/>
</g>
<!-- 4381294112 -->
<g id="node8" class="node">
<title>4381294112</title>
<ellipse fill="none" stroke="black" cx="382.15" cy="-162" rx="38.56" ry="18"/>
<text text-anchor="middle" x="382.15" y="-156.95" font-family="Times,serif" font-size="14.00">1: Expr</text>
</g>
<!-- 4381294016&#45;&gt;4381294112 -->
<g id="edge7" class="edge">
<title>4381294016&#45;&gt;4381294112</title>
<path fill="none" stroke="black" d="M283.66,-217.29C302.71,-206.79 327.88,-192.91 348.01,-181.82"/>
<polygon fill="black" stroke="black" points="349.62,-184.93 356.69,-177.03 346.25,-178.8 349.62,-184.93"/>
</g>
<!-- 4381288352 -->
<g id="node5" class="node">
<title>4381288352</title>
<ellipse fill="none" stroke="black" cx="250.15" cy="-90" rx="62.61" ry="18"/>
<text text-anchor="start" x="212.28" y="-84.95" font-family="Times,serif" font-size="14.00">class &#39;ast.Call&#39;</text>
</g>
<!-- 4381288064&#45;&gt;4381288352 -->
<g id="edge4" class="edge">
<title>4381288064&#45;&gt;4381288352</title>
<path fill="none" stroke="black" d="M253.92,-143.7C253.4,-136.41 252.78,-127.73 252.19,-119.54"/>
<polygon fill="black" stroke="black" points="255.69,-119.34 251.48,-109.61 248.71,-119.84 255.69,-119.34"/>
</g>
<!-- 4381288160 -->
<g id="node6" class="node">
<title>4381288160</title>
<ellipse fill="none" stroke="black" cx="82.15" cy="-18" rx="69.78" ry="18"/>
<text text-anchor="start" x="39.03" y="-12.95" font-family="Times,serif" font-size="14.00">class &#39;ast.Name&#39;</text>
</g>
<!-- 4381288352&#45;&gt;4381288160 -->
<g id="edge5" class="edge">
<title>4381288352&#45;&gt;4381288160</title>
<path fill="none" stroke="black" d="M215.75,-74.67C190.5,-64.14 155.92,-49.74 128.28,-38.22"/>
<polygon fill="black" stroke="black" points="129.64,-35 119.07,-34.38 126.95,-41.46 129.64,-35"/>
</g>
<!-- 4381288496 -->
<g id="node7" class="node">
<title>4381288496</title>
<ellipse fill="none" stroke="black" cx="250.15" cy="-18" rx="80.01" ry="18"/>
<text text-anchor="start" x="199.53" y="-12.95" font-family="Times,serif" font-size="14.00">class &#39;ast.Constant&#39;</text>
</g>
<!-- 4381288352&#45;&gt;4381288496 -->
<g id="edge6" class="edge">
<title>4381288352&#45;&gt;4381288496</title>
<path fill="none" stroke="black" d="M250.15,-71.7C250.15,-64.41 250.15,-55.73 250.15,-47.54"/>
<polygon fill="black" stroke="black" points="253.65,-47.62 250.15,-37.62 246.65,-47.62 253.65,-47.62"/>
</g>
<!-- 4381294160 -->
<g id="node9" class="node">
<title>4381294160</title>
<ellipse fill="none" stroke="black" cx="391.15" cy="-90" rx="36" ry="18"/>
<text text-anchor="middle" x="391.15" y="-84.95" font-family="Times,serif" font-size="14.00">1: Call</text>
</g>
<!-- 4381294112&#45;&gt;4381294160 -->
<g id="edge8" class="edge">
<title>4381294112&#45;&gt;4381294160</title>
<path fill="none" stroke="black" d="M384.38,-143.7C385.33,-136.32 386.46,-127.52 387.52,-119.25"/>
<polygon fill="black" stroke="black" points="390.96,-119.97 388.76,-109.61 384.02,-119.08 390.96,-119.97"/>
</g>
<!-- 4381293776 -->
<g id="node10" class="node">
<title>4381293776</title>
<ellipse fill="none" stroke="black" cx="391.15" cy="-18" rx="43.16" ry="18"/>
<text text-anchor="middle" x="391.15" y="-12.95" font-family="Times,serif" font-size="14.00">1: Name</text>
</g>
<!-- 4381294160&#45;&gt;4381293776 -->
<g id="edge9" class="edge">
<title>4381294160&#45;&gt;4381293776</title>
<path fill="none" stroke="black" d="M391.15,-71.7C391.15,-64.41 391.15,-55.73 391.15,-47.54"/>
<polygon fill="black" stroke="black" points="394.65,-47.62 391.15,-37.62 387.65,-47.62 394.65,-47.62"/>
</g>
<!-- 4381282976 -->
<g id="node11" class="node">
<title>4381282976</title>
<ellipse fill="none" stroke="black" cx="506.15" cy="-18" rx="53.4" ry="18"/>
<text text-anchor="middle" x="506.15" y="-12.95" font-family="Times,serif" font-size="14.00">1: Constant</text>
</g>
<!-- 4381294160&#45;&gt;4381282976 -->
<g id="edge10" class="edge">
<title>4381294160&#45;&gt;4381282976</title>
<path fill="none" stroke="black" d="M413.33,-75.5C429.81,-65.47 452.63,-51.58 471.51,-40.09"/>
<polygon fill="black" stroke="black" points="473.24,-43.13 479.96,-34.94 469.6,-37.15 473.24,-43.13"/>
</g>
</g>
</svg>
