<?xml version="1.0" encoding="UTF-8" standalone="no"?>
<!DOCTYPE svg PUBLIC "-//W3C//DTD SVG 1.1//EN"
 "http://www.w3.org/Graphics/SVG/1.1/DTD/svg11.dtd">
<!-- Generated by graphviz version 11.0.0 (20240428.1522)
 -->
<!-- Pages: 1 -->
<svg width="1131pt" height="188pt"
 viewBox="0.00 0.00 1131.05 188.00" xmlns="http://www.w3.org/2000/svg" xmlns:xlink="http://www.w3.org/1999/xlink">
<g id="graph0" class="graph" transform="scale(1 1) rotate(0) translate(4 184)">
<polygon fill="white" stroke="none" points="-4,4 -4,-184 1127.05,-184 1127.05,4 -4,4"/>
<!-- foo_1 -->
<g id="node1" class="node">
<title>foo_1</title>
<ellipse fill="none" stroke="black" cx="418.28" cy="-162" rx="27" ry="18"/>
<text text-anchor="middle" x="418.28" y="-156.95" font-family="Times,serif" font-size="14.00">foo</text>
</g>
<!-- method_a_1 -->
<g id="node2" class="node">
<title>method_a_1</title>
<ellipse fill="none" stroke="black" cx="162.28" cy="-90" rx="47.77" ry="18"/>
<text text-anchor="middle" x="162.28" y="-84.95" font-family="Times,serif" font-size="14.00">method_a</text>
</g>
<!-- foo_1&#45;&gt;method_a_1 -->
<g id="edge1" class="edge">
<title>foo_1&#45;&gt;method_a_1</title>
<path fill="none" stroke="black" d="M393.73,-154.29C351.7,-142.8 265.22,-119.15 210.69,-104.24"/>
<polygon fill="black" stroke="black" points="211.93,-100.95 201.36,-101.69 210.08,-107.7 211.93,-100.95"/>
</g>
<!-- method_d_1 -->
<g id="node5" class="node">
<title>method_d_1</title>
<ellipse fill="none" stroke="black" cx="290.28" cy="-90" rx="48.28" ry="18"/>
<text text-anchor="middle" x="290.28" y="-84.95" font-family="Times,serif" font-size="14.00">method_d</text>
</g>
<!-- foo_1&#45;&gt;method_d_1 -->
<g id="edge4" class="edge">
<title>foo_1&#45;&gt;method_d_1</title>
<path fill="none" stroke="black" d="M397.72,-149.75C378.51,-139.25 349.42,-123.34 326.35,-110.73"/>
<polygon fill="black" stroke="black" points="328.34,-107.83 317.89,-106.1 324.98,-113.97 328.34,-107.83"/>
</g>
<!-- method_a_2 -->
<g id="node7" class="node">
<title>method_a_2</title>
<ellipse fill="none" stroke="black" cx="418.28" cy="-90" rx="47.77" ry="18"/>
<text text-anchor="middle" x="418.28" y="-84.95" font-family="Times,serif" font-size="14.00">method_a</text>
</g>
<!-- foo_1&#45;&gt;method_a_2 -->
<g id="edge6" class="edge">
<title>foo_1&#45;&gt;method_a_2</title>
<path fill="none" stroke="black" d="M418.28,-143.7C418.28,-136.41 418.28,-127.73 418.28,-119.54"/>
<polygon fill="black" stroke="black" points="421.78,-119.62 418.28,-109.62 414.78,-119.62 421.78,-119.62"/>
</g>
<!-- method_d_2 -->
<g id="node10" class="node">
<title>method_d_2</title>
<ellipse fill="none" stroke="black" cx="561.28" cy="-90" rx="48.28" ry="18"/>
<text text-anchor="middle" x="561.28" y="-84.95" font-family="Times,serif" font-size="14.00">method_d</text>
</g>
<!-- foo_1&#45;&gt;method_d_2 -->
<g id="edge9" class="edge">
<title>foo_1&#45;&gt;method_d_2</title>
<path fill="none" stroke="black" d="M439.69,-150.52C461.56,-139.81 496,-122.95 522.66,-109.91"/>
<polygon fill="black" stroke="black" points="524.01,-113.14 531.45,-105.6 520.93,-106.85 524.01,-113.14"/>
</g>
<!-- method_a_3 -->
<g id="node12" class="node">
<title>method_a_3</title>
<ellipse fill="none" stroke="black" cx="847.28" cy="-90" rx="47.77" ry="18"/>
<text text-anchor="middle" x="847.28" y="-84.95" font-family="Times,serif" font-size="14.00">method_a</text>
</g>
<!-- foo_1&#45;&gt;method_a_3 -->
<g id="edge11" class="edge">
<title>foo_1&#45;&gt;method_a_3</title>
<path fill="none" stroke="black" d="M444.47,-156.73C513.19,-145.51 699.77,-115.07 792.89,-99.87"/>
<polygon fill="black" stroke="black" points="793.24,-103.36 802.55,-98.3 792.11,-96.46 793.24,-103.36"/>
</g>
<!-- method_b_1 -->
<g id="node3" class="node">
<title>method_b_1</title>
<ellipse fill="none" stroke="black" cx="48.28" cy="-18" rx="48.28" ry="18"/>
<text text-anchor="middle" x="48.28" y="-12.95" font-family="Times,serif" font-size="14.00">method_b</text>
</g>
<!-- method_a_1&#45;&gt;method_b_1 -->
<g id="edge2" class="edge">
<title>method_a_1&#45;&gt;method_b_1</title>
<path fill="none" stroke="black" d="M138.1,-74.15C121.78,-64.13 100.01,-50.76 81.99,-39.7"/>
<polygon fill="black" stroke="black" points="84.07,-36.87 73.71,-34.62 80.4,-42.83 84.07,-36.87"/>
</g>
<!-- method_c_1 -->
<g id="node4" class="node">
<title>method_c_1</title>
<ellipse fill="none" stroke="black" cx="162.28" cy="-18" rx="47.77" ry="18"/>
<text text-anchor="middle" x="162.28" y="-12.95" font-family="Times,serif" font-size="14.00">method_c</text>
</g>
<!-- method_a_1&#45;&gt;method_c_1 -->
<g id="edge3" class="edge">
<title>method_a_1&#45;&gt;method_c_1</title>
<path fill="none" stroke="black" d="M162.28,-71.7C162.28,-64.41 162.28,-55.73 162.28,-47.54"/>
<polygon fill="black" stroke="black" points="165.78,-47.62 162.28,-37.62 158.78,-47.62 165.78,-47.62"/>
</g>
<!-- method_c_2 -->
<g id="node6" class="node">
<title>method_c_2</title>
<ellipse fill="none" stroke="black" cx="276.28" cy="-18" rx="47.77" ry="18"/>
<text text-anchor="middle" x="276.28" y="-12.95" font-family="Times,serif" font-size="14.00">method_c</text>
</g>
<!-- method_d_1&#45;&gt;method_c_2 -->
<g id="edge5" class="edge">
<title>method_d_1&#45;&gt;method_c_2</title>
<path fill="none" stroke="black" d="M286.82,-71.7C285.34,-64.32 283.59,-55.52 281.93,-47.25"/>
<polygon fill="black" stroke="black" points="285.39,-46.71 280,-37.59 278.53,-48.08 285.39,-46.71"/>
</g>
<!-- method_b_2 -->
<g id="node8" class="node">
<title>method_b_2</title>
<ellipse fill="none" stroke="black" cx="390.28" cy="-18" rx="48.28" ry="18"/>
<text text-anchor="middle" x="390.28" y="-12.95" font-family="Times,serif" font-size="14.00">method_b</text>
</g>
<!-- method_a_2&#45;&gt;method_b_2 -->
<g id="edge7" class="edge">
<title>method_a_2&#45;&gt;method_b_2</title>
<path fill="none" stroke="black" d="M411.36,-71.7C408.34,-64.15 404.73,-55.12 401.35,-46.68"/>
<polygon fill="black" stroke="black" points="404.65,-45.49 397.68,-37.51 398.15,-48.09 404.65,-45.49"/>
</g>
<!-- method_c_3 -->
<g id="node9" class="node">
<title>method_c_3</title>
<ellipse fill="none" stroke="black" cx="504.28" cy="-18" rx="47.77" ry="18"/>
<text text-anchor="middle" x="504.28" y="-12.95" font-family="Times,serif" font-size="14.00">method_c</text>
</g>
<!-- method_a_2&#45;&gt;method_c_3 -->
<g id="edge8" class="edge">
<title>method_a_2&#45;&gt;method_c_3</title>
<path fill="none" stroke="black" d="M437.8,-73.12C449.12,-63.9 463.58,-52.13 476.12,-41.92"/>
<polygon fill="black" stroke="black" points="478.12,-44.8 483.67,-35.78 473.7,-39.37 478.12,-44.8"/>
</g>
<!-- method_c_4 -->
<g id="node11" class="node">
<title>method_c_4</title>
<ellipse fill="none" stroke="black" cx="618.28" cy="-18" rx="47.77" ry="18"/>
<text text-anchor="middle" x="618.28" y="-12.95" font-family="Times,serif" font-size="14.00">method_c</text>
</g>
<!-- method_d_2&#45;&gt;method_c_4 -->
<g id="edge10" class="edge">
<title>method_d_2&#45;&gt;method_c_4</title>
<path fill="none" stroke="black" d="M574.79,-72.41C581.6,-64.04 590.02,-53.71 597.62,-44.37"/>
<polygon fill="black" stroke="black" points="600.31,-46.61 603.91,-36.64 594.89,-42.19 600.31,-46.61"/>
</g>
<!-- method_b_3 -->
<g id="node13" class="node">
<title>method_b_3</title>
<ellipse fill="none" stroke="black" cx="732.28" cy="-18" rx="48.28" ry="18"/>
<text text-anchor="middle" x="732.28" y="-12.95" font-family="Times,serif" font-size="14.00">method_b</text>
</g>
<!-- method_a_3&#45;&gt;method_b_3 -->
<g id="edge12" class="edge">
<title>method_a_3&#45;&gt;method_b_3</title>
<path fill="none" stroke="black" d="M822.89,-74.15C806.43,-64.13 784.46,-50.76 766.28,-39.7"/>
<polygon fill="black" stroke="black" points="768.29,-36.82 757.93,-34.61 764.65,-42.8 768.29,-36.82"/>
</g>
<!-- method_b_4 -->
<g id="node14" class="node">
<title>method_b_4</title>
<ellipse fill="none" stroke="black" cx="847.28" cy="-18" rx="48.28" ry="18"/>
<text text-anchor="middle" x="847.28" y="-12.95" font-family="Times,serif" font-size="14.00">method_b</text>
</g>
<!-- method_a_3&#45;&gt;method_b_4 -->
<g id="edge13" class="edge">
<title>method_a_3&#45;&gt;method_b_4</title>
<path fill="none" stroke="black" d="M847.28,-71.7C847.28,-64.41 847.28,-55.73 847.28,-47.54"/>
<polygon fill="black" stroke="black" points="850.78,-47.62 847.28,-37.62 843.78,-47.62 850.78,-47.62"/>
</g>
<!-- method_c_5 -->
<g id="node15" class="node">
<title>method_c_5</title>
<ellipse fill="none" stroke="black" cx="961.28" cy="-18" rx="47.77" ry="18"/>
<text text-anchor="middle" x="961.28" y="-12.95" font-family="Times,serif" font-size="14.00">method_c</text>
</g>
<!-- method_a_3&#45;&gt;method_c_5 -->
<g id="edge14" class="edge">
<title>method_a_3&#45;&gt;method_c_5</title>
<path fill="none" stroke="black" d="M871.46,-74.15C887.78,-64.13 909.55,-50.76 927.57,-39.7"/>
<polygon fill="black" stroke="black" points="929.16,-42.83 935.85,-34.62 925.5,-36.87 929.16,-42.83"/>
</g>
<!-- method_c_6 -->
<g id="node16" class="node">
<title>method_c_6</title>
<ellipse fill="none" stroke="black" cx="1075.28" cy="-18" rx="47.77" ry="18"/>
<text text-anchor="middle" x="1075.28" y="-12.95" font-family="Times,serif" font-size="14.00">method_c</text>
</g>
<!-- method_a_3&#45;&gt;method_c_6 -->
<g id="edge15" class="edge">
<title>method_a_3&#45;&gt;method_c_6</title>
<path fill="none" stroke="black" d="M883.41,-77.91C922.57,-65.89 985.21,-46.65 1028.19,-33.46"/>
<polygon fill="black" stroke="black" points="1028.97,-36.88 1037.5,-30.6 1026.91,-30.19 1028.97,-36.88"/>
</g>
</g>
</svg>
