<?xml version="1.0" encoding="UTF-8" standalone="no"?>
<!DOCTYPE svg PUBLIC "-//W3C//DTD SVG 1.1//EN"
 "http://www.w3.org/Graphics/SVG/1.1/DTD/svg11.dtd">
<!-- Generated by graphviz version 11.0.0 (20240428.1522)
 -->
<!-- Pages: 1 -->
<svg width="753pt" height="404pt"
 viewBox="0.00 0.00 752.64 404.00" xmlns="http://www.w3.org/2000/svg" xmlns:xlink="http://www.w3.org/1999/xlink">
<g id="graph0" class="graph" transform="scale(1 1) rotate(0) translate(4 400)">
<polygon fill="white" stroke="none" points="-4,4 -4,-400 748.64,-400 748.64,4 -4,4"/>
<!-- 41 -->
<g id="node1" class="node">
<title>41</title>
<ellipse fill="none" stroke="black" cx="280.32" cy="-378" rx="32.93" ry="18"/>
<text text-anchor="middle" x="280.32" y="-372.95" font-family="Times,serif" font-size="14.00">Block</text>
</g>
<!-- 23 -->
<g id="node2" class="node">
<title>23</title>
<ellipse fill="none" stroke="black" cx="103.32" cy="-306" rx="55.45" ry="18"/>
<text text-anchor="middle" x="103.32" y="-300.95" font-family="Times,serif" font-size="14.00">Assignment</text>
</g>
<!-- 41&#45;&gt;23 -->
<g id="edge1" class="edge">
<title>41&#45;&gt;23</title>
<path fill="none" stroke="black" d="M254.2,-366.67C226.26,-355.62 181.44,-337.9 147.9,-324.63"/>
<polygon fill="black" stroke="black" points="149.43,-321.47 138.85,-321.05 146.86,-327.98 149.43,-321.47"/>
</g>
<!-- 30 -->
<g id="node5" class="node">
<title>30</title>
<ellipse fill="none" stroke="black" cx="280.32" cy="-306" rx="27" ry="18"/>
<text text-anchor="middle" x="280.32" y="-300.95" font-family="Times,serif" font-size="14.00">If</text>
</g>
<!-- 41&#45;&gt;30 -->
<g id="edge4" class="edge">
<title>41&#45;&gt;30</title>
<path fill="none" stroke="black" d="M280.32,-359.7C280.32,-352.41 280.32,-343.73 280.32,-335.54"/>
<polygon fill="black" stroke="black" points="283.82,-335.62 280.32,-325.62 276.82,-335.62 283.82,-335.62"/>
</g>
<!-- 40 -->
<g id="node12" class="node">
<title>40</title>
<ellipse fill="none" stroke="black" cx="498.32" cy="-306" rx="33.95" ry="18"/>
<text text-anchor="middle" x="498.32" y="-300.95" font-family="Times,serif" font-size="14.00">While</text>
</g>
<!-- 41&#45;&gt;40 -->
<g id="edge11" class="edge">
<title>41&#45;&gt;40</title>
<path fill="none" stroke="black" d="M308.37,-367.99C346.67,-355.7 415.5,-333.59 458.95,-319.64"/>
<polygon fill="black" stroke="black" points="459.79,-323.05 468.24,-316.66 457.65,-316.38 459.79,-323.05"/>
</g>
<!-- 21 -->
<g id="node3" class="node">
<title>21</title>
<ellipse fill="none" stroke="black" cx="28.32" cy="-234" rx="28.32" ry="18"/>
<text text-anchor="middle" x="28.32" y="-228.95" font-family="Times,serif" font-size="14.00">Id: x</text>
</g>
<!-- 23&#45;&gt;21 -->
<g id="edge2" class="edge">
<title>23&#45;&gt;21</title>
<path fill="none" stroke="black" d="M85.93,-288.76C75.89,-279.4 63.12,-267.48 52.16,-257.25"/>
<polygon fill="black" stroke="black" points="54.64,-254.78 44.94,-250.52 49.87,-259.9 54.64,-254.78"/>
</g>
<!-- 22 -->
<g id="node4" class="node">
<title>22</title>
<ellipse fill="none" stroke="black" cx="103.32" cy="-234" rx="28.32" ry="18"/>
<text text-anchor="middle" x="103.32" y="-228.95" font-family="Times,serif" font-size="14.00">Id: 4</text>
</g>
<!-- 23&#45;&gt;22 -->
<g id="edge3" class="edge">
<title>23&#45;&gt;22</title>
<path fill="none" stroke="black" d="M103.32,-287.7C103.32,-280.41 103.32,-271.73 103.32,-263.54"/>
<polygon fill="black" stroke="black" points="106.82,-263.62 103.32,-253.62 99.82,-263.62 106.82,-263.62"/>
</g>
<!-- 26 -->
<g id="node6" class="node">
<title>26</title>
<ellipse fill="none" stroke="black" cx="212.32" cy="-234" rx="62.61" ry="18"/>
<text text-anchor="middle" x="212.32" y="-228.95" font-family="Times,serif" font-size="14.00">Expression: &gt;</text>
</g>
<!-- 30&#45;&gt;26 -->
<g id="edge5" class="edge">
<title>30&#45;&gt;26</title>
<path fill="none" stroke="black" d="M266.23,-290.5C257.66,-281.67 246.48,-270.17 236.53,-259.92"/>
<polygon fill="black" stroke="black" points="239.07,-257.52 229.6,-252.78 234.05,-262.4 239.07,-257.52"/>
</g>
<!-- 29 -->
<g id="node9" class="node">
<title>29</title>
<ellipse fill="none" stroke="black" cx="348.32" cy="-234" rx="55.45" ry="18"/>
<text text-anchor="middle" x="348.32" y="-228.95" font-family="Times,serif" font-size="14.00">Assignment</text>
</g>
<!-- 30&#45;&gt;29 -->
<g id="edge8" class="edge">
<title>30&#45;&gt;29</title>
<path fill="none" stroke="black" d="M294.41,-290.5C302.98,-281.67 314.16,-270.17 324.11,-259.92"/>
<polygon fill="black" stroke="black" points="326.59,-262.4 331.04,-252.78 321.57,-257.52 326.59,-262.4"/>
</g>
<!-- 24 -->
<g id="node7" class="node">
<title>24</title>
<ellipse fill="none" stroke="black" cx="133.32" cy="-162" rx="28.32" ry="18"/>
<text text-anchor="middle" x="133.32" y="-156.95" font-family="Times,serif" font-size="14.00">Id: y</text>
</g>
<!-- 26&#45;&gt;24 -->
<g id="edge6" class="edge">
<title>26&#45;&gt;24</title>
<path fill="none" stroke="black" d="M193.6,-216.41C182.84,-206.87 169.2,-194.79 157.61,-184.53"/>
<polygon fill="black" stroke="black" points="160.18,-182.12 150.37,-178.11 155.54,-187.36 160.18,-182.12"/>
</g>
<!-- 25 -->
<g id="node8" class="node">
<title>25</title>
<ellipse fill="none" stroke="black" cx="212.32" cy="-162" rx="32.93" ry="18"/>
<text text-anchor="middle" x="212.32" y="-156.95" font-family="Times,serif" font-size="14.00">Id: 42</text>
</g>
<!-- 26&#45;&gt;25 -->
<g id="edge7" class="edge">
<title>26&#45;&gt;25</title>
<path fill="none" stroke="black" d="M212.32,-215.7C212.32,-208.41 212.32,-199.73 212.32,-191.54"/>
<polygon fill="black" stroke="black" points="215.82,-191.62 212.32,-181.62 208.82,-191.62 215.82,-191.62"/>
</g>
<!-- 27 -->
<g id="node10" class="node">
<title>27</title>
<ellipse fill="none" stroke="black" cx="291.32" cy="-162" rx="28.32" ry="18"/>
<text text-anchor="middle" x="291.32" y="-156.95" font-family="Times,serif" font-size="14.00">Id: x</text>
</g>
<!-- 29&#45;&gt;27 -->
<g id="edge9" class="edge">
<title>29&#45;&gt;27</title>
<path fill="none" stroke="black" d="M334.81,-216.41C327.73,-207.71 318.91,-196.89 311.08,-187.26"/>
<polygon fill="black" stroke="black" points="313.93,-185.23 304.91,-179.68 308.51,-189.65 313.93,-185.23"/>
</g>
<!-- 28 -->
<g id="node11" class="node">
<title>28</title>
<ellipse fill="none" stroke="black" cx="370.32" cy="-162" rx="32.93" ry="18"/>
<text text-anchor="middle" x="370.32" y="-156.95" font-family="Times,serif" font-size="14.00">Id: 10</text>
</g>
<!-- 29&#45;&gt;28 -->
<g id="edge10" class="edge">
<title>29&#45;&gt;28</title>
<path fill="none" stroke="black" d="M353.76,-215.7C356.1,-208.24 358.9,-199.32 361.53,-190.97"/>
<polygon fill="black" stroke="black" points="364.83,-192.14 364.49,-181.55 358.15,-190.04 364.83,-192.14"/>
</g>
<!-- 33 -->
<g id="node13" class="node">
<title>33</title>
<ellipse fill="none" stroke="black" cx="498.32" cy="-234" rx="62.61" ry="18"/>
<text text-anchor="middle" x="498.32" y="-228.95" font-family="Times,serif" font-size="14.00">Expression: &gt;</text>
</g>
<!-- 40&#45;&gt;33 -->
<g id="edge12" class="edge">
<title>40&#45;&gt;33</title>
<path fill="none" stroke="black" d="M498.32,-287.7C498.32,-280.41 498.32,-271.73 498.32,-263.54"/>
<polygon fill="black" stroke="black" points="501.82,-263.62 498.32,-253.62 494.82,-263.62 501.82,-263.62"/>
</g>
<!-- 39 -->
<g id="node16" class="node">
<title>39</title>
<ellipse fill="none" stroke="black" cx="619.32" cy="-234" rx="32.93" ry="18"/>
<text text-anchor="middle" x="619.32" y="-228.95" font-family="Times,serif" font-size="14.00">Block</text>
</g>
<!-- 40&#45;&gt;39 -->
<g id="edge15" class="edge">
<title>40&#45;&gt;39</title>
<path fill="none" stroke="black" d="M520.8,-292C539.59,-281.12 566.62,-265.49 587.61,-253.34"/>
<polygon fill="black" stroke="black" points="589.16,-256.49 596.06,-248.45 585.65,-250.43 589.16,-256.49"/>
</g>
<!-- 31 -->
<g id="node14" class="node">
<title>31</title>
<ellipse fill="none" stroke="black" cx="449.32" cy="-162" rx="28.32" ry="18"/>
<text text-anchor="middle" x="449.32" y="-156.95" font-family="Times,serif" font-size="14.00">Id: x</text>
</g>
<!-- 33&#45;&gt;31 -->
<g id="edge13" class="edge">
<title>33&#45;&gt;31</title>
<path fill="none" stroke="black" d="M486.46,-216.05C480.57,-207.65 473.35,-197.32 466.84,-188.02"/>
<polygon fill="black" stroke="black" points="469.87,-186.25 461.27,-180.07 464.14,-190.27 469.87,-186.25"/>
</g>
<!-- 32 -->
<g id="node15" class="node">
<title>32</title>
<ellipse fill="none" stroke="black" cx="524.32" cy="-162" rx="28.32" ry="18"/>
<text text-anchor="middle" x="524.32" y="-156.95" font-family="Times,serif" font-size="14.00">Id: 0</text>
</g>
<!-- 33&#45;&gt;32 -->
<g id="edge14" class="edge">
<title>33&#45;&gt;32</title>
<path fill="none" stroke="black" d="M504.75,-215.7C507.59,-208.04 511,-198.85 514.18,-190.3"/>
<polygon fill="black" stroke="black" points="517.42,-191.63 517.62,-181.04 510.86,-189.2 517.42,-191.63"/>
</g>
<!-- 38 -->
<g id="node17" class="node">
<title>38</title>
<ellipse fill="none" stroke="black" cx="626.32" cy="-162" rx="55.45" ry="18"/>
<text text-anchor="middle" x="626.32" y="-156.95" font-family="Times,serif" font-size="14.00">Assignment</text>
</g>
<!-- 39&#45;&gt;38 -->
<g id="edge16" class="edge">
<title>39&#45;&gt;38</title>
<path fill="none" stroke="black" d="M621.05,-215.7C621.78,-208.41 622.65,-199.73 623.47,-191.54"/>
<polygon fill="black" stroke="black" points="626.95,-191.91 624.46,-181.61 619.98,-191.21 626.95,-191.91"/>
</g>
<!-- 34 -->
<g id="node18" class="node">
<title>34</title>
<ellipse fill="none" stroke="black" cx="573.32" cy="-90" rx="28.32" ry="18"/>
<text text-anchor="middle" x="573.32" y="-84.95" font-family="Times,serif" font-size="14.00">Id: x</text>
</g>
<!-- 38&#45;&gt;34 -->
<g id="edge17" class="edge">
<title>38&#45;&gt;34</title>
<path fill="none" stroke="black" d="M613.49,-144.05C606.96,-135.44 598.92,-124.81 591.74,-115.33"/>
<polygon fill="black" stroke="black" points="594.69,-113.42 585.86,-107.56 589.11,-117.65 594.69,-113.42"/>
</g>
<!-- 37 -->
<g id="node19" class="node">
<title>37</title>
<ellipse fill="none" stroke="black" cx="679.32" cy="-90" rx="60.05" ry="18"/>
<text text-anchor="middle" x="679.32" y="-84.95" font-family="Times,serif" font-size="14.00">Expression: &#45;</text>
</g>
<!-- 38&#45;&gt;37 -->
<g id="edge18" class="edge">
<title>38&#45;&gt;37</title>
<path fill="none" stroke="black" d="M639.15,-144.05C645.33,-135.89 652.89,-125.91 659.77,-116.82"/>
<polygon fill="black" stroke="black" points="662.45,-119.08 665.69,-109 656.87,-114.86 662.45,-119.08"/>
</g>
<!-- 35 -->
<g id="node20" class="node">
<title>35</title>
<ellipse fill="none" stroke="black" cx="641.32" cy="-18" rx="28.32" ry="18"/>
<text text-anchor="middle" x="641.32" y="-12.95" font-family="Times,serif" font-size="14.00">Id: x</text>
</g>
<!-- 37&#45;&gt;35 -->
<g id="edge19" class="edge">
<title>37&#45;&gt;35</title>
<path fill="none" stroke="black" d="M670.12,-72.05C665.76,-64.03 660.46,-54.26 655.6,-45.3"/>
<polygon fill="black" stroke="black" points="658.74,-43.76 650.89,-36.64 652.59,-47.1 658.74,-43.76"/>
</g>
<!-- 36 -->
<g id="node21" class="node">
<title>36</title>
<ellipse fill="none" stroke="black" cx="716.32" cy="-18" rx="28.32" ry="18"/>
<text text-anchor="middle" x="716.32" y="-12.95" font-family="Times,serif" font-size="14.00">Id: 1</text>
</g>
<!-- 37&#45;&gt;36 -->
<g id="edge20" class="edge">
<title>37&#45;&gt;36</title>
<path fill="none" stroke="black" d="M688.28,-72.05C692.52,-64.03 697.68,-54.26 702.42,-45.3"/>
<polygon fill="black" stroke="black" points="705.41,-47.12 706.99,-36.65 699.23,-43.85 705.41,-47.12"/>
</g>
</g>
</svg>
