<?xml version="1.0" encoding="UTF-8" standalone="no"?>
<!DOCTYPE svg PUBLIC "-//W3C//DTD SVG 1.1//EN"
 "http://www.w3.org/Graphics/SVG/1.1/DTD/svg11.dtd">
<!-- Generated by graphviz version 11.0.0 (20240428.1522)
 -->
<!-- Pages: 1 -->
<svg width="914pt" height="692pt"
 viewBox="0.00 0.00 914.00 692.00" xmlns="http://www.w3.org/2000/svg" xmlns:xlink="http://www.w3.org/1999/xlink">
<g id="graph0" class="graph" transform="scale(1 1) rotate(0) translate(4 688)">
<polygon fill="white" stroke="none" points="-4,4 -4,-688 910,-688 910,4 -4,4"/>
<!-- root -->
<g id="node1" class="node">
<title>root</title>
<ellipse fill="none" stroke="black" cx="293" cy="-666" rx="27" ry="18"/>
<text text-anchor="middle" x="293" y="-660.95" font-family="Times,serif" font-size="14.00">start</text>
</g>
<!-- 4427167936 -->
<g id="node2" class="node">
<title>4427167936</title>
<ellipse fill="none" stroke="black" cx="195" cy="-594" rx="33.44" ry="18"/>
<text text-anchor="middle" x="195" y="-588.95" font-family="Times,serif" font-size="14.00">root&#45;0</text>
</g>
<!-- root&#45;&gt;4427167936 -->
<g id="edge30" class="edge">
<title>root&#45;&gt;4427167936</title>
<path fill="none" stroke="black" d="M275.03,-652.16C260.71,-641.93 240.38,-627.42 223.8,-615.57"/>
<polygon fill="black" stroke="black" points="225.94,-612.8 215.77,-609.84 221.88,-618.5 225.94,-612.8"/>
</g>
<!-- 4427165504 -->
<g id="node32" class="node">
<title>4427165504</title>
<ellipse fill="none" stroke="black" cx="432" cy="-594" rx="33.44" ry="18"/>
<text text-anchor="middle" x="432" y="-588.95" font-family="Times,serif" font-size="14.00">root&#45;1</text>
</g>
<!-- root&#45;&gt;4427165504 -->
<g id="edge44" class="edge">
<title>root&#45;&gt;4427165504</title>
<path fill="none" stroke="black" d="M314.11,-654.37C336.41,-643.14 371.89,-625.27 398.11,-612.07"/>
<polygon fill="black" stroke="black" points="399.65,-615.21 407.01,-607.59 396.5,-608.96 399.65,-615.21"/>
</g>
<!-- 0 -->
<g id="node3" class="node">
<title>0</title>
<ellipse fill="none" stroke="black" cx="27" cy="-522" rx="27" ry="18"/>
<text text-anchor="middle" x="27" y="-516.95" font-family="Times,serif" font-size="14.00">def</text>
</g>
<!-- 4427167936&#45;&gt;0 -->
<g id="edge1" class="edge">
<title>4427167936&#45;&gt;0</title>
<path fill="none" stroke="black" d="M168.26,-582.8C141.46,-572.45 99.1,-555.75 63,-540 61.5,-539.34 59.96,-538.66 58.41,-537.97"/>
<polygon fill="black" stroke="black" points="60.15,-534.91 49.6,-533.91 57.22,-541.27 60.15,-534.91"/>
</g>
<!-- 1 -->
<g id="node4" class="node">
<title>1</title>
<ellipse fill="none" stroke="black" cx="99" cy="-522" rx="27" ry="18"/>
<text text-anchor="middle" x="99" y="-516.95" font-family="Times,serif" font-size="14.00">f</text>
</g>
<!-- 4427167936&#45;&gt;1 -->
<g id="edge2" class="edge">
<title>4427167936&#45;&gt;1</title>
<path fill="none" stroke="black" d="M175.57,-578.83C161.33,-568.45 141.8,-554.21 126.03,-542.71"/>
<polygon fill="black" stroke="black" points="128.14,-539.92 118,-536.86 124.02,-545.58 128.14,-539.92"/>
</g>
<!-- 4427159424 -->
<g id="node5" class="node">
<title>4427159424</title>
<ellipse fill="none" stroke="black" cx="195" cy="-522" rx="51.35" ry="18"/>
<text text-anchor="middle" x="195" y="-516.95" font-family="Times,serif" font-size="14.00">arg_names</text>
</g>
<!-- 4427167936&#45;&gt;4427159424 -->
<g id="edge5" class="edge">
<title>4427167936&#45;&gt;4427159424</title>
<path fill="none" stroke="black" d="M195,-575.7C195,-568.41 195,-559.73 195,-551.54"/>
<polygon fill="black" stroke="black" points="198.5,-551.62 195,-541.62 191.5,-551.62 198.5,-551.62"/>
</g>
<!-- 4427157888 -->
<g id="node8" class="node">
<title>4427157888</title>
<ellipse fill="none" stroke="black" cx="316" cy="-522" rx="29.34" ry="18"/>
<text text-anchor="middle" x="316" y="-516.95" font-family="Times,serif" font-size="14.00">body</text>
</g>
<!-- 4427167936&#45;&gt;4427157888 -->
<g id="edge29" class="edge">
<title>4427167936&#45;&gt;4427157888</title>
<path fill="none" stroke="black" d="M217.19,-580.16C236.31,-569.1 264.09,-553.03 285.33,-540.75"/>
<polygon fill="black" stroke="black" points="286.95,-543.85 293.85,-535.81 283.44,-537.79 286.95,-543.85"/>
</g>
<!-- 2 -->
<g id="node6" class="node">
<title>2</title>
<ellipse fill="none" stroke="black" cx="111" cy="-450" rx="27" ry="18"/>
<text text-anchor="middle" x="111" y="-444.95" font-family="Times,serif" font-size="14.00">a</text>
</g>
<!-- 4427159424&#45;&gt;2 -->
<g id="edge3" class="edge">
<title>4427159424&#45;&gt;2</title>
<path fill="none" stroke="black" d="M175.94,-505.12C164.18,-495.31 148.95,-482.62 136.2,-472"/>
<polygon fill="black" stroke="black" points="138.52,-469.38 128.6,-465.66 134.04,-474.76 138.52,-469.38"/>
</g>
<!-- 3 -->
<g id="node7" class="node">
<title>3</title>
<ellipse fill="none" stroke="black" cx="183" cy="-450" rx="27" ry="18"/>
<text text-anchor="middle" x="183" y="-444.95" font-family="Times,serif" font-size="14.00">b</text>
</g>
<!-- 4427159424&#45;&gt;3 -->
<g id="edge4" class="edge">
<title>4427159424&#45;&gt;3</title>
<path fill="none" stroke="black" d="M192.03,-503.7C190.77,-496.32 189.26,-487.52 187.84,-479.25"/>
<polygon fill="black" stroke="black" points="191.33,-478.86 186.19,-469.6 184.43,-480.04 191.33,-478.86"/>
</g>
<!-- 4 -->
<g id="node9" class="node">
<title>4</title>
<ellipse fill="none" stroke="black" cx="255" cy="-450" rx="27" ry="18"/>
<text text-anchor="middle" x="255" y="-444.95" font-family="Times,serif" font-size="14.00">call</text>
</g>
<!-- 4427157888&#45;&gt;4 -->
<g id="edge6" class="edge">
<title>4427157888&#45;&gt;4</title>
<path fill="none" stroke="black" d="M302.76,-505.81C294.85,-496.73 284.62,-485 275.67,-474.72"/>
<polygon fill="black" stroke="black" points="278.41,-472.54 269.2,-467.3 273.14,-477.14 278.41,-472.54"/>
</g>
<!-- 5 -->
<g id="node10" class="node">
<title>5</title>
<ellipse fill="none" stroke="black" cx="327" cy="-450" rx="27" ry="18"/>
<text text-anchor="middle" x="327" y="-444.95" font-family="Times,serif" font-size="14.00">add</text>
</g>
<!-- 4427157888&#45;&gt;5 -->
<g id="edge7" class="edge">
<title>4427157888&#45;&gt;5</title>
<path fill="none" stroke="black" d="M318.72,-503.7C319.88,-496.32 321.26,-487.52 322.56,-479.25"/>
<polygon fill="black" stroke="black" points="325.98,-480.02 324.08,-469.6 319.07,-478.93 325.98,-480.02"/>
</g>
<!-- 4427159488 -->
<g id="node11" class="node">
<title>4427159488</title>
<ellipse fill="none" stroke="black" cx="419" cy="-450" rx="47.26" ry="18"/>
<text text-anchor="middle" x="419" y="-444.95" font-family="Times,serif" font-size="14.00">arg_exprs</text>
</g>
<!-- 4427157888&#45;&gt;4427159488 -->
<g id="edge28" class="edge">
<title>4427157888&#45;&gt;4427159488</title>
<path fill="none" stroke="black" d="M334.89,-508.16C349.59,-498.17 370.31,-484.09 387.51,-472.4"/>
<polygon fill="black" stroke="black" points="389.09,-475.56 395.39,-467.05 385.15,-469.77 389.09,-475.56"/>
</g>
<!-- 4427159232 -->
<g id="node12" class="node">
<title>4427159232</title>
<ellipse fill="none" stroke="black" cx="282" cy="-378" rx="54.93" ry="18"/>
<text text-anchor="middle" x="282" y="-372.95" font-family="Times,serif" font-size="14.00">arg_exprs&#45;0</text>
</g>
<!-- 4427159488&#45;&gt;4427159232 -->
<g id="edge10" class="edge">
<title>4427159488&#45;&gt;4427159232</title>
<path fill="none" stroke="black" d="M391.61,-435C371.29,-424.62 343.32,-410.33 320.72,-398.79"/>
<polygon fill="black" stroke="black" points="322.61,-395.82 312.11,-394.39 319.42,-402.05 322.61,-395.82"/>
</g>
<!-- 4427158528 -->
<g id="node15" class="node">
<title>4427158528</title>
<ellipse fill="none" stroke="black" cx="419" cy="-378" rx="54.93" ry="18"/>
<text text-anchor="middle" x="419" y="-372.95" font-family="Times,serif" font-size="14.00">arg_exprs&#45;1</text>
</g>
<!-- 4427159488&#45;&gt;4427158528 -->
<g id="edge27" class="edge">
<title>4427159488&#45;&gt;4427158528</title>
<path fill="none" stroke="black" d="M419,-431.7C419,-424.41 419,-415.73 419,-407.54"/>
<polygon fill="black" stroke="black" points="422.5,-407.62 419,-397.62 415.5,-407.62 422.5,-407.62"/>
</g>
<!-- 6 -->
<g id="node13" class="node">
<title>6</title>
<ellipse fill="none" stroke="black" cx="210" cy="-306" rx="27" ry="18"/>
<text text-anchor="middle" x="210" y="-300.95" font-family="Times,serif" font-size="14.00">int</text>
</g>
<!-- 4427159232&#45;&gt;6 -->
<g id="edge8" class="edge">
<title>4427159232&#45;&gt;6</title>
<path fill="none" stroke="black" d="M264.94,-360.41C255.32,-351.06 243.18,-339.26 232.77,-329.13"/>
<polygon fill="black" stroke="black" points="235.21,-326.62 225.6,-322.16 230.33,-331.64 235.21,-326.62"/>
</g>
<!-- 7 -->
<g id="node14" class="node">
<title>7</title>
<ellipse fill="none" stroke="black" cx="282" cy="-306" rx="27" ry="18"/>
<text text-anchor="middle" x="282" y="-300.95" font-family="Times,serif" font-size="14.00">100</text>
</g>
<!-- 4427159232&#45;&gt;7 -->
<g id="edge9" class="edge">
<title>4427159232&#45;&gt;7</title>
<path fill="none" stroke="black" d="M282,-359.7C282,-352.41 282,-343.73 282,-335.54"/>
<polygon fill="black" stroke="black" points="285.5,-335.62 282,-325.62 278.5,-335.62 285.5,-335.62"/>
</g>
<!-- 8 -->
<g id="node16" class="node">
<title>8</title>
<ellipse fill="none" stroke="black" cx="354" cy="-306" rx="27" ry="18"/>
<text text-anchor="middle" x="354" y="-300.95" font-family="Times,serif" font-size="14.00">call</text>
</g>
<!-- 4427158528&#45;&gt;8 -->
<g id="edge11" class="edge">
<title>4427158528&#45;&gt;8</title>
<path fill="none" stroke="black" d="M403.6,-360.41C395.12,-351.28 384.47,-339.81 375.21,-329.85"/>
<polygon fill="black" stroke="black" points="377.93,-327.63 368.56,-322.68 372.8,-332.39 377.93,-327.63"/>
</g>
<!-- 9 -->
<g id="node17" class="node">
<title>9</title>
<ellipse fill="none" stroke="black" cx="426" cy="-306" rx="27" ry="18"/>
<text text-anchor="middle" x="426" y="-300.95" font-family="Times,serif" font-size="14.00">add</text>
</g>
<!-- 4427158528&#45;&gt;9 -->
<g id="edge12" class="edge">
<title>4427158528&#45;&gt;9</title>
<path fill="none" stroke="black" d="M420.73,-359.7C421.46,-352.41 422.33,-343.73 423.15,-335.54"/>
<polygon fill="black" stroke="black" points="426.63,-335.91 424.14,-325.61 419.66,-335.21 426.63,-335.91"/>
</g>
<!-- 4427159040 -->
<g id="node18" class="node">
<title>4427159040</title>
<ellipse fill="none" stroke="black" cx="518" cy="-306" rx="47.26" ry="18"/>
<text text-anchor="middle" x="518" y="-300.95" font-family="Times,serif" font-size="14.00">arg_exprs</text>
</g>
<!-- 4427158528&#45;&gt;4427159040 -->
<g id="edge26" class="edge">
<title>4427158528&#45;&gt;4427159040</title>
<path fill="none" stroke="black" d="M441.46,-361.12C454.94,-351.59 472.28,-339.33 487.04,-328.89"/>
<polygon fill="black" stroke="black" points="488.92,-331.85 495.07,-323.21 484.88,-326.13 488.92,-331.85"/>
</g>
<!-- 4427153984 -->
<g id="node19" class="node">
<title>4427153984</title>
<ellipse fill="none" stroke="black" cx="385" cy="-234" rx="54.93" ry="18"/>
<text text-anchor="middle" x="385" y="-228.95" font-family="Times,serif" font-size="14.00">arg_exprs&#45;0</text>
</g>
<!-- 4427159040&#45;&gt;4427153984 -->
<g id="edge15" class="edge">
<title>4427159040&#45;&gt;4427153984</title>
<path fill="none" stroke="black" d="M491.09,-290.83C471.56,-280.56 444.87,-266.51 423.15,-255.08"/>
<polygon fill="black" stroke="black" points="425.07,-252.13 414.59,-250.57 421.81,-258.33 425.07,-252.13"/>
</g>
<!-- 4427161600 -->
<g id="node22" class="node">
<title>4427161600</title>
<ellipse fill="none" stroke="black" cx="521" cy="-234" rx="54.93" ry="18"/>
<text text-anchor="middle" x="521" y="-228.95" font-family="Times,serif" font-size="14.00">arg_exprs&#45;1</text>
</g>
<!-- 4427159040&#45;&gt;4427161600 -->
<g id="edge25" class="edge">
<title>4427159040&#45;&gt;4427161600</title>
<path fill="none" stroke="black" d="M518.74,-287.7C519.05,-280.41 519.43,-271.73 519.78,-263.54"/>
<polygon fill="black" stroke="black" points="523.27,-263.76 520.2,-253.62 516.28,-263.46 523.27,-263.76"/>
</g>
<!-- 10 -->
<g id="node20" class="node">
<title>10</title>
<ellipse fill="none" stroke="black" cx="313" cy="-162" rx="27" ry="18"/>
<text text-anchor="middle" x="313" y="-156.95" font-family="Times,serif" font-size="14.00">int</text>
</g>
<!-- 4427153984&#45;&gt;10 -->
<g id="edge13" class="edge">
<title>4427153984&#45;&gt;10</title>
<path fill="none" stroke="black" d="M367.94,-216.41C358.32,-207.06 346.18,-195.26 335.77,-185.13"/>
<polygon fill="black" stroke="black" points="338.21,-182.62 328.6,-178.16 333.33,-187.64 338.21,-182.62"/>
</g>
<!-- 11 -->
<g id="node21" class="node">
<title>11</title>
<ellipse fill="none" stroke="black" cx="385" cy="-162" rx="27" ry="18"/>
<text text-anchor="middle" x="385" y="-156.95" font-family="Times,serif" font-size="14.00">20</text>
</g>
<!-- 4427153984&#45;&gt;11 -->
<g id="edge14" class="edge">
<title>4427153984&#45;&gt;11</title>
<path fill="none" stroke="black" d="M385,-215.7C385,-208.41 385,-199.73 385,-191.54"/>
<polygon fill="black" stroke="black" points="388.5,-191.62 385,-181.62 381.5,-191.62 388.5,-191.62"/>
</g>
<!-- 12 -->
<g id="node23" class="node">
<title>12</title>
<ellipse fill="none" stroke="black" cx="457" cy="-162" rx="27" ry="18"/>
<text text-anchor="middle" x="457" y="-156.95" font-family="Times,serif" font-size="14.00">call</text>
</g>
<!-- 4427161600&#45;&gt;12 -->
<g id="edge16" class="edge">
<title>4427161600&#45;&gt;12</title>
<path fill="none" stroke="black" d="M505.83,-216.41C497.48,-207.28 487,-195.81 477.89,-185.85"/>
<polygon fill="black" stroke="black" points="480.67,-183.71 471.34,-178.69 475.51,-188.43 480.67,-183.71"/>
</g>
<!-- 13 -->
<g id="node24" class="node">
<title>13</title>
<ellipse fill="none" stroke="black" cx="529" cy="-162" rx="27" ry="18"/>
<text text-anchor="middle" x="529" y="-156.95" font-family="Times,serif" font-size="14.00">add</text>
</g>
<!-- 4427161600&#45;&gt;13 -->
<g id="edge17" class="edge">
<title>4427161600&#45;&gt;13</title>
<path fill="none" stroke="black" d="M522.98,-215.7C523.81,-208.41 524.8,-199.73 525.74,-191.54"/>
<polygon fill="black" stroke="black" points="529.22,-191.94 526.87,-181.61 522.26,-191.15 529.22,-191.94"/>
</g>
<!-- 4427160896 -->
<g id="node25" class="node">
<title>4427160896</title>
<ellipse fill="none" stroke="black" cx="621" cy="-162" rx="47.26" ry="18"/>
<text text-anchor="middle" x="621" y="-156.95" font-family="Times,serif" font-size="14.00">arg_exprs</text>
</g>
<!-- 4427161600&#45;&gt;4427160896 -->
<g id="edge24" class="edge">
<title>4427161600&#45;&gt;4427160896</title>
<path fill="none" stroke="black" d="M543.19,-217.46C557.01,-207.79 574.99,-195.21 590.18,-184.58"/>
<polygon fill="black" stroke="black" points="591.79,-187.72 597.97,-179.12 587.77,-181.99 591.79,-187.72"/>
</g>
<!-- 4427166848 -->
<g id="node26" class="node">
<title>4427166848</title>
<ellipse fill="none" stroke="black" cx="557" cy="-90" rx="54.93" ry="18"/>
<text text-anchor="middle" x="557" y="-84.95" font-family="Times,serif" font-size="14.00">arg_exprs&#45;0</text>
</g>
<!-- 4427160896&#45;&gt;4427166848 -->
<g id="edge20" class="edge">
<title>4427160896&#45;&gt;4427166848</title>
<path fill="none" stroke="black" d="M606.16,-144.76C598.35,-136.23 588.62,-125.58 579.87,-116.02"/>
<polygon fill="black" stroke="black" points="582.56,-113.77 573.23,-108.75 577.39,-118.49 582.56,-113.77"/>
</g>
<!-- 4427166528 -->
<g id="node29" class="node">
<title>4427166528</title>
<ellipse fill="none" stroke="black" cx="685" cy="-90" rx="54.93" ry="18"/>
<text text-anchor="middle" x="685" y="-84.95" font-family="Times,serif" font-size="14.00">arg_exprs&#45;1</text>
</g>
<!-- 4427160896&#45;&gt;4427166528 -->
<g id="edge23" class="edge">
<title>4427160896&#45;&gt;4427166528</title>
<path fill="none" stroke="black" d="M635.84,-144.76C643.65,-136.23 653.38,-125.58 662.13,-116.02"/>
<polygon fill="black" stroke="black" points="664.61,-118.49 668.77,-108.75 659.44,-113.77 664.61,-118.49"/>
</g>
<!-- 14 -->
<g id="node27" class="node">
<title>14</title>
<ellipse fill="none" stroke="black" cx="499" cy="-18" rx="27" ry="18"/>
<text text-anchor="middle" x="499" y="-12.95" font-family="Times,serif" font-size="14.00">var</text>
</g>
<!-- 4427166848&#45;&gt;14 -->
<g id="edge18" class="edge">
<title>4427166848&#45;&gt;14</title>
<path fill="none" stroke="black" d="M543.25,-72.41C535.94,-63.59 526.82,-52.58 518.77,-42.86"/>
<polygon fill="black" stroke="black" points="521.5,-40.67 512.43,-35.2 516.11,-45.14 521.5,-40.67"/>
</g>
<!-- 15 -->
<g id="node28" class="node">
<title>15</title>
<ellipse fill="none" stroke="black" cx="571" cy="-18" rx="27" ry="18"/>
<text text-anchor="middle" x="571" y="-12.95" font-family="Times,serif" font-size="14.00">a</text>
</g>
<!-- 4427166848&#45;&gt;15 -->
<g id="edge19" class="edge">
<title>4427166848&#45;&gt;15</title>
<path fill="none" stroke="black" d="M560.46,-71.7C561.94,-64.32 563.7,-55.52 565.35,-47.25"/>
<polygon fill="black" stroke="black" points="568.75,-48.08 567.28,-37.59 561.89,-46.71 568.75,-48.08"/>
</g>
<!-- 16 -->
<g id="node30" class="node">
<title>16</title>
<ellipse fill="none" stroke="black" cx="671" cy="-18" rx="27" ry="18"/>
<text text-anchor="middle" x="671" y="-12.95" font-family="Times,serif" font-size="14.00">var</text>
</g>
<!-- 4427166528&#45;&gt;16 -->
<g id="edge21" class="edge">
<title>4427166528&#45;&gt;16</title>
<path fill="none" stroke="black" d="M681.54,-71.7C680.06,-64.32 678.3,-55.52 676.65,-47.25"/>
<polygon fill="black" stroke="black" points="680.11,-46.71 674.72,-37.59 673.25,-48.08 680.11,-46.71"/>
</g>
<!-- 17 -->
<g id="node31" class="node">
<title>17</title>
<ellipse fill="none" stroke="black" cx="743" cy="-18" rx="27" ry="18"/>
<text text-anchor="middle" x="743" y="-12.95" font-family="Times,serif" font-size="14.00">b</text>
</g>
<!-- 4427166528&#45;&gt;17 -->
<g id="edge22" class="edge">
<title>4427166528&#45;&gt;17</title>
<path fill="none" stroke="black" d="M698.75,-72.41C706.06,-63.59 715.18,-52.58 723.23,-42.86"/>
<polygon fill="black" stroke="black" points="725.89,-45.14 729.57,-35.2 720.5,-40.67 725.89,-45.14"/>
</g>
<!-- 18 -->
<g id="node33" class="node">
<title>18</title>
<ellipse fill="none" stroke="black" cx="396" cy="-522" rx="27" ry="18"/>
<text text-anchor="middle" x="396" y="-516.95" font-family="Times,serif" font-size="14.00">call</text>
</g>
<!-- 4427165504&#45;&gt;18 -->
<g id="edge31" class="edge">
<title>4427165504&#45;&gt;18</title>
<path fill="none" stroke="black" d="M423.47,-576.41C419.34,-568.39 414.29,-558.57 409.65,-549.54"/>
<polygon fill="black" stroke="black" points="412.85,-548.11 405.16,-540.82 406.62,-551.31 412.85,-548.11"/>
</g>
<!-- 19 -->
<g id="node34" class="node">
<title>19</title>
<ellipse fill="none" stroke="black" cx="469" cy="-522" rx="28.32" ry="18"/>
<text text-anchor="middle" x="469" y="-516.95" font-family="Times,serif" font-size="14.00">print</text>
</g>
<!-- 4427165504&#45;&gt;19 -->
<g id="edge32" class="edge">
<title>4427165504&#45;&gt;19</title>
<path fill="none" stroke="black" d="M440.77,-576.41C445.01,-568.39 450.2,-558.57 454.97,-549.54"/>
<polygon fill="black" stroke="black" points="458.01,-551.28 459.59,-540.81 451.82,-548.01 458.01,-551.28"/>
</g>
<!-- 4427160768 -->
<g id="node35" class="node">
<title>4427160768</title>
<ellipse fill="none" stroke="black" cx="574" cy="-522" rx="47.26" ry="18"/>
<text text-anchor="middle" x="574" y="-516.95" font-family="Times,serif" font-size="14.00">arg_exprs</text>
</g>
<!-- 4427165504&#45;&gt;4427160768 -->
<g id="edge43" class="edge">
<title>4427165504&#45;&gt;4427160768</title>
<path fill="none" stroke="black" d="M456.09,-581.13C477.93,-570.36 510.48,-554.31 535.85,-541.81"/>
<polygon fill="black" stroke="black" points="537.1,-545.09 544.53,-537.53 534.01,-538.81 537.1,-545.09"/>
</g>
<!-- 4427165056 -->
<g id="node36" class="node">
<title>4427165056</title>
<ellipse fill="none" stroke="black" cx="580" cy="-450" rx="54.93" ry="18"/>
<text text-anchor="middle" x="580" y="-444.95" font-family="Times,serif" font-size="14.00">arg_exprs&#45;0</text>
</g>
<!-- 4427160768&#45;&gt;4427165056 -->
<g id="edge42" class="edge">
<title>4427160768&#45;&gt;4427165056</title>
<path fill="none" stroke="black" d="M575.48,-503.7C576.11,-496.41 576.85,-487.73 577.55,-479.54"/>
<polygon fill="black" stroke="black" points="581.04,-479.87 578.4,-469.61 574.06,-479.28 581.04,-479.87"/>
</g>
<!-- 20 -->
<g id="node37" class="node">
<title>20</title>
<ellipse fill="none" stroke="black" cx="519" cy="-378" rx="27" ry="18"/>
<text text-anchor="middle" x="519" y="-372.95" font-family="Times,serif" font-size="14.00">call</text>
</g>
<!-- 4427165056&#45;&gt;20 -->
<g id="edge33" class="edge">
<title>4427165056&#45;&gt;20</title>
<path fill="none" stroke="black" d="M565.54,-432.41C557.78,-423.5 548.07,-412.35 539.53,-402.56"/>
<polygon fill="black" stroke="black" points="542.31,-400.42 533.1,-395.18 537.03,-405.02 542.31,-400.42"/>
</g>
<!-- 21 -->
<g id="node38" class="node">
<title>21</title>
<ellipse fill="none" stroke="black" cx="591" cy="-378" rx="27" ry="18"/>
<text text-anchor="middle" x="591" y="-372.95" font-family="Times,serif" font-size="14.00">f</text>
</g>
<!-- 4427165056&#45;&gt;21 -->
<g id="edge34" class="edge">
<title>4427165056&#45;&gt;21</title>
<path fill="none" stroke="black" d="M582.72,-431.7C583.88,-424.32 585.26,-415.52 586.56,-407.25"/>
<polygon fill="black" stroke="black" points="589.98,-408.02 588.08,-397.6 583.07,-406.93 589.98,-408.02"/>
</g>
<!-- 4427165184 -->
<g id="node39" class="node">
<title>4427165184</title>
<ellipse fill="none" stroke="black" cx="683" cy="-378" rx="47.26" ry="18"/>
<text text-anchor="middle" x="683" y="-372.95" font-family="Times,serif" font-size="14.00">arg_exprs</text>
</g>
<!-- 4427165056&#45;&gt;4427165184 -->
<g id="edge41" class="edge">
<title>4427165056&#45;&gt;4427165184</title>
<path fill="none" stroke="black" d="M603.12,-433.29C617.36,-423.61 635.82,-411.07 651.4,-400.48"/>
<polygon fill="black" stroke="black" points="653.11,-403.54 659.42,-395.03 649.18,-397.75 653.11,-403.54"/>
</g>
<!-- 4427161920 -->
<g id="node40" class="node">
<title>4427161920</title>
<ellipse fill="none" stroke="black" cx="681" cy="-306" rx="54.93" ry="18"/>
<text text-anchor="middle" x="681" y="-300.95" font-family="Times,serif" font-size="14.00">arg_exprs&#45;0</text>
</g>
<!-- 4427165184&#45;&gt;4427161920 -->
<g id="edge37" class="edge">
<title>4427165184&#45;&gt;4427161920</title>
<path fill="none" stroke="black" d="M682.51,-359.7C682.3,-352.41 682.05,-343.73 681.82,-335.54"/>
<polygon fill="black" stroke="black" points="685.32,-335.51 681.53,-325.62 678.32,-335.71 685.32,-335.51"/>
</g>
<!-- 4427301504 -->
<g id="node43" class="node">
<title>4427301504</title>
<ellipse fill="none" stroke="black" cx="809" cy="-306" rx="54.93" ry="18"/>
<text text-anchor="middle" x="809" y="-300.95" font-family="Times,serif" font-size="14.00">arg_exprs&#45;1</text>
</g>
<!-- 4427165184&#45;&gt;4427301504 -->
<g id="edge40" class="edge">
<title>4427165184&#45;&gt;4427301504</title>
<path fill="none" stroke="black" d="M708.8,-362.67C727.03,-352.54 751.74,-338.81 772.06,-327.52"/>
<polygon fill="black" stroke="black" points="773.56,-330.69 780.6,-322.78 770.16,-324.57 773.56,-330.69"/>
</g>
<!-- 22 -->
<g id="node41" class="node">
<title>22</title>
<ellipse fill="none" stroke="black" cx="649" cy="-234" rx="27" ry="18"/>
<text text-anchor="middle" x="649" y="-228.95" font-family="Times,serif" font-size="14.00">int</text>
</g>
<!-- 4427161920&#45;&gt;22 -->
<g id="edge35" class="edge">
<title>4427161920&#45;&gt;22</title>
<path fill="none" stroke="black" d="M673.09,-287.7C669.55,-279.95 665.29,-270.64 661.35,-262.02"/>
<polygon fill="black" stroke="black" points="664.57,-260.64 657.23,-253 658.2,-263.55 664.57,-260.64"/>
</g>
<!-- 23 -->
<g id="node42" class="node">
<title>23</title>
<ellipse fill="none" stroke="black" cx="721" cy="-234" rx="27" ry="18"/>
<text text-anchor="middle" x="721" y="-228.95" font-family="Times,serif" font-size="14.00">1</text>
</g>
<!-- 4427161920&#45;&gt;23 -->
<g id="edge36" class="edge">
<title>4427161920&#45;&gt;23</title>
<path fill="none" stroke="black" d="M690.68,-288.05C695.27,-280.03 700.85,-270.26 705.97,-261.3"/>
<polygon fill="black" stroke="black" points="709.01,-263.04 710.93,-252.62 702.93,-259.57 709.01,-263.04"/>
</g>
<!-- 24 -->
<g id="node44" class="node">
<title>24</title>
<ellipse fill="none" stroke="black" cx="807" cy="-234" rx="27" ry="18"/>
<text text-anchor="middle" x="807" y="-228.95" font-family="Times,serif" font-size="14.00">int</text>
</g>
<!-- 4427301504&#45;&gt;24 -->
<g id="edge38" class="edge">
<title>4427301504&#45;&gt;24</title>
<path fill="none" stroke="black" d="M808.51,-287.7C808.3,-280.41 808.05,-271.73 807.82,-263.54"/>
<polygon fill="black" stroke="black" points="811.32,-263.51 807.53,-253.62 804.32,-263.71 811.32,-263.51"/>
</g>
<!-- 25 -->
<g id="node45" class="node">
<title>25</title>
<ellipse fill="none" stroke="black" cx="879" cy="-234" rx="27" ry="18"/>
<text text-anchor="middle" x="879" y="-228.95" font-family="Times,serif" font-size="14.00">2</text>
</g>
<!-- 4427301504&#45;&gt;25 -->
<g id="edge39" class="edge">
<title>4427301504&#45;&gt;25</title>
<path fill="none" stroke="black" d="M825.59,-288.41C834.81,-279.19 846.42,-267.58 856.46,-257.54"/>
<polygon fill="black" stroke="black" points="858.76,-260.19 863.36,-250.64 853.81,-255.24 858.76,-260.19"/>
</g>
</g>
</svg>
