<?xml version="1.0" encoding="UTF-8" standalone="no"?>
<!DOCTYPE svg PUBLIC "-//W3C//DTD SVG 1.1//EN"
 "http://www.w3.org/Graphics/SVG/1.1/DTD/svg11.dtd">
<!-- Generated by graphviz version 11.0.0 (20240428.1522)
 -->
<!-- Pages: 1 -->
<svg width="3986pt" height="620pt"
 viewBox="0.00 0.00 3985.51 620.00" xmlns="http://www.w3.org/2000/svg" xmlns:xlink="http://www.w3.org/1999/xlink">
<g id="graph0" class="graph" transform="scale(1 1) rotate(0) translate(4 616)">
<polygon fill="white" stroke="none" points="-4,4 -4,-616 3981.51,-616 3981.51,4 -4,4"/>
<!-- 4427933984 -->
<g id="node1" class="node">
<title>4427933984</title>
<ellipse fill="none" stroke="black" cx="420.03" cy="-594" rx="147.57" ry="18"/>
<text text-anchor="start" x="319.9" y="-588.95" font-family="Times,serif" font-size="14.00">class &#39;javalang.tree.CompilationUnit&#39;</text>
</g>
<!-- 4427934032 -->
<g id="node2" class="node">
<title>4427934032</title>
<ellipse fill="none" stroke="black" cx="420.03" cy="-522" rx="147.57" ry="18"/>
<text text-anchor="start" x="319.9" y="-516.95" font-family="Times,serif" font-size="14.00">class &#39;javalang.tree.ClassDeclaration&#39;</text>
</g>
<!-- 4427933984&#45;&gt;4427934032 -->
<g id="edge1" class="edge">
<title>4427933984&#45;&gt;4427934032</title>
<path fill="none" stroke="black" d="M420.03,-575.7C420.03,-568.41 420.03,-559.73 420.03,-551.54"/>
<polygon fill="black" stroke="black" points="423.53,-551.62 420.03,-541.62 416.53,-551.62 423.53,-551.62"/>
</g>
<!-- 1 -->
<g id="node3" class="node">
<title>1</title>
<ellipse fill="none" stroke="black" cx="228.03" cy="-450" rx="27" ry="18"/>
<text text-anchor="middle" x="228.03" y="-444.95" font-family="Times,serif" font-size="14.00">Foo</text>
</g>
<!-- 4427934032&#45;&gt;1 -->
<g id="edge2" class="edge">
<title>4427934032&#45;&gt;1</title>
<path fill="none" stroke="black" d="M367.48,-504.8C336.97,-494.98 297.97,-481.73 264.03,-468 262.51,-467.38 260.96,-466.74 259.4,-466.07"/>
<polygon fill="black" stroke="black" points="261.11,-463 250.55,-462.09 258.24,-469.38 261.11,-463"/>
</g>
<!-- 4427929760 -->
<g id="node4" class="node">
<title>4427929760</title>
<ellipse fill="none" stroke="black" cx="420.03" cy="-450" rx="146.55" ry="18"/>
<text text-anchor="start" x="320.65" y="-444.95" font-family="Times,serif" font-size="14.00">class &#39;javalang.tree.FieldDeclaration&#39;</text>
</g>
<!-- 4427934032&#45;&gt;4427929760 -->
<g id="edge3" class="edge">
<title>4427934032&#45;&gt;4427929760</title>
<path fill="none" stroke="black" d="M420.03,-503.7C420.03,-496.41 420.03,-487.73 420.03,-479.54"/>
<polygon fill="black" stroke="black" points="423.53,-479.62 420.03,-469.62 416.53,-479.62 423.53,-479.62"/>
</g>
<!-- 4427934128 -->
<g id="node5" class="node">
<title>4427934128</title>
<ellipse fill="none" stroke="black" cx="979.03" cy="-450" rx="156.78" ry="18"/>
<text text-anchor="start" x="872.15" y="-444.95" font-family="Times,serif" font-size="14.00">class &#39;javalang.tree.MethodDeclaration&#39;</text>
</g>
<!-- 4427934032&#45;&gt;4427934128 -->
<g id="edge4" class="edge">
<title>4427934032&#45;&gt;4427934128</title>
<path fill="none" stroke="black" d="M520.29,-508.45C617.04,-496.33 763.37,-478.01 864.63,-465.33"/>
<polygon fill="black" stroke="black" points="864.83,-468.83 874.32,-464.11 863.96,-461.88 864.83,-468.83"/>
</g>
<!-- 4427929568 -->
<g id="node6" class="node">
<title>4427929568</title>
<ellipse fill="none" stroke="black" cx="124.03" cy="-378" rx="124.03" ry="18"/>
<text text-anchor="start" x="41.15" y="-372.95" font-family="Times,serif" font-size="14.00">class &#39;javalang.tree.BasicType&#39;</text>
</g>
<!-- 4427929760&#45;&gt;4427929568 -->
<g id="edge5" class="edge">
<title>4427929760&#45;&gt;4427929568</title>
<path fill="none" stroke="black" d="M354.34,-433.46C308.04,-422.52 245.98,-407.84 197.95,-396.48"/>
<polygon fill="black" stroke="black" points="199.01,-393.14 188.47,-394.24 197.4,-399.95 199.01,-393.14"/>
</g>
<!-- 4427929616 -->
<g id="node7" class="node">
<title>4427929616</title>
<ellipse fill="none" stroke="black" cx="420.03" cy="-378" rx="154.22" ry="18"/>
<text text-anchor="start" x="315.03" y="-372.95" font-family="Times,serif" font-size="14.00">class &#39;javalang.tree.VariableDeclarator&#39;</text>
</g>
<!-- 4427929760&#45;&gt;4427929616 -->
<g id="edge6" class="edge">
<title>4427929760&#45;&gt;4427929616</title>
<path fill="none" stroke="black" d="M420.03,-431.7C420.03,-424.41 420.03,-415.73 420.03,-407.54"/>
<polygon fill="black" stroke="black" points="423.53,-407.62 420.03,-397.62 416.53,-407.62 423.53,-407.62"/>
</g>
<!-- 5 -->
<g id="node12" class="node">
<title>5</title>
<ellipse fill="none" stroke="black" cx="619.03" cy="-378" rx="27" ry="18"/>
<text text-anchor="middle" x="619.03" y="-372.95" font-family="Times,serif" font-size="14.00">foo</text>
</g>
<!-- 4427934128&#45;&gt;5 -->
<g id="edge11" class="edge">
<title>4427934128&#45;&gt;5</title>
<path fill="none" stroke="black" d="M861.37,-437.77C799.07,-429.82 721.83,-416.79 655.03,-396 653.42,-395.5 651.79,-394.94 650.16,-394.34"/>
<polygon fill="black" stroke="black" points="651.54,-391.12 640.97,-390.49 648.84,-397.58 651.54,-391.12"/>
</g>
<!-- 4427929856 -->
<g id="node13" class="node">
<title>4427929856</title>
<ellipse fill="none" stroke="black" cx="814.03" cy="-378" rx="149.62" ry="18"/>
<text text-anchor="start" x="712.4" y="-372.95" font-family="Times,serif" font-size="14.00">class &#39;javalang.tree.FormalParameter&#39;</text>
</g>
<!-- 4427934128&#45;&gt;4427929856 -->
<g id="edge12" class="edge">
<title>4427934128&#45;&gt;4427929856</title>
<path fill="none" stroke="black" d="M939.51,-432.23C916.83,-422.61 888.15,-410.45 863.94,-400.17"/>
<polygon fill="black" stroke="black" points="865.48,-397.03 854.91,-396.34 862.75,-403.47 865.48,-397.03"/>
</g>
<!-- 4427931008 -->
<g id="node14" class="node">
<title>4427931008</title>
<ellipse fill="none" stroke="black" cx="1145.03" cy="-378" rx="162.93" ry="18"/>
<text text-anchor="start" x="1033.65" y="-372.95" font-family="Times,serif" font-size="14.00">class &#39;javalang.tree.StatementExpression&#39;</text>
</g>
<!-- 4427934128&#45;&gt;4427931008 -->
<g id="edge13" class="edge">
<title>4427934128&#45;&gt;4427931008</title>
<path fill="none" stroke="black" d="M1018.79,-432.23C1041.52,-422.65 1070.24,-410.54 1094.55,-400.29"/>
<polygon fill="black" stroke="black" points="1095.77,-403.57 1103.62,-396.46 1093.05,-397.12 1095.77,-403.57"/>
</g>
<!-- 4427931104 -->
<g id="node15" class="node">
<title>4427931104</title>
<ellipse fill="none" stroke="black" cx="1505.03" cy="-378" rx="179.3" ry="18"/>
<text text-anchor="start" x="1381.65" y="-372.95" font-family="Times,serif" font-size="14.00">class &#39;javalang.tree.LocalVariableDeclaration&#39;</text>
</g>
<!-- 4427934128&#45;&gt;4427931104 -->
<g id="edge14" class="edge">
<title>4427934128&#45;&gt;4427931104</title>
<path fill="none" stroke="black" d="M1078.89,-435.71C1167.22,-423.96 1296.12,-406.8 1389,-394.44"/>
<polygon fill="black" stroke="black" points="1389.2,-397.95 1398.65,-393.16 1388.27,-391.01 1389.2,-397.95"/>
</g>
<!-- 4427939024 -->
<g id="node16" class="node">
<title>4427939024</title>
<ellipse fill="none" stroke="black" cx="2852.03" cy="-378" rx="134.78" ry="18"/>
<text text-anchor="start" x="2761.28" y="-372.95" font-family="Times,serif" font-size="14.00">class &#39;javalang.tree.ForStatement&#39;</text>
</g>
<!-- 4427934128&#45;&gt;4427939024 -->
<g id="edge15" class="edge">
<title>4427934128&#45;&gt;4427939024</title>
<path fill="none" stroke="black" d="M1126,-443.51C1478.36,-430.34 2367.54,-397.11 2712.35,-384.22"/>
<polygon fill="black" stroke="black" points="2712.27,-387.73 2722.13,-383.85 2712,-380.73 2712.27,-387.73"/>
</g>
<!-- 2 -->
<g id="node8" class="node">
<title>2</title>
<ellipse fill="none" stroke="black" cx="124.03" cy="-306" rx="27" ry="18"/>
<text text-anchor="middle" x="124.03" y="-300.95" font-family="Times,serif" font-size="14.00">int</text>
</g>
<!-- 4427929568&#45;&gt;2 -->
<g id="edge7" class="edge">
<title>4427929568&#45;&gt;2</title>
<path fill="none" stroke="black" d="M124.03,-359.7C124.03,-352.41 124.03,-343.73 124.03,-335.54"/>
<polygon fill="black" stroke="black" points="127.53,-335.62 124.03,-325.62 120.53,-335.62 127.53,-335.62"/>
</g>
<!-- 3 -->
<g id="node9" class="node">
<title>3</title>
<ellipse fill="none" stroke="black" cx="279.03" cy="-306" rx="27" ry="18"/>
<text text-anchor="middle" x="279.03" y="-300.95" font-family="Times,serif" font-size="14.00">y</text>
</g>
<!-- 4427929616&#45;&gt;3 -->
<g id="edge8" class="edge">
<title>4427929616&#45;&gt;3</title>
<path fill="none" stroke="black" d="M385.9,-360.05C362.92,-348.65 332.85,-333.72 310.47,-322.61"/>
<polygon fill="black" stroke="black" points="312.03,-319.47 301.51,-318.16 308.91,-325.74 312.03,-319.47"/>
</g>
<!-- 4427929712 -->
<g id="node10" class="node">
<title>4427929712</title>
<ellipse fill="none" stroke="black" cx="433.03" cy="-306" rx="109.19" ry="18"/>
<text text-anchor="start" x="361.03" y="-300.95" font-family="Times,serif" font-size="14.00">class &#39;javalang.tree.Literal&#39;</text>
</g>
<!-- 4427929616&#45;&gt;4427929712 -->
<g id="edge9" class="edge">
<title>4427929616&#45;&gt;4427929712</title>
<path fill="none" stroke="black" d="M423.24,-359.7C424.61,-352.32 426.25,-343.52 427.78,-335.25"/>
<polygon fill="black" stroke="black" points="431.19,-336.06 429.58,-325.59 424.31,-334.79 431.19,-336.06"/>
</g>
<!-- 4 -->
<g id="node11" class="node">
<title>4</title>
<ellipse fill="none" stroke="black" cx="433.03" cy="-234" rx="27" ry="18"/>
<text text-anchor="middle" x="433.03" y="-228.95" font-family="Times,serif" font-size="14.00">0</text>
</g>
<!-- 4427929712&#45;&gt;4 -->
<g id="edge10" class="edge">
<title>4427929712&#45;&gt;4</title>
<path fill="none" stroke="black" d="M433.03,-287.7C433.03,-280.41 433.03,-271.73 433.03,-263.54"/>
<polygon fill="black" stroke="black" points="436.53,-263.62 433.03,-253.62 429.53,-263.62 436.53,-263.62"/>
</g>
<!-- 4427929904 -->
<g id="node17" class="node">
<title>4427929904</title>
<ellipse fill="none" stroke="black" cx="737.03" cy="-306" rx="124.03" ry="18"/>
<text text-anchor="start" x="654.15" y="-300.95" font-family="Times,serif" font-size="14.00">class &#39;javalang.tree.BasicType&#39;</text>
</g>
<!-- 4427929856&#45;&gt;4427929904 -->
<g id="edge16" class="edge">
<title>4427929856&#45;&gt;4427929904</title>
<path fill="none" stroke="black" d="M794.99,-359.7C785.67,-351.22 774.28,-340.86 764.07,-331.58"/>
<polygon fill="black" stroke="black" points="766.72,-329.26 756.96,-325.12 762.01,-334.44 766.72,-329.26"/>
</g>
<!-- 6 -->
<g id="node18" class="node">
<title>6</title>
<ellipse fill="none" stroke="black" cx="906.03" cy="-306" rx="27" ry="18"/>
<text text-anchor="middle" x="906.03" y="-300.95" font-family="Times,serif" font-size="14.00">x</text>
</g>
<!-- 4427929856&#45;&gt;6 -->
<g id="edge17" class="edge">
<title>4427929856&#45;&gt;6</title>
<path fill="none" stroke="black" d="M836.3,-360.05C849.35,-350.13 865.9,-337.53 879.61,-327.1"/>
<polygon fill="black" stroke="black" points="881.52,-330.04 887.36,-321.2 877.28,-324.47 881.52,-330.04"/>
</g>
<!-- 4427931056 -->
<g id="node20" class="node">
<title>4427931056</title>
<ellipse fill="none" stroke="black" cx="1131.03" cy="-306" rx="153.2" ry="18"/>
<text text-anchor="start" x="1026.78" y="-300.95" font-family="Times,serif" font-size="14.00">class &#39;javalang.tree.MethodInvocation&#39;</text>
</g>
<!-- 4427931008&#45;&gt;4427931056 -->
<g id="edge19" class="edge">
<title>4427931008&#45;&gt;4427931056</title>
<path fill="none" stroke="black" d="M1141.57,-359.7C1140.09,-352.32 1138.33,-343.52 1136.68,-335.25"/>
<polygon fill="black" stroke="black" points="1140.14,-334.71 1134.75,-325.59 1133.28,-336.08 1140.14,-334.71"/>
</g>
<!-- 4427930000 -->
<g id="node25" class="node">
<title>4427930000</title>
<ellipse fill="none" stroke="black" cx="1426.03" cy="-306" rx="124.03" ry="18"/>
<text text-anchor="start" x="1343.15" y="-300.95" font-family="Times,serif" font-size="14.00">class &#39;javalang.tree.BasicType&#39;</text>
</g>
<!-- 4427931104&#45;&gt;4427930000 -->
<g id="edge24" class="edge">
<title>4427931104&#45;&gt;4427930000</title>
<path fill="none" stroke="black" d="M1485.5,-359.7C1475.93,-351.22 1464.25,-340.86 1453.77,-331.58"/>
<polygon fill="black" stroke="black" points="1456.27,-329.12 1446.46,-325.11 1451.63,-334.36 1456.27,-329.12"/>
</g>
<!-- 4427931536 -->
<g id="node26" class="node">
<title>4427931536</title>
<ellipse fill="none" stroke="black" cx="1722.03" cy="-306" rx="154.22" ry="18"/>
<text text-anchor="start" x="1617.03" y="-300.95" font-family="Times,serif" font-size="14.00">class &#39;javalang.tree.VariableDeclarator&#39;</text>
</g>
<!-- 4427931104&#45;&gt;4427931536 -->
<g id="edge25" class="edge">
<title>4427931104&#45;&gt;4427931536</title>
<path fill="none" stroke="black" d="M1556.73,-360.32C1587.81,-350.29 1627.56,-337.47 1660.29,-326.92"/>
<polygon fill="black" stroke="black" points="1661.21,-330.29 1669.66,-323.89 1659.07,-323.63 1661.21,-330.29"/>
</g>
<!-- 4427923808 -->
<g id="node36" class="node">
<title>4427923808</title>
<ellipse fill="none" stroke="black" cx="2852.03" cy="-306" rx="125.56" ry="18"/>
<text text-anchor="start" x="2768.03" y="-300.95" font-family="Times,serif" font-size="14.00">class &#39;javalang.tree.ForControl&#39;</text>
</g>
<!-- 4427939024&#45;&gt;4427923808 -->
<g id="edge35" class="edge">
<title>4427939024&#45;&gt;4427923808</title>
<path fill="none" stroke="black" d="M2852.03,-359.7C2852.03,-352.41 2852.03,-343.73 2852.03,-335.54"/>
<polygon fill="black" stroke="black" points="2855.53,-335.62 2852.03,-325.62 2848.53,-335.62 2855.53,-335.62"/>
</g>
<!-- 4427923760 -->
<g id="node37" class="node">
<title>4427923760</title>
<ellipse fill="none" stroke="black" cx="3450.03" cy="-306" rx="143.99" ry="18"/>
<text text-anchor="start" x="3352.53" y="-300.95" font-family="Times,serif" font-size="14.00">class &#39;javalang.tree.BlockStatement&#39;</text>
</g>
<!-- 4427939024&#45;&gt;4427923760 -->
<g id="edge36" class="edge">
<title>4427939024&#45;&gt;4427923760</title>
<path fill="none" stroke="black" d="M2950.78,-365.44C3056.69,-353.04 3224.66,-333.38 3336.1,-320.34"/>
<polygon fill="black" stroke="black" points="3336.35,-323.83 3345.87,-319.19 3335.53,-316.88 3336.35,-323.83"/>
</g>
<!-- 7 -->
<g id="node19" class="node">
<title>7</title>
<ellipse fill="none" stroke="black" cx="737.03" cy="-234" rx="27" ry="18"/>
<text text-anchor="middle" x="737.03" y="-228.95" font-family="Times,serif" font-size="14.00">int</text>
</g>
<!-- 4427929904&#45;&gt;7 -->
<g id="edge18" class="edge">
<title>4427929904&#45;&gt;7</title>
<path fill="none" stroke="black" d="M737.03,-287.7C737.03,-280.41 737.03,-271.73 737.03,-263.54"/>
<polygon fill="black" stroke="black" points="740.53,-263.62 737.03,-253.62 733.53,-263.62 740.53,-263.62"/>
</g>
<!-- 8 -->
<g id="node21" class="node">
<title>8</title>
<ellipse fill="none" stroke="black" cx="951.03" cy="-234" rx="52.89" ry="18"/>
<text text-anchor="middle" x="951.03" y="-228.95" font-family="Times,serif" font-size="14.00">System.out</text>
</g>
<!-- 4427931056&#45;&gt;8 -->
<g id="edge20" class="edge">
<title>4427931056&#45;&gt;8</title>
<path fill="none" stroke="black" d="M1088.37,-288.41C1060.35,-277.51 1023.76,-263.29 995.4,-252.25"/>
<polygon fill="black" stroke="black" points="996.96,-249.11 986.37,-248.75 994.43,-255.63 996.96,-249.11"/>
</g>
<!-- 4427930048 -->
<g id="node22" class="node">
<title>4427930048</title>
<ellipse fill="none" stroke="black" cx="1131.03" cy="-234" rx="109.19" ry="18"/>
<text text-anchor="start" x="1059.03" y="-228.95" font-family="Times,serif" font-size="14.00">class &#39;javalang.tree.Literal&#39;</text>
</g>
<!-- 4427931056&#45;&gt;4427930048 -->
<g id="edge21" class="edge">
<title>4427931056&#45;&gt;4427930048</title>
<path fill="none" stroke="black" d="M1131.03,-287.7C1131.03,-280.41 1131.03,-271.73 1131.03,-263.54"/>
<polygon fill="black" stroke="black" points="1134.53,-263.62 1131.03,-253.62 1127.53,-263.62 1134.53,-263.62"/>
</g>
<!-- 9 -->
<g id="node23" class="node">
<title>9</title>
<ellipse fill="none" stroke="black" cx="1294.03" cy="-234" rx="35.49" ry="18"/>
<text text-anchor="middle" x="1294.03" y="-228.95" font-family="Times,serif" font-size="14.00">println</text>
</g>
<!-- 4427931056&#45;&gt;9 -->
<g id="edge22" class="edge">
<title>4427931056&#45;&gt;9</title>
<path fill="none" stroke="black" d="M1170.07,-288.23C1196.44,-276.91 1231.04,-262.05 1256.98,-250.91"/>
<polygon fill="black" stroke="black" points="1258.32,-254.14 1266.13,-246.98 1255.56,-247.71 1258.32,-254.14"/>
</g>
<!-- 10 -->
<g id="node24" class="node">
<title>10</title>
<ellipse fill="none" stroke="black" cx="1131.03" cy="-162" rx="67.22" ry="18"/>
<text text-anchor="middle" x="1131.03" y="-156.95" font-family="Times,serif" font-size="14.00">&quot;Hello Clone!&quot;</text>
</g>
<!-- 4427930048&#45;&gt;10 -->
<g id="edge23" class="edge">
<title>4427930048&#45;&gt;10</title>
<path fill="none" stroke="black" d="M1131.03,-215.7C1131.03,-208.41 1131.03,-199.73 1131.03,-191.54"/>
<polygon fill="black" stroke="black" points="1134.53,-191.62 1131.03,-181.62 1127.53,-191.62 1134.53,-191.62"/>
</g>
<!-- 11 -->
<g id="node27" class="node">
<title>11</title>
<ellipse fill="none" stroke="black" cx="1426.03" cy="-234" rx="27" ry="18"/>
<text text-anchor="middle" x="1426.03" y="-228.95" font-family="Times,serif" font-size="14.00">int</text>
</g>
<!-- 4427930000&#45;&gt;11 -->
<g id="edge26" class="edge">
<title>4427930000&#45;&gt;11</title>
<path fill="none" stroke="black" d="M1426.03,-287.7C1426.03,-280.41 1426.03,-271.73 1426.03,-263.54"/>
<polygon fill="black" stroke="black" points="1429.53,-263.62 1426.03,-253.62 1422.53,-263.62 1429.53,-263.62"/>
</g>
<!-- 12 -->
<g id="node28" class="node">
<title>12</title>
<ellipse fill="none" stroke="black" cx="1530.03" cy="-234" rx="27" ry="18"/>
<text text-anchor="middle" x="1530.03" y="-228.95" font-family="Times,serif" font-size="14.00">j</text>
</g>
<!-- 4427931536&#45;&gt;12 -->
<g id="edge27" class="edge">
<title>4427931536&#45;&gt;12</title>
<path fill="none" stroke="black" d="M1669.13,-288.68C1638.67,-278.87 1599.84,-265.67 1566.03,-252 1564.51,-251.38 1562.96,-250.74 1561.4,-250.07"/>
<polygon fill="black" stroke="black" points="1563.11,-247 1552.55,-246.09 1560.24,-253.38 1563.11,-247"/>
</g>
<!-- 4427931488 -->
<g id="node29" class="node">
<title>4427931488</title>
<ellipse fill="none" stroke="black" cx="1722.03" cy="-234" rx="146.55" ry="18"/>
<text text-anchor="start" x="1622.65" y="-228.95" font-family="Times,serif" font-size="14.00">class &#39;javalang.tree.BinaryOperation&#39;</text>
</g>
<!-- 4427931536&#45;&gt;4427931488 -->
<g id="edge28" class="edge">
<title>4427931536&#45;&gt;4427931488</title>
<path fill="none" stroke="black" d="M1722.03,-287.7C1722.03,-280.41 1722.03,-271.73 1722.03,-263.54"/>
<polygon fill="black" stroke="black" points="1725.53,-263.62 1722.03,-253.62 1718.53,-263.62 1725.53,-263.62"/>
</g>
<!-- 13 -->
<g id="node30" class="node">
<title>13</title>
<ellipse fill="none" stroke="black" cx="1427.03" cy="-162" rx="27" ry="18"/>
<text text-anchor="middle" x="1427.03" y="-156.95" font-family="Times,serif" font-size="14.00">+</text>
</g>
<!-- 4427931488&#45;&gt;13 -->
<g id="edge29" class="edge">
<title>4427931488&#45;&gt;13</title>
<path fill="none" stroke="black" d="M1629.83,-219.65C1579.73,-211.03 1517.13,-198.02 1463.03,-180 1461.47,-179.48 1459.89,-178.91 1458.31,-178.31"/>
<polygon fill="black" stroke="black" points="1459.97,-175.21 1449.4,-174.52 1457.23,-181.65 1459.97,-175.21"/>
</g>
<!-- 4427931440 -->
<g id="node31" class="node">
<title>4427931440</title>
<ellipse fill="none" stroke="black" cx="1581.03" cy="-162" rx="109.19" ry="18"/>
<text text-anchor="start" x="1509.03" y="-156.95" font-family="Times,serif" font-size="14.00">class &#39;javalang.tree.Literal&#39;</text>
</g>
<!-- 4427931488&#45;&gt;4427931440 -->
<g id="edge30" class="edge">
<title>4427931488&#45;&gt;4427931440</title>
<path fill="none" stroke="black" d="M1687.9,-216.05C1668.88,-206.61 1645,-194.76 1624.64,-184.65"/>
<polygon fill="black" stroke="black" points="1626.23,-181.53 1615.72,-180.22 1623.12,-187.8 1626.23,-181.53"/>
</g>
<!-- 4427930096 -->
<g id="node32" class="node">
<title>4427930096</title>
<ellipse fill="none" stroke="black" cx="1862.03" cy="-162" rx="154.22" ry="18"/>
<text text-anchor="start" x="1757.03" y="-156.95" font-family="Times,serif" font-size="14.00">class &#39;javalang.tree.MemberReference&#39;</text>
</g>
<!-- 4427931488&#45;&gt;4427930096 -->
<g id="edge31" class="edge">
<title>4427931488&#45;&gt;4427930096</title>
<path fill="none" stroke="black" d="M1755.92,-216.05C1774.52,-206.75 1797.82,-195.11 1817.84,-185.1"/>
<polygon fill="black" stroke="black" points="1819.23,-188.31 1826.61,-180.71 1816.1,-182.05 1819.23,-188.31"/>
</g>
<!-- 14 -->
<g id="node33" class="node">
<title>14</title>
<ellipse fill="none" stroke="black" cx="1581.03" cy="-90" rx="27" ry="18"/>
<text text-anchor="middle" x="1581.03" y="-84.95" font-family="Times,serif" font-size="14.00">10</text>
</g>
<!-- 4427931440&#45;&gt;14 -->
<g id="edge32" class="edge">
<title>4427931440&#45;&gt;14</title>
<path fill="none" stroke="black" d="M1581.03,-143.7C1581.03,-136.41 1581.03,-127.73 1581.03,-119.54"/>
<polygon fill="black" stroke="black" points="1584.53,-119.62 1581.03,-109.62 1577.53,-119.62 1584.53,-119.62"/>
</g>
<!-- 15 -->
<g id="node34" class="node">
<title>15</title>
<ellipse fill="none" stroke="black" cx="1826.03" cy="-90" rx="27" ry="18"/>
</g>
<!-- 4427930096&#45;&gt;15 -->
<g id="edge33" class="edge">
<title>4427930096&#45;&gt;15</title>
<path fill="none" stroke="black" d="M1853.13,-143.7C1849.04,-135.75 1844.11,-126.16 1839.58,-117.34"/>
<polygon fill="black" stroke="black" points="1842.71,-115.78 1835.02,-108.49 1836.48,-118.98 1842.71,-115.78"/>
</g>
<!-- 16 -->
<g id="node35" class="node">
<title>16</title>
<ellipse fill="none" stroke="black" cx="1898.03" cy="-90" rx="27" ry="18"/>
<text text-anchor="middle" x="1898.03" y="-84.95" font-family="Times,serif" font-size="14.00">y</text>
</g>
<!-- 4427930096&#45;&gt;16 -->
<g id="edge34" class="edge">
<title>4427930096&#45;&gt;16</title>
<path fill="none" stroke="black" d="M1870.93,-143.7C1875.01,-135.75 1879.95,-126.16 1884.48,-117.34"/>
<polygon fill="black" stroke="black" points="1887.57,-118.98 1889.03,-108.49 1881.35,-115.78 1887.57,-118.98"/>
</g>
<!-- 4427930960 -->
<g id="node38" class="node">
<title>4427930960</title>
<ellipse fill="none" stroke="black" cx="2454.03" cy="-234" rx="158.32" ry="18"/>
<text text-anchor="start" x="2346.03" y="-228.95" font-family="Times,serif" font-size="14.00">class &#39;javalang.tree.VariableDeclaration&#39;</text>
</g>
<!-- 4427923808&#45;&gt;4427930960 -->
<g id="edge37" class="edge">
<title>4427923808&#45;&gt;4427930960</title>
<path fill="none" stroke="black" d="M2774.82,-291.42C2710.26,-280.07 2617.91,-263.82 2548.86,-251.68"/>
<polygon fill="black" stroke="black" points="2549.5,-248.24 2539.04,-249.95 2548.28,-255.13 2549.5,-248.24"/>
</g>
<!-- 4427923904 -->
<g id="node39" class="node">
<title>4427923904</title>
<ellipse fill="none" stroke="black" cx="2852.03" cy="-234" rx="146.55" ry="18"/>
<text text-anchor="start" x="2752.65" y="-228.95" font-family="Times,serif" font-size="14.00">class &#39;javalang.tree.BinaryOperation&#39;</text>
</g>
<!-- 4427923808&#45;&gt;4427923904 -->
<g id="edge38" class="edge">
<title>4427923808&#45;&gt;4427923904</title>
<path fill="none" stroke="black" d="M2852.03,-287.7C2852.03,-280.41 2852.03,-271.73 2852.03,-263.54"/>
<polygon fill="black" stroke="black" points="2855.53,-263.62 2852.03,-253.62 2848.53,-263.62 2855.53,-263.62"/>
</g>
<!-- 4427923856 -->
<g id="node40" class="node">
<title>4427923856</title>
<ellipse fill="none" stroke="black" cx="3416.03" cy="-234" rx="154.22" ry="18"/>
<text text-anchor="start" x="3311.03" y="-228.95" font-family="Times,serif" font-size="14.00">class &#39;javalang.tree.MemberReference&#39;</text>
</g>
<!-- 4427923808&#45;&gt;4427923856 -->
<g id="edge39" class="edge">
<title>4427923808&#45;&gt;4427923856</title>
<path fill="none" stroke="black" d="M2944.53,-293.52C3042.22,-281.39 3196.39,-262.26 3301.65,-249.2"/>
<polygon fill="black" stroke="black" points="3301.96,-252.68 3311.45,-247.98 3301.1,-245.74 3301.96,-252.68"/>
</g>
<!-- 4427933888 -->
<g id="node57" class="node">
<title>4427933888</title>
<ellipse fill="none" stroke="black" cx="3769.03" cy="-234" rx="162.93" ry="18"/>
<text text-anchor="start" x="3657.65" y="-228.95" font-family="Times,serif" font-size="14.00">class &#39;javalang.tree.StatementExpression&#39;</text>
</g>
<!-- 4427923760&#45;&gt;4427933888 -->
<g id="edge56" class="edge">
<title>4427923760&#45;&gt;4427933888</title>
<path fill="none" stroke="black" d="M3519.25,-289.81C3568.41,-279.02 3634.64,-264.49 3686.55,-253.1"/>
<polygon fill="black" stroke="black" points="3687.24,-256.53 3696.26,-250.97 3685.74,-249.69 3687.24,-256.53"/>
</g>
<!-- 4427930768 -->
<g id="node41" class="node">
<title>4427930768</title>
<ellipse fill="none" stroke="black" cx="2158.03" cy="-162" rx="124.03" ry="18"/>
<text text-anchor="start" x="2075.15" y="-156.95" font-family="Times,serif" font-size="14.00">class &#39;javalang.tree.BasicType&#39;</text>
</g>
<!-- 4427930960&#45;&gt;4427930768 -->
<g id="edge40" class="edge">
<title>4427930960&#45;&gt;4427930768</title>
<path fill="none" stroke="black" d="M2387.6,-217.29C2341.52,-206.39 2280.1,-191.87 2232.39,-180.59"/>
<polygon fill="black" stroke="black" points="2233.2,-177.18 2222.67,-178.29 2231.59,-183.99 2233.2,-177.18"/>
</g>
<!-- 4427924192 -->
<g id="node42" class="node">
<title>4427924192</title>
<ellipse fill="none" stroke="black" cx="2454.03" cy="-162" rx="154.22" ry="18"/>
<text text-anchor="start" x="2349.03" y="-156.95" font-family="Times,serif" font-size="14.00">class &#39;javalang.tree.VariableDeclarator&#39;</text>
</g>
<!-- 4427930960&#45;&gt;4427924192 -->
<g id="edge41" class="edge">
<title>4427930960&#45;&gt;4427924192</title>
<path fill="none" stroke="black" d="M2454.03,-215.7C2454.03,-208.41 2454.03,-199.73 2454.03,-191.54"/>
<polygon fill="black" stroke="black" points="2457.53,-191.62 2454.03,-181.62 2450.53,-191.62 2457.53,-191.62"/>
</g>
<!-- 20 -->
<g id="node47" class="node">
<title>20</title>
<ellipse fill="none" stroke="black" cx="2653.03" cy="-162" rx="27" ry="18"/>
<text text-anchor="middle" x="2653.03" y="-156.95" font-family="Times,serif" font-size="14.00">&lt;</text>
</g>
<!-- 4427923904&#45;&gt;20 -->
<g id="edge46" class="edge">
<title>4427923904&#45;&gt;20</title>
<path fill="none" stroke="black" d="M2796.71,-216.92C2764.86,-207.2 2724.29,-193.99 2689.03,-180 2687.5,-179.39 2685.95,-178.76 2684.39,-178.09"/>
<polygon fill="black" stroke="black" points="2686.09,-175.02 2675.53,-174.14 2683.24,-181.41 2686.09,-175.02"/>
</g>
<!-- 4427924048 -->
<g id="node48" class="node">
<title>4427924048</title>
<ellipse fill="none" stroke="black" cx="2852.03" cy="-162" rx="154.22" ry="18"/>
<text text-anchor="start" x="2747.03" y="-156.95" font-family="Times,serif" font-size="14.00">class &#39;javalang.tree.MemberReference&#39;</text>
</g>
<!-- 4427923904&#45;&gt;4427924048 -->
<g id="edge47" class="edge">
<title>4427923904&#45;&gt;4427924048</title>
<path fill="none" stroke="black" d="M2852.03,-215.7C2852.03,-208.41 2852.03,-199.73 2852.03,-191.54"/>
<polygon fill="black" stroke="black" points="2855.53,-191.62 2852.03,-181.62 2848.53,-191.62 2855.53,-191.62"/>
</g>
<!-- 4427923952 -->
<g id="node49" class="node">
<title>4427923952</title>
<ellipse fill="none" stroke="black" cx="3178.03" cy="-162" rx="154.22" ry="18"/>
<text text-anchor="start" x="3073.03" y="-156.95" font-family="Times,serif" font-size="14.00">class &#39;javalang.tree.MemberReference&#39;</text>
</g>
<!-- 4427923904&#45;&gt;4427923952 -->
<g id="edge48" class="edge">
<title>4427923904&#45;&gt;4427923952</title>
<path fill="none" stroke="black" d="M2922.77,-217.81C2973.55,-206.91 3042.16,-192.17 3095.46,-180.73"/>
<polygon fill="black" stroke="black" points="3096.06,-184.18 3105.11,-178.66 3094.59,-177.34 3096.06,-184.18"/>
</g>
<!-- 4427954224 -->
<g id="node54" class="node">
<title>4427954224</title>
<ellipse fill="none" stroke="black" cx="3407.03" cy="-162" rx="56.98" ry="18"/>
<text text-anchor="middle" x="3407.03" y="-156.95" font-family="Times,serif" font-size="14.00">4427954224</text>
</g>
<!-- 4427923856&#45;&gt;4427954224 -->
<g id="edge53" class="edge">
<title>4427923856&#45;&gt;4427954224</title>
<path fill="none" stroke="black" d="M3413.8,-215.7C3412.86,-208.32 3411.72,-199.52 3410.66,-191.25"/>
<polygon fill="black" stroke="black" points="3414.17,-191.08 3409.42,-181.61 3407.22,-191.97 3414.17,-191.08"/>
</g>
<!-- 25 -->
<g id="node55" class="node">
<title>25</title>
<ellipse fill="none" stroke="black" cx="3509.03" cy="-162" rx="27" ry="18"/>
</g>
<!-- 4427923856&#45;&gt;25 -->
<g id="edge54" class="edge">
<title>4427923856&#45;&gt;25</title>
<path fill="none" stroke="black" d="M3438.54,-216.05C3451.82,-206.06 3468.69,-193.36 3482.6,-182.89"/>
<polygon fill="black" stroke="black" points="3484.58,-185.78 3490.46,-176.97 3480.37,-180.19 3484.58,-185.78"/>
</g>
<!-- 26 -->
<g id="node56" class="node">
<title>26</title>
<ellipse fill="none" stroke="black" cx="3581.03" cy="-162" rx="27" ry="18"/>
<text text-anchor="middle" x="3581.03" y="-156.95" font-family="Times,serif" font-size="14.00">i</text>
</g>
<!-- 4427923856&#45;&gt;26 -->
<g id="edge55" class="edge">
<title>4427923856&#45;&gt;26</title>
<path fill="none" stroke="black" d="M3458.38,-216.24C3483.67,-206.07 3516.34,-192.66 3545.03,-180 3546.34,-179.42 3547.68,-178.82 3549.04,-178.21"/>
<polygon fill="black" stroke="black" points="3550.42,-181.43 3558.03,-174.06 3547.49,-175.07 3550.42,-181.43"/>
</g>
<!-- 17 -->
<g id="node43" class="node">
<title>17</title>
<ellipse fill="none" stroke="black" cx="2158.03" cy="-90" rx="27" ry="18"/>
<text text-anchor="middle" x="2158.03" y="-84.95" font-family="Times,serif" font-size="14.00">int</text>
</g>
<!-- 4427930768&#45;&gt;17 -->
<g id="edge42" class="edge">
<title>4427930768&#45;&gt;17</title>
<path fill="none" stroke="black" d="M2158.03,-143.7C2158.03,-136.41 2158.03,-127.73 2158.03,-119.54"/>
<polygon fill="black" stroke="black" points="2161.53,-119.62 2158.03,-109.62 2154.53,-119.62 2161.53,-119.62"/>
</g>
<!-- 18 -->
<g id="node44" class="node">
<title>18</title>
<ellipse fill="none" stroke="black" cx="2377.03" cy="-90" rx="27" ry="18"/>
<text text-anchor="middle" x="2377.03" y="-84.95" font-family="Times,serif" font-size="14.00">i</text>
</g>
<!-- 4427924192&#45;&gt;18 -->
<g id="edge43" class="edge">
<title>4427924192&#45;&gt;18</title>
<path fill="none" stroke="black" d="M2434.99,-143.7C2424.59,-134.24 2411.62,-122.45 2400.58,-112.41"/>
<polygon fill="black" stroke="black" points="2403.11,-109.98 2393.36,-105.84 2398.4,-115.16 2403.11,-109.98"/>
</g>
<!-- 4427924144 -->
<g id="node45" class="node">
<title>4427924144</title>
<ellipse fill="none" stroke="black" cx="2531.03" cy="-90" rx="109.19" ry="18"/>
<text text-anchor="start" x="2459.03" y="-84.95" font-family="Times,serif" font-size="14.00">class &#39;javalang.tree.Literal&#39;</text>
</g>
<!-- 4427924192&#45;&gt;4427924144 -->
<g id="edge44" class="edge">
<title>4427924192&#45;&gt;4427924144</title>
<path fill="none" stroke="black" d="M2473.06,-143.7C2482.39,-135.22 2493.78,-124.86 2503.99,-115.58"/>
<polygon fill="black" stroke="black" points="2506.05,-118.44 2511.09,-109.12 2501.34,-113.26 2506.05,-118.44"/>
</g>
<!-- 19 -->
<g id="node46" class="node">
<title>19</title>
<ellipse fill="none" stroke="black" cx="2531.03" cy="-18" rx="27" ry="18"/>
<text text-anchor="middle" x="2531.03" y="-12.95" font-family="Times,serif" font-size="14.00">0</text>
</g>
<!-- 4427924144&#45;&gt;19 -->
<g id="edge45" class="edge">
<title>4427924144&#45;&gt;19</title>
<path fill="none" stroke="black" d="M2531.03,-71.7C2531.03,-64.41 2531.03,-55.73 2531.03,-47.54"/>
<polygon fill="black" stroke="black" points="2534.53,-47.62 2531.03,-37.62 2527.53,-47.62 2534.53,-47.62"/>
</g>
<!-- 21 -->
<g id="node50" class="node">
<title>21</title>
<ellipse fill="none" stroke="black" cx="2816.03" cy="-90" rx="27" ry="18"/>
</g>
<!-- 4427924048&#45;&gt;21 -->
<g id="edge49" class="edge">
<title>4427924048&#45;&gt;21</title>
<path fill="none" stroke="black" d="M2843.13,-143.7C2839.04,-135.75 2834.11,-126.16 2829.58,-117.34"/>
<polygon fill="black" stroke="black" points="2832.71,-115.78 2825.02,-108.49 2826.48,-118.98 2832.71,-115.78"/>
</g>
<!-- 22 -->
<g id="node51" class="node">
<title>22</title>
<ellipse fill="none" stroke="black" cx="2888.03" cy="-90" rx="27" ry="18"/>
<text text-anchor="middle" x="2888.03" y="-84.95" font-family="Times,serif" font-size="14.00">i</text>
</g>
<!-- 4427924048&#45;&gt;22 -->
<g id="edge50" class="edge">
<title>4427924048&#45;&gt;22</title>
<path fill="none" stroke="black" d="M2860.93,-143.7C2865.01,-135.75 2869.95,-126.16 2874.48,-117.34"/>
<polygon fill="black" stroke="black" points="2877.57,-118.98 2879.03,-108.49 2871.35,-115.78 2877.57,-118.98"/>
</g>
<!-- 23 -->
<g id="node52" class="node">
<title>23</title>
<ellipse fill="none" stroke="black" cx="3142.03" cy="-90" rx="27" ry="18"/>
</g>
<!-- 4427923952&#45;&gt;23 -->
<g id="edge51" class="edge">
<title>4427923952&#45;&gt;23</title>
<path fill="none" stroke="black" d="M3169.13,-143.7C3165.04,-135.75 3160.11,-126.16 3155.58,-117.34"/>
<polygon fill="black" stroke="black" points="3158.71,-115.78 3151.02,-108.49 3152.48,-118.98 3158.71,-115.78"/>
</g>
<!-- 24 -->
<g id="node53" class="node">
<title>24</title>
<ellipse fill="none" stroke="black" cx="3214.03" cy="-90" rx="27" ry="18"/>
<text text-anchor="middle" x="3214.03" y="-84.95" font-family="Times,serif" font-size="14.00">x</text>
</g>
<!-- 4427923952&#45;&gt;24 -->
<g id="edge52" class="edge">
<title>4427923952&#45;&gt;24</title>
<path fill="none" stroke="black" d="M3186.93,-143.7C3191.01,-135.75 3195.95,-126.16 3200.48,-117.34"/>
<polygon fill="black" stroke="black" points="3203.57,-118.98 3205.03,-108.49 3197.35,-115.78 3203.57,-118.98"/>
</g>
<!-- 4427933936 -->
<g id="node58" class="node">
<title>4427933936</title>
<ellipse fill="none" stroke="black" cx="3779.03" cy="-162" rx="153.2" ry="18"/>
<text text-anchor="start" x="3674.78" y="-156.95" font-family="Times,serif" font-size="14.00">class &#39;javalang.tree.MethodInvocation&#39;</text>
</g>
<!-- 4427933888&#45;&gt;4427933936 -->
<g id="edge57" class="edge">
<title>4427933888&#45;&gt;4427933936</title>
<path fill="none" stroke="black" d="M3771.5,-215.7C3772.55,-208.32 3773.81,-199.52 3774.99,-191.25"/>
<polygon fill="black" stroke="black" points="3778.42,-192 3776.37,-181.6 3771.49,-191.01 3778.42,-192"/>
</g>
<!-- 27 -->
<g id="node59" class="node">
<title>27</title>
<ellipse fill="none" stroke="black" cx="3599.03" cy="-90" rx="52.89" ry="18"/>
<text text-anchor="middle" x="3599.03" y="-84.95" font-family="Times,serif" font-size="14.00">System.out</text>
</g>
<!-- 4427933936&#45;&gt;27 -->
<g id="edge58" class="edge">
<title>4427933936&#45;&gt;27</title>
<path fill="none" stroke="black" d="M3736.37,-144.41C3708.35,-133.51 3671.76,-119.29 3643.4,-108.25"/>
<polygon fill="black" stroke="black" points="3644.96,-105.11 3634.37,-104.75 3642.43,-111.63 3644.96,-105.11"/>
</g>
<!-- 4427938928 -->
<g id="node60" class="node">
<title>4427938928</title>
<ellipse fill="none" stroke="black" cx="3779.03" cy="-90" rx="109.19" ry="18"/>
<text text-anchor="start" x="3707.03" y="-84.95" font-family="Times,serif" font-size="14.00">class &#39;javalang.tree.Literal&#39;</text>
</g>
<!-- 4427933936&#45;&gt;4427938928 -->
<g id="edge59" class="edge">
<title>4427933936&#45;&gt;4427938928</title>
<path fill="none" stroke="black" d="M3779.03,-143.7C3779.03,-136.41 3779.03,-127.73 3779.03,-119.54"/>
<polygon fill="black" stroke="black" points="3782.53,-119.62 3779.03,-109.62 3775.53,-119.62 3782.53,-119.62"/>
</g>
<!-- 28 -->
<g id="node61" class="node">
<title>28</title>
<ellipse fill="none" stroke="black" cx="3942.03" cy="-90" rx="35.49" ry="18"/>
<text text-anchor="middle" x="3942.03" y="-84.95" font-family="Times,serif" font-size="14.00">println</text>
</g>
<!-- 4427933936&#45;&gt;28 -->
<g id="edge60" class="edge">
<title>4427933936&#45;&gt;28</title>
<path fill="none" stroke="black" d="M3818.07,-144.23C3844.44,-132.91 3879.04,-118.05 3904.98,-106.91"/>
<polygon fill="black" stroke="black" points="3906.32,-110.14 3914.13,-102.98 3903.56,-103.71 3906.32,-110.14"/>
</g>
<!-- 29 -->
<g id="node62" class="node">
<title>29</title>
<ellipse fill="none" stroke="black" cx="3779.03" cy="-18" rx="82.57" ry="18"/>
<text text-anchor="middle" x="3779.03" y="-12.95" font-family="Times,serif" font-size="14.00">&quot;Another iteration&quot;</text>
</g>
<!-- 4427938928&#45;&gt;29 -->
<g id="edge61" class="edge">
<title>4427938928&#45;&gt;29</title>
<path fill="none" stroke="black" d="M3779.03,-71.7C3779.03,-64.41 3779.03,-55.73 3779.03,-47.54"/>
<polygon fill="black" stroke="black" points="3782.53,-47.62 3779.03,-37.62 3775.53,-47.62 3782.53,-47.62"/>
</g>
</g>
</svg>
