<?xml version="1.0" encoding="UTF-8" standalone="no"?>
<!DOCTYPE svg PUBLIC "-//W3C//DTD SVG 1.1//EN"
 "http://www.w3.org/Graphics/SVG/1.1/DTD/svg11.dtd">
<!-- Generated by graphviz version 11.0.0 (20240428.1522)
 -->
<!-- Pages: 1 -->
<svg width="436pt" height="652pt"
 viewBox="0.00 0.00 436.00 652.00" xmlns="http://www.w3.org/2000/svg" xmlns:xlink="http://www.w3.org/1999/xlink">
<g id="graph0" class="graph" transform="scale(1 1) rotate(0) translate(4 648)">
<polygon fill="white" stroke="none" points="-4,4 -4,-648 432,-648 432,4 -4,4"/>
<g id="clust1" class="cluster">
<title>cluster_bar_2</title>
<polygon fill="none" stroke="black" points="164,-152 164,-348 288,-348 288,-152 164,-152"/>
</g>
<g id="clust2" class="cluster">
<title>cluster_bar_1</title>
<polygon fill="none" stroke="black" points="296,-296 296,-492 420,-492 420,-296 296,-296"/>
</g>
<g id="clust3" class="cluster">
<title>cluster_foo</title>
<polygon fill="none" stroke="black" points="8,-8 8,-636 156,-636 156,-8 8,-8"/>
</g>
<!-- bar_2_Start -->
<g id="node1" class="node">
<title>bar_2_Start</title>
<ellipse fill="none" stroke="black" cx="226" cy="-322" rx="53.91" ry="18"/>
<text text-anchor="middle" x="226" y="-316.95" font-family="Times,serif" font-size="14.00">bar_2_Start</text>
</g>
<!-- bar_2_3 -->
<g id="node3" class="node">
<title>bar_2_3</title>
<ellipse fill="none" stroke="black" cx="225" cy="-250" rx="41.12" ry="18"/>
<text text-anchor="middle" x="225" y="-244.95" font-family="Times,serif" font-size="14.00">bar_2_3</text>
</g>
<!-- bar_2_Start&#45;&gt;bar_2_3 -->
<g id="edge11" class="edge">
<title>bar_2_Start&#45;&gt;bar_2_3</title>
<path fill="none" stroke="black" d="M225.75,-303.7C225.65,-296.41 225.52,-287.73 225.41,-279.54"/>
<polygon fill="black" stroke="black" points="228.91,-279.57 225.27,-269.62 221.91,-279.67 228.91,-279.57"/>
</g>
<!-- bar_2_End -->
<g id="node2" class="node">
<title>bar_2_End</title>
<ellipse fill="none" stroke="black" cx="224" cy="-178" rx="51.35" ry="18"/>
<text text-anchor="middle" x="224" y="-172.95" font-family="Times,serif" font-size="14.00">bar_2_End</text>
</g>
<!-- foo_5 (Return) -->
<g id="node15" class="node">
<title>foo_5 (Return)</title>
<ellipse fill="none" stroke="black" cx="82" cy="-322" rx="66.19" ry="18"/>
<text text-anchor="middle" x="82" y="-316.95" font-family="Times,serif" font-size="14.00">foo_5 (Return)</text>
</g>
<!-- bar_2_End&#45;&gt;foo_5 (Return) -->
<g id="edge12" class="edge">
<title>bar_2_End&#45;&gt;foo_5 (Return)</title>
<path fill="none" stroke="black" d="M207.61,-195.39C182.88,-220.12 135.83,-267.17 106.86,-296.14"/>
<polygon fill="black" stroke="black" points="104.51,-293.54 99.92,-303.08 109.46,-298.49 104.51,-293.54"/>
</g>
<!-- bar_2_3&#45;&gt;bar_2_End -->
<g id="edge13" class="edge">
<title>bar_2_3&#45;&gt;bar_2_End</title>
<path fill="none" stroke="black" d="M224.75,-231.7C224.65,-224.41 224.52,-215.73 224.41,-207.54"/>
<polygon fill="black" stroke="black" points="227.91,-207.57 224.27,-197.62 220.91,-207.67 227.91,-207.57"/>
</g>
<!-- bar_1_Start -->
<g id="node4" class="node">
<title>bar_1_Start</title>
<ellipse fill="none" stroke="black" cx="358" cy="-466" rx="53.91" ry="18"/>
<text text-anchor="middle" x="358" y="-460.95" font-family="Times,serif" font-size="14.00">bar_1_Start</text>
</g>
<!-- bar_1_3 -->
<g id="node6" class="node">
<title>bar_1_3</title>
<ellipse fill="none" stroke="black" cx="357" cy="-394" rx="41.12" ry="18"/>
<text text-anchor="middle" x="357" y="-388.95" font-family="Times,serif" font-size="14.00">bar_1_3</text>
</g>
<!-- bar_1_Start&#45;&gt;bar_1_3 -->
<g id="edge5" class="edge">
<title>bar_1_Start&#45;&gt;bar_1_3</title>
<path fill="none" stroke="black" d="M357.75,-447.7C357.65,-440.41 357.52,-431.73 357.41,-423.54"/>
<polygon fill="black" stroke="black" points="360.91,-423.57 357.27,-413.62 353.91,-423.67 360.91,-423.57"/>
</g>
<!-- bar_1_End -->
<g id="node5" class="node">
<title>bar_1_End</title>
<ellipse fill="none" stroke="black" cx="356" cy="-322" rx="51.35" ry="18"/>
<text text-anchor="middle" x="356" y="-316.95" font-family="Times,serif" font-size="14.00">bar_1_End</text>
</g>
<!-- foo_4 (Return) -->
<g id="node13" class="node">
<title>foo_4 (Return)</title>
<ellipse fill="none" stroke="black" cx="82" cy="-466" rx="66.19" ry="18"/>
<text text-anchor="middle" x="82" y="-460.95" font-family="Times,serif" font-size="14.00">foo_4 (Return)</text>
</g>
<!-- bar_1_End&#45;&gt;foo_4 (Return) -->
<g id="edge6" class="edge">
<title>bar_1_End&#45;&gt;foo_4 (Return)</title>
<path fill="none" stroke="black" d="M328.24,-337.39C279.43,-362.68 178.07,-415.21 121.8,-444.37"/>
<polygon fill="black" stroke="black" points="120.46,-441.13 113.19,-448.84 123.68,-447.34 120.46,-441.13"/>
</g>
<!-- bar_1_3&#45;&gt;bar_1_End -->
<g id="edge7" class="edge">
<title>bar_1_3&#45;&gt;bar_1_End</title>
<path fill="none" stroke="black" d="M356.75,-375.7C356.65,-368.41 356.52,-359.73 356.41,-351.54"/>
<polygon fill="black" stroke="black" points="359.91,-351.57 356.27,-341.62 352.91,-351.67 359.91,-351.57"/>
</g>
<!-- foo_Start -->
<g id="node7" class="node">
<title>foo_Start</title>
<ellipse fill="none" stroke="black" cx="87" cy="-610" rx="45.21" ry="18"/>
<text text-anchor="middle" x="87" y="-604.95" font-family="Times,serif" font-size="14.00">foo_Start</text>
</g>
<!-- foo_4 (Call) -->
<g id="node12" class="node">
<title>foo_4 (Call)</title>
<ellipse fill="none" stroke="black" cx="87" cy="-538" rx="56.47" ry="18"/>
<text text-anchor="middle" x="87" y="-532.95" font-family="Times,serif" font-size="14.00">foo_4 (Call)</text>
</g>
<!-- foo_Start&#45;&gt;foo_4 (Call) -->
<g id="edge1" class="edge">
<title>foo_Start&#45;&gt;foo_4 (Call)</title>
<path fill="none" stroke="black" d="M87,-591.7C87,-584.41 87,-575.73 87,-567.54"/>
<polygon fill="black" stroke="black" points="90.5,-567.62 87,-557.62 83.5,-567.62 90.5,-567.62"/>
</g>
<!-- foo_End -->
<g id="node8" class="node">
<title>foo_End</title>
<ellipse fill="none" stroke="black" cx="82" cy="-34" rx="42.65" ry="18"/>
<text text-anchor="middle" x="82" y="-28.95" font-family="Times,serif" font-size="14.00">foo_End</text>
</g>
<!-- foo_7 -->
<g id="node9" class="node">
<title>foo_7</title>
<ellipse fill="none" stroke="black" cx="82" cy="-250" rx="32.41" ry="18"/>
<text text-anchor="middle" x="82" y="-244.95" font-family="Times,serif" font-size="14.00">foo_7</text>
</g>
<!-- foo_8 -->
<g id="node10" class="node">
<title>foo_8</title>
<ellipse fill="none" stroke="black" cx="82" cy="-178" rx="32.41" ry="18"/>
<text text-anchor="middle" x="82" y="-172.95" font-family="Times,serif" font-size="14.00">foo_8</text>
</g>
<!-- foo_7&#45;&gt;foo_8 -->
<g id="edge2" class="edge">
<title>foo_7&#45;&gt;foo_8</title>
<path fill="none" stroke="black" d="M82,-231.7C82,-224.41 82,-215.73 82,-207.54"/>
<polygon fill="black" stroke="black" points="85.5,-207.62 82,-197.62 78.5,-207.62 85.5,-207.62"/>
</g>
<!-- foo_10 -->
<g id="node11" class="node">
<title>foo_10</title>
<ellipse fill="none" stroke="black" cx="82" cy="-106" rx="37.02" ry="18"/>
<text text-anchor="middle" x="82" y="-100.95" font-family="Times,serif" font-size="14.00">foo_10</text>
</g>
<!-- foo_8&#45;&gt;foo_10 -->
<g id="edge3" class="edge">
<title>foo_8&#45;&gt;foo_10</title>
<path fill="none" stroke="black" d="M82,-159.7C82,-152.41 82,-143.73 82,-135.54"/>
<polygon fill="black" stroke="black" points="85.5,-135.62 82,-125.62 78.5,-135.62 85.5,-135.62"/>
</g>
<!-- foo_10&#45;&gt;foo_End -->
<g id="edge4" class="edge">
<title>foo_10&#45;&gt;foo_End</title>
<path fill="none" stroke="black" d="M82,-87.7C82,-80.41 82,-71.73 82,-63.54"/>
<polygon fill="black" stroke="black" points="85.5,-63.62 82,-53.62 78.5,-63.62 85.5,-63.62"/>
</g>
<!-- foo_4 (Call)&#45;&gt;bar_1_Start -->
<g id="edge8" class="edge">
<title>foo_4 (Call)&#45;&gt;bar_1_Start</title>
<path fill="none" stroke="black" d="M129.94,-525.91C177.39,-513.65 253.86,-493.9 305,-480.69"/>
<polygon fill="black" stroke="black" points="305.88,-484.08 314.69,-478.19 304.13,-477.3 305.88,-484.08"/>
</g>
<!-- foo_4 (Call)&#45;&gt;foo_4 (Return) -->
<g id="edge9" class="edge">
<title>foo_4 (Call)&#45;&gt;foo_4 (Return)</title>
<path fill="none" stroke="black" d="M85.76,-519.7C85.24,-512.41 84.62,-503.73 84.04,-495.54"/>
<polygon fill="black" stroke="black" points="87.53,-495.34 83.33,-485.61 80.55,-495.84 87.53,-495.34"/>
</g>
<!-- foo_5 (Call) -->
<g id="node14" class="node">
<title>foo_5 (Call)</title>
<ellipse fill="none" stroke="black" cx="82" cy="-394" rx="56.47" ry="18"/>
<text text-anchor="middle" x="82" y="-388.95" font-family="Times,serif" font-size="14.00">foo_5 (Call)</text>
</g>
<!-- foo_4 (Return)&#45;&gt;foo_5 (Call) -->
<g id="edge10" class="edge">
<title>foo_4 (Return)&#45;&gt;foo_5 (Call)</title>
<path fill="none" stroke="black" d="M82,-447.7C82,-440.41 82,-431.73 82,-423.54"/>
<polygon fill="black" stroke="black" points="85.5,-423.62 82,-413.62 78.5,-423.62 85.5,-423.62"/>
</g>
<!-- foo_5 (Call)&#45;&gt;bar_2_Start -->
<g id="edge14" class="edge">
<title>foo_5 (Call)&#45;&gt;bar_2_Start</title>
<path fill="none" stroke="black" d="M112.19,-378.33C133.64,-367.9 162.68,-353.78 186.05,-342.42"/>
<polygon fill="black" stroke="black" points="187.52,-345.6 194.98,-338.08 184.46,-339.3 187.52,-345.6"/>
</g>
<!-- foo_5 (Call)&#45;&gt;foo_5 (Return) -->
<g id="edge15" class="edge">
<title>foo_5 (Call)&#45;&gt;foo_5 (Return)</title>
<path fill="none" stroke="black" d="M82,-375.7C82,-368.41 82,-359.73 82,-351.54"/>
<polygon fill="black" stroke="black" points="85.5,-351.62 82,-341.62 78.5,-351.62 85.5,-351.62"/>
</g>
<!-- foo_5 (Return)&#45;&gt;foo_7 -->
<g id="edge16" class="edge">
<title>foo_5 (Return)&#45;&gt;foo_7</title>
<path fill="none" stroke="black" d="M82,-303.7C82,-296.41 82,-287.73 82,-279.54"/>
<polygon fill="black" stroke="black" points="85.5,-279.62 82,-269.62 78.5,-279.62 85.5,-279.62"/>
</g>
</g>
</svg>
