<?xml version="1.0" encoding="UTF-8" standalone="no"?>
<!DOCTYPE svg PUBLIC "-//W3C//DTD SVG 1.1//EN"
 "http://www.w3.org/Graphics/SVG/1.1/DTD/svg11.dtd">
<!-- Generated by graphviz version 11.0.0 (20240428.1522)
 -->
<!-- Pages: 1 -->
<svg width="286pt" height="652pt"
 viewBox="0.00 0.00 286.00 652.00" xmlns="http://www.w3.org/2000/svg" xmlns:xlink="http://www.w3.org/1999/xlink">
<g id="graph0" class="graph" transform="scale(1 1) rotate(0) translate(4 648)">
<polygon fill="white" stroke="none" points="-4,4 -4,-648 282,-648 282,4 -4,4"/>
<g id="clust1" class="cluster">
<title>cluster_bar</title>
<polygon fill="none" stroke="black" points="8,-296 8,-492 114,-492 114,-296 8,-296"/>
</g>
<g id="clust2" class="cluster">
<title>cluster_foo</title>
<polygon fill="none" stroke="black" points="122,-8 122,-636 270,-636 270,-8 122,-8"/>
</g>
<!-- bar_Start -->
<g id="node1" class="node">
<title>bar_Start</title>
<ellipse fill="none" stroke="black" cx="61" cy="-466" rx="44.7" ry="18"/>
<text text-anchor="middle" x="61" y="-460.95" font-family="Times,serif" font-size="14.00">bar_Start</text>
</g>
<!-- bar_3 -->
<g id="node3" class="node">
<title>bar_3</title>
<ellipse fill="none" stroke="black" cx="61" cy="-394" rx="31.9" ry="18"/>
<text text-anchor="middle" x="61" y="-388.95" font-family="Times,serif" font-size="14.00">bar_3</text>
</g>
<!-- bar_Start&#45;&gt;bar_3 -->
<g id="edge5" class="edge">
<title>bar_Start&#45;&gt;bar_3</title>
<path fill="none" stroke="black" d="M55.08,-447.7C54.33,-440.41 54.09,-431.73 54.35,-423.54"/>
<polygon fill="black" stroke="black" points="57.84,-423.82 55.01,-413.61 50.86,-423.36 57.84,-423.82"/>
</g>
<!-- bar_Start&#45;&gt;bar_3 -->
<g id="edge11" class="edge">
<title>bar_Start&#45;&gt;bar_3</title>
<path fill="none" stroke="black" d="M66.92,-447.7C67.67,-440.41 67.91,-431.73 67.65,-423.54"/>
<polygon fill="black" stroke="black" points="71.14,-423.36 66.99,-413.61 64.16,-423.82 71.14,-423.36"/>
</g>
<!-- bar_End -->
<g id="node2" class="node">
<title>bar_End</title>
<ellipse fill="none" stroke="black" cx="62" cy="-322" rx="42.14" ry="18"/>
<text text-anchor="middle" x="62" y="-316.95" font-family="Times,serif" font-size="14.00">bar_End</text>
</g>
<!-- foo_4 (Return) -->
<g id="node10" class="node">
<title>foo_4 (Return)</title>
<ellipse fill="none" stroke="black" cx="196" cy="-466" rx="66.19" ry="18"/>
<text text-anchor="middle" x="196" y="-460.95" font-family="Times,serif" font-size="14.00">foo_4 (Return)</text>
</g>
<!-- bar_End&#45;&gt;foo_4 (Return) -->
<g id="edge6" class="edge">
<title>bar_End&#45;&gt;foo_4 (Return)</title>
<path fill="none" stroke="black" d="M75.65,-339.48C90.88,-357.66 116.49,-387.57 140,-412 149.24,-421.6 159.76,-431.75 169.17,-440.56"/>
<polygon fill="black" stroke="black" points="166.61,-442.96 176.32,-447.2 171.37,-437.83 166.61,-442.96"/>
</g>
<!-- foo_5 (Return) -->
<g id="node12" class="node">
<title>foo_5 (Return)</title>
<ellipse fill="none" stroke="black" cx="196" cy="-322" rx="66.19" ry="18"/>
<text text-anchor="middle" x="196" y="-316.95" font-family="Times,serif" font-size="14.00">foo_5 (Return)</text>
</g>
<!-- bar_End&#45;&gt;foo_5 (Return) -->
<g id="edge12" class="edge">
<title>bar_End&#45;&gt;foo_5 (Return)</title>
<path fill="none" stroke="black" d="M104.4,-322C108.96,-322 113.53,-322 118.1,-322"/>
<polygon fill="black" stroke="black" points="117.93,-325.5 127.93,-322 117.93,-318.5 117.93,-325.5"/>
</g>
<!-- bar_3&#45;&gt;bar_End -->
<g id="edge7" class="edge">
<title>bar_3&#45;&gt;bar_End</title>
<path fill="none" stroke="black" d="M55.36,-376.05C54.69,-368.68 54.56,-359.84 54.95,-351.51"/>
<polygon fill="black" stroke="black" points="58.42,-352.03 55.72,-341.78 51.44,-351.48 58.42,-352.03"/>
</g>
<!-- bar_3&#45;&gt;bar_End -->
<g id="edge13" class="edge">
<title>bar_3&#45;&gt;bar_End</title>
<path fill="none" stroke="black" d="M67.12,-376.05C68.01,-368.68 68.39,-359.84 68.24,-351.51"/>
<polygon fill="black" stroke="black" points="71.75,-351.6 67.74,-341.79 64.76,-351.95 71.75,-351.6"/>
</g>
<!-- foo_Start -->
<g id="node4" class="node">
<title>foo_Start</title>
<ellipse fill="none" stroke="black" cx="191" cy="-610" rx="45.21" ry="18"/>
<text text-anchor="middle" x="191" y="-604.95" font-family="Times,serif" font-size="14.00">foo_Start</text>
</g>
<!-- foo_4 (Call) -->
<g id="node9" class="node">
<title>foo_4 (Call)</title>
<ellipse fill="none" stroke="black" cx="191" cy="-538" rx="56.47" ry="18"/>
<text text-anchor="middle" x="191" y="-532.95" font-family="Times,serif" font-size="14.00">foo_4 (Call)</text>
</g>
<!-- foo_Start&#45;&gt;foo_4 (Call) -->
<g id="edge1" class="edge">
<title>foo_Start&#45;&gt;foo_4 (Call)</title>
<path fill="none" stroke="black" d="M191,-591.7C191,-584.41 191,-575.73 191,-567.54"/>
<polygon fill="black" stroke="black" points="194.5,-567.62 191,-557.62 187.5,-567.62 194.5,-567.62"/>
</g>
<!-- foo_End -->
<g id="node5" class="node">
<title>foo_End</title>
<ellipse fill="none" stroke="black" cx="196" cy="-34" rx="42.65" ry="18"/>
<text text-anchor="middle" x="196" y="-28.95" font-family="Times,serif" font-size="14.00">foo_End</text>
</g>
<!-- foo_7 -->
<g id="node6" class="node">
<title>foo_7</title>
<ellipse fill="none" stroke="black" cx="196" cy="-250" rx="32.41" ry="18"/>
<text text-anchor="middle" x="196" y="-244.95" font-family="Times,serif" font-size="14.00">foo_7</text>
</g>
<!-- foo_8 -->
<g id="node7" class="node">
<title>foo_8</title>
<ellipse fill="none" stroke="black" cx="196" cy="-178" rx="32.41" ry="18"/>
<text text-anchor="middle" x="196" y="-172.95" font-family="Times,serif" font-size="14.00">foo_8</text>
</g>
<!-- foo_7&#45;&gt;foo_8 -->
<g id="edge2" class="edge">
<title>foo_7&#45;&gt;foo_8</title>
<path fill="none" stroke="black" d="M196,-231.7C196,-224.41 196,-215.73 196,-207.54"/>
<polygon fill="black" stroke="black" points="199.5,-207.62 196,-197.62 192.5,-207.62 199.5,-207.62"/>
</g>
<!-- foo_10 -->
<g id="node8" class="node">
<title>foo_10</title>
<ellipse fill="none" stroke="black" cx="196" cy="-106" rx="37.02" ry="18"/>
<text text-anchor="middle" x="196" y="-100.95" font-family="Times,serif" font-size="14.00">foo_10</text>
</g>
<!-- foo_8&#45;&gt;foo_10 -->
<g id="edge3" class="edge">
<title>foo_8&#45;&gt;foo_10</title>
<path fill="none" stroke="black" d="M196,-159.7C196,-152.41 196,-143.73 196,-135.54"/>
<polygon fill="black" stroke="black" points="199.5,-135.62 196,-125.62 192.5,-135.62 199.5,-135.62"/>
</g>
<!-- foo_10&#45;&gt;foo_End -->
<g id="edge4" class="edge">
<title>foo_10&#45;&gt;foo_End</title>
<path fill="none" stroke="black" d="M196,-87.7C196,-80.41 196,-71.73 196,-63.54"/>
<polygon fill="black" stroke="black" points="199.5,-63.62 196,-53.62 192.5,-63.62 199.5,-63.62"/>
</g>
<!-- foo_4 (Call)&#45;&gt;bar_Start -->
<g id="edge8" class="edge">
<title>foo_4 (Call)&#45;&gt;bar_Start</title>
<path fill="none" stroke="black" d="M163.11,-521.98C143.84,-511.6 118.02,-497.7 97.16,-486.47"/>
<polygon fill="black" stroke="black" points="98.87,-483.42 88.4,-481.76 95.55,-489.58 98.87,-483.42"/>
</g>
<!-- foo_4 (Call)&#45;&gt;foo_4 (Return) -->
<g id="edge9" class="edge">
<title>foo_4 (Call)&#45;&gt;foo_4 (Return)</title>
<path fill="none" stroke="black" d="M192.24,-519.7C192.76,-512.41 193.38,-503.73 193.96,-495.54"/>
<polygon fill="black" stroke="black" points="197.45,-495.84 194.67,-485.61 190.47,-495.34 197.45,-495.84"/>
</g>
<!-- foo_5 (Call) -->
<g id="node11" class="node">
<title>foo_5 (Call)</title>
<ellipse fill="none" stroke="black" cx="205" cy="-394" rx="56.47" ry="18"/>
<text text-anchor="middle" x="205" y="-388.95" font-family="Times,serif" font-size="14.00">foo_5 (Call)</text>
</g>
<!-- foo_4 (Return)&#45;&gt;foo_5 (Call) -->
<g id="edge10" class="edge">
<title>foo_4 (Return)&#45;&gt;foo_5 (Call)</title>
<path fill="none" stroke="black" d="M198.22,-447.7C199.17,-440.32 200.3,-431.52 201.37,-423.25"/>
<polygon fill="black" stroke="black" points="204.8,-423.97 202.61,-413.61 197.86,-423.08 204.8,-423.97"/>
</g>
<!-- foo_5 (Call)&#45;&gt;bar_Start -->
<g id="edge14" class="edge">
<title>foo_5 (Call)&#45;&gt;bar_Start</title>
<path fill="none" stroke="black" d="M174.83,-409.66C152.72,-420.41 122.55,-435.08 98.83,-446.61"/>
<polygon fill="black" stroke="black" points="97.59,-443.32 90.13,-450.84 100.65,-449.62 97.59,-443.32"/>
</g>
<!-- foo_5 (Call)&#45;&gt;foo_5 (Return) -->
<g id="edge15" class="edge">
<title>foo_5 (Call)&#45;&gt;foo_5 (Return)</title>
<path fill="none" stroke="black" d="M202.78,-375.7C201.83,-368.32 200.7,-359.52 199.63,-351.25"/>
<polygon fill="black" stroke="black" points="203.14,-351.08 198.39,-341.61 196.2,-351.97 203.14,-351.08"/>
</g>
<!-- foo_5 (Return)&#45;&gt;foo_7 -->
<g id="edge16" class="edge">
<title>foo_5 (Return)&#45;&gt;foo_7</title>
<path fill="none" stroke="black" d="M196,-303.7C196,-296.41 196,-287.73 196,-279.54"/>
<polygon fill="black" stroke="black" points="199.5,-279.62 196,-269.62 192.5,-279.62 199.5,-279.62"/>
</g>
</g>
</svg>
