<?xml version="1.0" encoding="UTF-8" standalone="no"?>
<!DOCTYPE svg PUBLIC "-//W3C//DTD SVG 1.1//EN"
 "http://www.w3.org/Graphics/SVG/1.1/DTD/svg11.dtd">
<!-- Generated by graphviz version 11.0.0 (20240428.1522)
 -->
<!-- Pages: 1 -->
<svg width="430pt" height="580pt"
 viewBox="0.00 0.00 430.00 580.00" xmlns="http://www.w3.org/2000/svg" xmlns:xlink="http://www.w3.org/1999/xlink">
<g id="graph0" class="graph" transform="scale(1 1) rotate(0) translate(4 576)">
<polygon fill="white" stroke="none" points="-4,4 -4,-576 426,-576 426,4 -4,4"/>
<g id="clust1" class="cluster">
<title>cluster_bar</title>
<polygon fill="none" stroke="black" points="252,-80 252,-348 414,-348 414,-80 252,-80"/>
</g>
<g id="clust2" class="cluster">
<title>cluster_foo</title>
<polygon fill="none" stroke="black" points="8,-8 8,-564 212,-564 212,-8 8,-8"/>
</g>
<!-- bar_Start -->
<g id="node1" class="node">
<title>bar_Start</title>
<ellipse fill="none" stroke="black" cx="305" cy="-322" rx="44.7" ry="18"/>
<text text-anchor="middle" x="305" y="-316.95" font-family="Times,serif" font-size="14.00">bar_Start</text>
</g>
<!-- bar_3 -->
<g id="node3" class="node">
<title>bar_3</title>
<ellipse fill="none" stroke="black" cx="305" cy="-250" rx="31.9" ry="18"/>
<text text-anchor="middle" x="305" y="-244.95" font-family="Times,serif" font-size="14.00">bar_3</text>
</g>
<!-- bar_Start&#45;&gt;bar_3 -->
<g id="edge9" class="edge">
<title>bar_Start&#45;&gt;bar_3</title>
<path fill="none" stroke="black" d="M305,-303.7C305,-296.41 305,-287.73 305,-279.54"/>
<polygon fill="black" stroke="black" points="308.5,-279.62 305,-269.62 301.5,-279.62 308.5,-279.62"/>
</g>
<!-- bar_End -->
<g id="node2" class="node">
<title>bar_End</title>
<ellipse fill="none" stroke="black" cx="302" cy="-106" rx="42.14" ry="18"/>
<text text-anchor="middle" x="302" y="-100.95" font-family="Times,serif" font-size="14.00">bar_End</text>
</g>
<!-- foo_5 (Return) -->
<g id="node15" class="node">
<title>foo_5 (Return)</title>
<ellipse fill="none" stroke="black" cx="138" cy="-322" rx="66.19" ry="18"/>
<text text-anchor="middle" x="138" y="-316.95" font-family="Times,serif" font-size="14.00">foo_5 (Return)</text>
</g>
<!-- bar_End&#45;&gt;foo_5 (Return) -->
<g id="edge10" class="edge">
<title>bar_End&#45;&gt;foo_5 (Return)</title>
<path fill="none" stroke="black" d="M284.2,-122.34C273.51,-132.25 260.24,-145.91 251,-160 222.48,-203.48 237.54,-226.66 206,-268 197.04,-279.74 184.9,-290.3 173.34,-298.85"/>
<polygon fill="black" stroke="black" points="171.66,-295.75 165.52,-304.38 175.7,-301.47 171.66,-295.75"/>
</g>
<!-- bar_4 -->
<g id="node4" class="node">
<title>bar_4</title>
<ellipse fill="none" stroke="black" cx="292" cy="-178" rx="31.9" ry="18"/>
<text text-anchor="middle" x="292" y="-172.95" font-family="Times,serif" font-size="14.00">bar_4</text>
</g>
<!-- bar_3&#45;&gt;bar_4 -->
<g id="edge11" class="edge">
<title>bar_3&#45;&gt;bar_4</title>
<path fill="none" stroke="black" d="M301.79,-231.7C300.42,-224.32 298.78,-215.52 297.25,-207.25"/>
<polygon fill="black" stroke="black" points="300.72,-206.79 295.45,-197.59 293.84,-208.06 300.72,-206.79"/>
</g>
<!-- bar_6 -->
<g id="node5" class="node">
<title>bar_6</title>
<ellipse fill="none" stroke="black" cx="374" cy="-178" rx="31.9" ry="18"/>
<text text-anchor="middle" x="374" y="-172.95" font-family="Times,serif" font-size="14.00">bar_6</text>
</g>
<!-- bar_3&#45;&gt;bar_6 -->
<g id="edge12" class="edge">
<title>bar_3&#45;&gt;bar_6</title>
<path fill="none" stroke="black" d="M319.97,-233.81C329.1,-224.55 340.96,-212.52 351.24,-202.09"/>
<polygon fill="black" stroke="black" points="353.47,-204.82 357.99,-195.24 348.48,-199.9 353.47,-204.82"/>
</g>
<!-- bar_4&#45;&gt;bar_End -->
<g id="edge13" class="edge">
<title>bar_4&#45;&gt;bar_End</title>
<path fill="none" stroke="black" d="M294.47,-159.7C295.53,-152.32 296.78,-143.52 297.96,-135.25"/>
<polygon fill="black" stroke="black" points="301.39,-136 299.34,-125.6 294.46,-135.01 301.39,-136"/>
</g>
<!-- bar_6&#45;&gt;bar_End -->
<g id="edge14" class="edge">
<title>bar_6&#45;&gt;bar_End</title>
<path fill="none" stroke="black" d="M358.38,-161.81C349.04,-152.74 336.99,-141.01 326.42,-130.74"/>
<polygon fill="black" stroke="black" points="329.04,-128.4 319.43,-123.94 324.16,-133.42 329.04,-128.4"/>
</g>
<!-- foo_Start -->
<g id="node6" class="node">
<title>foo_Start</title>
<ellipse fill="none" stroke="black" cx="138" cy="-538" rx="45.21" ry="18"/>
<text text-anchor="middle" x="138" y="-532.95" font-family="Times,serif" font-size="14.00">foo_Start</text>
</g>
<!-- foo_3 -->
<g id="node8" class="node">
<title>foo_3</title>
<ellipse fill="none" stroke="black" cx="138" cy="-466" rx="32.41" ry="18"/>
<text text-anchor="middle" x="138" y="-460.95" font-family="Times,serif" font-size="14.00">foo_3</text>
</g>
<!-- foo_Start&#45;&gt;foo_3 -->
<g id="edge1" class="edge">
<title>foo_Start&#45;&gt;foo_3</title>
<path fill="none" stroke="black" d="M138,-519.7C138,-512.41 138,-503.73 138,-495.54"/>
<polygon fill="black" stroke="black" points="141.5,-495.62 138,-485.62 134.5,-495.62 141.5,-495.62"/>
</g>
<!-- foo_End -->
<g id="node7" class="node">
<title>foo_End</title>
<ellipse fill="none" stroke="black" cx="161" cy="-178" rx="42.65" ry="18"/>
<text text-anchor="middle" x="161" y="-172.95" font-family="Times,serif" font-size="14.00">foo_End</text>
</g>
<!-- foo_5 (Call) -->
<g id="node14" class="node">
<title>foo_5 (Call)</title>
<ellipse fill="none" stroke="black" cx="138" cy="-394" rx="56.47" ry="18"/>
<text text-anchor="middle" x="138" y="-388.95" font-family="Times,serif" font-size="14.00">foo_5 (Call)</text>
</g>
<!-- foo_3&#45;&gt;foo_5 (Call) -->
<g id="edge2" class="edge">
<title>foo_3&#45;&gt;foo_5 (Call)</title>
<path fill="none" stroke="black" d="M138,-447.7C138,-440.41 138,-431.73 138,-423.54"/>
<polygon fill="black" stroke="black" points="141.5,-423.62 138,-413.62 134.5,-423.62 141.5,-423.62"/>
</g>
<!-- foo_6 -->
<g id="node9" class="node">
<title>foo_6</title>
<ellipse fill="none" stroke="black" cx="71" cy="-250" rx="32.41" ry="18"/>
<text text-anchor="middle" x="71" y="-244.95" font-family="Times,serif" font-size="14.00">foo_6</text>
</g>
<!-- foo_7 -->
<g id="node11" class="node">
<title>foo_7</title>
<ellipse fill="none" stroke="black" cx="68" cy="-178" rx="32.41" ry="18"/>
<text text-anchor="middle" x="68" y="-172.95" font-family="Times,serif" font-size="14.00">foo_7</text>
</g>
<!-- foo_6&#45;&gt;foo_7 -->
<g id="edge3" class="edge">
<title>foo_6&#45;&gt;foo_7</title>
<path fill="none" stroke="black" d="M70.26,-231.7C69.95,-224.41 69.57,-215.73 69.22,-207.54"/>
<polygon fill="black" stroke="black" points="72.72,-207.46 68.8,-197.62 65.73,-207.76 72.72,-207.46"/>
</g>
<!-- foo_12 -->
<g id="node10" class="node">
<title>foo_12</title>
<ellipse fill="none" stroke="black" cx="160" cy="-250" rx="37.02" ry="18"/>
<text text-anchor="middle" x="160" y="-244.95" font-family="Times,serif" font-size="14.00">foo_12</text>
</g>
<!-- foo_12&#45;&gt;foo_End -->
<g id="edge4" class="edge">
<title>foo_12&#45;&gt;foo_End</title>
<path fill="none" stroke="black" d="M160.25,-231.7C160.35,-224.41 160.48,-215.73 160.59,-207.54"/>
<polygon fill="black" stroke="black" points="164.09,-207.67 160.73,-197.62 157.09,-207.57 164.09,-207.67"/>
</g>
<!-- foo_8 -->
<g id="node12" class="node">
<title>foo_8</title>
<ellipse fill="none" stroke="black" cx="68" cy="-106" rx="32.41" ry="18"/>
<text text-anchor="middle" x="68" y="-100.95" font-family="Times,serif" font-size="14.00">foo_8</text>
</g>
<!-- foo_7&#45;&gt;foo_8 -->
<g id="edge5" class="edge">
<title>foo_7&#45;&gt;foo_8</title>
<path fill="none" stroke="black" d="M68,-159.7C68,-152.41 68,-143.73 68,-135.54"/>
<polygon fill="black" stroke="black" points="71.5,-135.62 68,-125.62 64.5,-135.62 71.5,-135.62"/>
</g>
<!-- foo_9 -->
<g id="node13" class="node">
<title>foo_9</title>
<ellipse fill="none" stroke="black" cx="68" cy="-34" rx="32.41" ry="18"/>
<text text-anchor="middle" x="68" y="-28.95" font-family="Times,serif" font-size="14.00">foo_9</text>
</g>
<!-- foo_7&#45;&gt;foo_9 -->
<g id="edge6" class="edge">
<title>foo_7&#45;&gt;foo_9</title>
<path fill="none" stroke="black" d="M84.05,-161.97C93.29,-152.17 104.04,-138.53 109,-124 115.32,-105.49 116.06,-98.24 109,-80 105.73,-71.55 100.04,-63.7 93.93,-57.01"/>
<polygon fill="black" stroke="black" points="96.73,-54.86 87.18,-50.27 91.78,-59.81 96.73,-54.86"/>
</g>
<!-- foo_8&#45;&gt;foo_9 -->
<g id="edge7" class="edge">
<title>foo_8&#45;&gt;foo_9</title>
<path fill="none" stroke="black" d="M68,-87.7C68,-80.41 68,-71.73 68,-63.54"/>
<polygon fill="black" stroke="black" points="71.5,-63.62 68,-53.62 64.5,-63.62 71.5,-63.62"/>
</g>
<!-- foo_9&#45;&gt;foo_5 (Call) -->
<g id="edge8" class="edge">
<title>foo_9&#45;&gt;foo_5 (Call)</title>
<path fill="none" stroke="black" d="M50.39,-49.41C41.83,-57.46 32.27,-68.23 27,-80 9.3,-119.56 17,-133.66 17,-177 17,-251 17,-251 17,-251 17,-298.71 30.95,-312.66 63,-348 72.07,-358 83.9,-366.49 95.46,-373.3"/>
<polygon fill="black" stroke="black" points="93.72,-376.34 104.16,-378.12 97.11,-370.21 93.72,-376.34"/>
</g>
<!-- foo_5 (Call)&#45;&gt;bar_Start -->
<g id="edge15" class="edge">
<title>foo_5 (Call)&#45;&gt;bar_Start</title>
<path fill="none" stroke="black" d="M170.99,-379.17C197.8,-367.94 235.72,-352.04 264.39,-340.02"/>
<polygon fill="black" stroke="black" points="265.62,-343.3 273.49,-336.21 262.91,-336.85 265.62,-343.3"/>
</g>
<!-- foo_5 (Call)&#45;&gt;foo_5 (Return) -->
<g id="edge16" class="edge">
<title>foo_5 (Call)&#45;&gt;foo_5 (Return)</title>
<path fill="none" stroke="black" d="M138,-375.7C138,-368.41 138,-359.73 138,-351.54"/>
<polygon fill="black" stroke="black" points="141.5,-351.62 138,-341.62 134.5,-351.62 141.5,-351.62"/>
</g>
<!-- foo_5 (Return)&#45;&gt;foo_6 -->
<g id="edge17" class="edge">
<title>foo_5 (Return)&#45;&gt;foo_6</title>
<path fill="none" stroke="black" d="M122.12,-304.41C113.62,-295.53 103.01,-284.44 93.65,-274.67"/>
<polygon fill="black" stroke="black" points="96.34,-272.41 86.89,-267.6 91.28,-277.25 96.34,-272.41"/>
</g>
<!-- foo_5 (Return)&#45;&gt;foo_12 -->
<g id="edge18" class="edge">
<title>foo_5 (Return)&#45;&gt;foo_12</title>
<path fill="none" stroke="black" d="M143.44,-303.7C145.78,-296.24 148.58,-287.32 151.21,-278.97"/>
<polygon fill="black" stroke="black" points="154.51,-280.14 154.17,-269.55 147.83,-278.04 154.51,-280.14"/>
</g>
</g>
</svg>
