<?xml version="1.0" encoding="UTF-8" standalone="no"?>
<!DOCTYPE svg PUBLIC "-//W3C//DTD SVG 1.1//EN"
 "http://www.w3.org/Graphics/SVG/1.1/DTD/svg11.dtd">
<!-- Generated by graphviz version 11.0.0 (20240428.1522)
 -->
<!-- Pages: 1 -->
<svg width="286pt" height="508pt"
 viewBox="0.00 0.00 286.00 508.00" xmlns="http://www.w3.org/2000/svg" xmlns:xlink="http://www.w3.org/1999/xlink">
<g id="graph0" class="graph" transform="scale(1 1) rotate(0) translate(4 504)">
<polygon fill="white" stroke="none" points="-4,4 -4,-504 282,-504 282,4 -4,4"/>
<g id="clust1" class="cluster">
<title>cluster_bar</title>
<polygon fill="none" stroke="black" points="164,-80 164,-276 270,-276 270,-80 164,-80"/>
</g>
<g id="clust2" class="cluster">
<title>cluster_foo</title>
<polygon fill="none" stroke="black" points="8,-8 8,-492 156,-492 156,-8 8,-8"/>
</g>
<!-- bar_Start -->
<g id="node1" class="node">
<title>bar_Start</title>
<ellipse fill="none" stroke="black" cx="217" cy="-250" rx="44.7" ry="18"/>
<text text-anchor="middle" x="217" y="-244.95" font-family="Times,serif" font-size="14.00">bar_Start</text>
</g>
<!-- bar_3 -->
<g id="node3" class="node">
<title>bar_3</title>
<ellipse fill="none" stroke="black" cx="216" cy="-178" rx="31.9" ry="18"/>
<text text-anchor="middle" x="216" y="-172.95" font-family="Times,serif" font-size="14.00">bar_3</text>
</g>
<!-- bar_Start&#45;&gt;bar_3 -->
<g id="edge5" class="edge">
<title>bar_Start&#45;&gt;bar_3</title>
<path fill="none" stroke="black" d="M216.75,-231.7C216.65,-224.41 216.52,-215.73 216.41,-207.54"/>
<polygon fill="black" stroke="black" points="219.91,-207.57 216.27,-197.62 212.91,-207.67 219.91,-207.57"/>
</g>
<!-- bar_End -->
<g id="node2" class="node">
<title>bar_End</title>
<ellipse fill="none" stroke="black" cx="215" cy="-106" rx="42.14" ry="18"/>
<text text-anchor="middle" x="215" y="-100.95" font-family="Times,serif" font-size="14.00">bar_End</text>
</g>
<!-- foo_5 (Return) -->
<g id="node10" class="node">
<title>foo_5 (Return)</title>
<ellipse fill="none" stroke="black" cx="82" cy="-250" rx="66.19" ry="18"/>
<text text-anchor="middle" x="82" y="-244.95" font-family="Times,serif" font-size="14.00">foo_5 (Return)</text>
</g>
<!-- bar_End&#45;&gt;foo_5 (Return) -->
<g id="edge6" class="edge">
<title>bar_End&#45;&gt;foo_5 (Return)</title>
<path fill="none" stroke="black" d="M200.06,-122.95C177.02,-147.55 132.62,-194.95 105.33,-224.1"/>
<polygon fill="black" stroke="black" points="103.1,-221.36 98.81,-231.05 108.2,-226.14 103.1,-221.36"/>
</g>
<!-- bar_3&#45;&gt;bar_End -->
<g id="edge7" class="edge">
<title>bar_3&#45;&gt;bar_End</title>
<path fill="none" stroke="black" d="M215.75,-159.7C215.65,-152.41 215.52,-143.73 215.41,-135.54"/>
<polygon fill="black" stroke="black" points="218.91,-135.57 215.27,-125.62 211.91,-135.67 218.91,-135.57"/>
</g>
<!-- foo_Start -->
<g id="node4" class="node">
<title>foo_Start</title>
<ellipse fill="none" stroke="black" cx="87" cy="-466" rx="45.21" ry="18"/>
<text text-anchor="middle" x="87" y="-460.95" font-family="Times,serif" font-size="14.00">foo_Start</text>
</g>
<!-- foo_4 -->
<g id="node6" class="node">
<title>foo_4</title>
<ellipse fill="none" stroke="black" cx="87" cy="-394" rx="32.41" ry="18"/>
<text text-anchor="middle" x="87" y="-388.95" font-family="Times,serif" font-size="14.00">foo_4</text>
</g>
<!-- foo_Start&#45;&gt;foo_4 -->
<g id="edge1" class="edge">
<title>foo_Start&#45;&gt;foo_4</title>
<path fill="none" stroke="black" d="M87,-447.7C87,-440.41 87,-431.73 87,-423.54"/>
<polygon fill="black" stroke="black" points="90.5,-423.62 87,-413.62 83.5,-423.62 90.5,-423.62"/>
</g>
<!-- foo_End -->
<g id="node5" class="node">
<title>foo_End</title>
<ellipse fill="none" stroke="black" cx="82" cy="-34" rx="42.65" ry="18"/>
<text text-anchor="middle" x="82" y="-28.95" font-family="Times,serif" font-size="14.00">foo_End</text>
</g>
<!-- foo_5 (Call) -->
<g id="node9" class="node">
<title>foo_5 (Call)</title>
<ellipse fill="none" stroke="black" cx="87" cy="-322" rx="56.47" ry="18"/>
<text text-anchor="middle" x="87" y="-316.95" font-family="Times,serif" font-size="14.00">foo_5 (Call)</text>
</g>
<!-- foo_4&#45;&gt;foo_5 (Call) -->
<g id="edge2" class="edge">
<title>foo_4&#45;&gt;foo_5 (Call)</title>
<path fill="none" stroke="black" d="M87,-375.7C87,-368.41 87,-359.73 87,-351.54"/>
<polygon fill="black" stroke="black" points="90.5,-351.62 87,-341.62 83.5,-351.62 90.5,-351.62"/>
</g>
<!-- foo_6 -->
<g id="node7" class="node">
<title>foo_6</title>
<ellipse fill="none" stroke="black" cx="82" cy="-178" rx="32.41" ry="18"/>
<text text-anchor="middle" x="82" y="-172.95" font-family="Times,serif" font-size="14.00">foo_6</text>
</g>
<!-- foo_8 -->
<g id="node8" class="node">
<title>foo_8</title>
<ellipse fill="none" stroke="black" cx="82" cy="-106" rx="32.41" ry="18"/>
<text text-anchor="middle" x="82" y="-100.95" font-family="Times,serif" font-size="14.00">foo_8</text>
</g>
<!-- foo_6&#45;&gt;foo_8 -->
<g id="edge3" class="edge">
<title>foo_6&#45;&gt;foo_8</title>
<path fill="none" stroke="black" d="M82,-159.7C82,-152.41 82,-143.73 82,-135.54"/>
<polygon fill="black" stroke="black" points="85.5,-135.62 82,-125.62 78.5,-135.62 85.5,-135.62"/>
</g>
<!-- foo_8&#45;&gt;foo_End -->
<g id="edge4" class="edge">
<title>foo_8&#45;&gt;foo_End</title>
<path fill="none" stroke="black" d="M82,-87.7C82,-80.41 82,-71.73 82,-63.54"/>
<polygon fill="black" stroke="black" points="85.5,-63.62 82,-53.62 78.5,-63.62 85.5,-63.62"/>
</g>
<!-- foo_5 (Call)&#45;&gt;bar_Start -->
<g id="edge8" class="edge">
<title>foo_5 (Call)&#45;&gt;bar_Start</title>
<path fill="none" stroke="black" d="M114.89,-305.98C134.16,-295.6 159.98,-281.7 180.84,-270.47"/>
<polygon fill="black" stroke="black" points="182.45,-273.58 189.6,-265.76 179.13,-267.42 182.45,-273.58"/>
</g>
<!-- foo_5 (Call)&#45;&gt;foo_5 (Return) -->
<g id="edge9" class="edge">
<title>foo_5 (Call)&#45;&gt;foo_5 (Return)</title>
<path fill="none" stroke="black" d="M85.76,-303.7C85.24,-296.41 84.62,-287.73 84.04,-279.54"/>
<polygon fill="black" stroke="black" points="87.53,-279.34 83.33,-269.61 80.55,-279.84 87.53,-279.34"/>
</g>
<!-- foo_5 (Return)&#45;&gt;foo_6 -->
<g id="edge10" class="edge">
<title>foo_5 (Return)&#45;&gt;foo_6</title>
<path fill="none" stroke="black" d="M82,-231.7C82,-224.41 82,-215.73 82,-207.54"/>
<polygon fill="black" stroke="black" points="85.5,-207.62 82,-197.62 78.5,-207.62 85.5,-207.62"/>
</g>
</g>
</svg>
