<?xml version="1.0" encoding="UTF-8" standalone="no"?>
<!DOCTYPE svg PUBLIC "-//W3C//DTD SVG 1.1//EN"
 "http://www.w3.org/Graphics/SVG/1.1/DTD/svg11.dtd">
<!-- Generated by graphviz version 11.0.0 (20240428.1522)
 -->
<!-- Pages: 1 -->
<svg width="286pt" height="260pt"
 viewBox="0.00 0.00 285.70 260.00" xmlns="http://www.w3.org/2000/svg" xmlns:xlink="http://www.w3.org/1999/xlink">
<g id="graph0" class="graph" transform="scale(1 1) rotate(0) translate(4 256)">
<polygon fill="white" stroke="none" points="-4,4 -4,-256 281.7,-256 281.7,4 -4,4"/>
<!-- {&#39;z&#39;, &#39;x&#39;, &#39;y&#39;} -->
<g id="node1" class="node">
<title>{&#39;z&#39;, &#39;x&#39;, &#39;y&#39;}</title>
<ellipse fill="none" stroke="black" cx="139.6" cy="-18" rx="52.89" ry="18"/>
<text text-anchor="middle" x="139.6" y="-12.95" font-family="Times,serif" font-size="14.00">{&#39;z&#39;, &#39;x&#39;, &#39;y&#39;}</text>
</g>
<!-- set() -->
<g id="node2" class="node">
<title>set()</title>
<ellipse fill="none" stroke="black" cx="139.6" cy="-234" rx="27.3" ry="18"/>
<text text-anchor="middle" x="139.6" y="-228.95" font-family="Times,serif" font-size="14.00">set()</text>
</g>
<!-- {&#39;x&#39;} -->
<g id="node3" class="node">
<title>{&#39;x&#39;}</title>
<ellipse fill="none" stroke="black" cx="65.6" cy="-162" rx="27.81" ry="18"/>
<text text-anchor="middle" x="65.6" y="-156.95" font-family="Times,serif" font-size="14.00">{&#39;x&#39;}</text>
</g>
<!-- set()&#45;&gt;{&#39;x&#39;} -->
<g id="edge1" class="edge">
<title>set()&#45;&gt;{&#39;x&#39;}</title>
<path fill="none" stroke="black" d="M124.63,-218.83C114.37,-209.13 100.55,-196.06 88.86,-185"/>
<polygon fill="black" stroke="black" points="91.58,-182.75 81.91,-178.42 86.77,-187.84 91.58,-182.75"/>
</g>
<!-- {&#39;y&#39;} -->
<g id="node4" class="node">
<title>{&#39;y&#39;}</title>
<ellipse fill="none" stroke="black" cx="139.6" cy="-162" rx="27.81" ry="18"/>
<text text-anchor="middle" x="139.6" y="-156.95" font-family="Times,serif" font-size="14.00">{&#39;y&#39;}</text>
</g>
<!-- set()&#45;&gt;{&#39;y&#39;} -->
<g id="edge2" class="edge">
<title>set()&#45;&gt;{&#39;y&#39;}</title>
<path fill="none" stroke="black" d="M139.6,-215.7C139.6,-208.41 139.6,-199.73 139.6,-191.54"/>
<polygon fill="black" stroke="black" points="143.1,-191.62 139.6,-181.62 136.1,-191.62 143.1,-191.62"/>
</g>
<!-- {&#39;z&#39;} -->
<g id="node5" class="node">
<title>{&#39;z&#39;}</title>
<ellipse fill="none" stroke="black" cx="212.6" cy="-162" rx="27.3" ry="18"/>
<text text-anchor="middle" x="212.6" y="-156.95" font-family="Times,serif" font-size="14.00">{&#39;z&#39;}</text>
</g>
<!-- set()&#45;&gt;{&#39;z&#39;} -->
<g id="edge3" class="edge">
<title>set()&#45;&gt;{&#39;z&#39;}</title>
<path fill="none" stroke="black" d="M154.73,-218.5C164.71,-208.92 177.99,-196.19 189.31,-185.34"/>
<polygon fill="black" stroke="black" points="191.61,-187.98 196.4,-178.53 186.76,-182.93 191.61,-187.98"/>
</g>
<!-- {&#39;x&#39;, &#39;y&#39;} -->
<g id="node6" class="node">
<title>{&#39;x&#39;, &#39;y&#39;}</title>
<ellipse fill="none" stroke="black" cx="40.6" cy="-90" rx="40.6" ry="18"/>
<text text-anchor="middle" x="40.6" y="-84.95" font-family="Times,serif" font-size="14.00">{&#39;x&#39;, &#39;y&#39;}</text>
</g>
<!-- {&#39;x&#39;}&#45;&gt;{&#39;x&#39;, &#39;y&#39;} -->
<g id="edge4" class="edge">
<title>{&#39;x&#39;}&#45;&gt;{&#39;x&#39;, &#39;y&#39;}</title>
<path fill="none" stroke="black" d="M59.55,-144.05C56.86,-136.52 53.62,-127.44 50.58,-118.94"/>
<polygon fill="black" stroke="black" points="53.94,-117.94 47.28,-109.7 47.35,-120.3 53.94,-117.94"/>
</g>
<!-- {&#39;z&#39;, &#39;x&#39;} -->
<g id="node7" class="node">
<title>{&#39;z&#39;, &#39;x&#39;}</title>
<ellipse fill="none" stroke="black" cx="139.6" cy="-90" rx="40.09" ry="18"/>
<text text-anchor="middle" x="139.6" y="-84.95" font-family="Times,serif" font-size="14.00">{&#39;z&#39;, &#39;x&#39;}</text>
</g>
<!-- {&#39;x&#39;}&#45;&gt;{&#39;z&#39;, &#39;x&#39;} -->
<g id="edge5" class="edge">
<title>{&#39;x&#39;}&#45;&gt;{&#39;z&#39;, &#39;x&#39;}</title>
<path fill="none" stroke="black" d="M80.94,-146.5C90.72,-137.24 103.62,-125.04 114.84,-114.43"/>
<polygon fill="black" stroke="black" points="117.04,-117.16 121.9,-107.74 112.23,-112.07 117.04,-117.16"/>
</g>
<!-- {&#39;y&#39;}&#45;&gt;{&#39;x&#39;, &#39;y&#39;} -->
<g id="edge6" class="edge">
<title>{&#39;y&#39;}&#45;&gt;{&#39;x&#39;, &#39;y&#39;}</title>
<path fill="none" stroke="black" d="M121.45,-148.16C107.26,-138.13 87.24,-123.98 70.67,-112.26"/>
<polygon fill="black" stroke="black" points="72.81,-109.48 62.62,-106.57 68.77,-115.2 72.81,-109.48"/>
</g>
<!-- {&#39;z&#39;, &#39;y&#39;} -->
<g id="node8" class="node">
<title>{&#39;z&#39;, &#39;y&#39;}</title>
<ellipse fill="none" stroke="black" cx="237.6" cy="-90" rx="40.09" ry="18"/>
<text text-anchor="middle" x="237.6" y="-84.95" font-family="Times,serif" font-size="14.00">{&#39;z&#39;, &#39;y&#39;}</text>
</g>
<!-- {&#39;y&#39;}&#45;&gt;{&#39;z&#39;, &#39;y&#39;} -->
<g id="edge7" class="edge">
<title>{&#39;y&#39;}&#45;&gt;{&#39;z&#39;, &#39;y&#39;}</title>
<path fill="none" stroke="black" d="M157.58,-148.16C171.62,-138.13 191.44,-123.98 207.84,-112.26"/>
<polygon fill="black" stroke="black" points="209.69,-115.24 215.8,-106.58 205.63,-109.54 209.69,-115.24"/>
</g>
<!-- {&#39;z&#39;}&#45;&gt;{&#39;z&#39;, &#39;x&#39;} -->
<g id="edge8" class="edge">
<title>{&#39;z&#39;}&#45;&gt;{&#39;z&#39;, &#39;x&#39;}</title>
<path fill="none" stroke="black" d="M197.48,-146.5C187.83,-137.24 175.1,-125.04 164.04,-114.43"/>
<polygon fill="black" stroke="black" points="166.71,-112.15 157.07,-107.75 161.87,-117.2 166.71,-112.15"/>
</g>
<!-- {&#39;z&#39;}&#45;&gt;{&#39;z&#39;, &#39;y&#39;} -->
<g id="edge9" class="edge">
<title>{&#39;z&#39;}&#45;&gt;{&#39;z&#39;, &#39;y&#39;}</title>
<path fill="none" stroke="black" d="M218.66,-144.05C221.35,-136.52 224.59,-127.44 227.63,-118.94"/>
<polygon fill="black" stroke="black" points="230.86,-120.3 230.92,-109.7 224.27,-117.94 230.86,-120.3"/>
</g>
<!-- {&#39;x&#39;, &#39;y&#39;}&#45;&gt;{&#39;z&#39;, &#39;x&#39;, &#39;y&#39;} -->
<g id="edge10" class="edge">
<title>{&#39;x&#39;, &#39;y&#39;}&#45;&gt;{&#39;z&#39;, &#39;x&#39;, &#39;y&#39;}</title>
<path fill="none" stroke="black" d="M61.6,-74.15C75.14,-64.58 92.99,-51.96 108.2,-41.21"/>
<polygon fill="black" stroke="black" points="109.88,-44.3 116.03,-35.67 105.84,-38.59 109.88,-44.3"/>
</g>
<!-- {&#39;z&#39;, &#39;x&#39;}&#45;&gt;{&#39;z&#39;, &#39;x&#39;, &#39;y&#39;} -->
<g id="edge11" class="edge">
<title>{&#39;z&#39;, &#39;x&#39;}&#45;&gt;{&#39;z&#39;, &#39;x&#39;, &#39;y&#39;}</title>
<path fill="none" stroke="black" d="M139.6,-71.7C139.6,-64.41 139.6,-55.73 139.6,-47.54"/>
<polygon fill="black" stroke="black" points="143.1,-47.62 139.6,-37.62 136.1,-47.62 143.1,-47.62"/>
</g>
<!-- {&#39;z&#39;, &#39;y&#39;}&#45;&gt;{&#39;z&#39;, &#39;x&#39;, &#39;y&#39;} -->
<g id="edge12" class="edge">
<title>{&#39;z&#39;, &#39;y&#39;}&#45;&gt;{&#39;z&#39;, &#39;x&#39;, &#39;y&#39;}</title>
<path fill="none" stroke="black" d="M216.82,-74.15C203.42,-64.58 185.75,-51.96 170.69,-41.21"/>
<polygon fill="black" stroke="black" points="173.12,-38.64 162.95,-35.68 169.05,-44.34 173.12,-38.64"/>
</g>
</g>
</svg>
