<?xml version="1.0" encoding="UTF-8" standalone="no"?>
<!DOCTYPE svg PUBLIC "-//W3C//DTD SVG 1.1//EN"
 "http://www.w3.org/Graphics/SVG/1.1/DTD/svg11.dtd">
<!-- Generated by graphviz version 11.0.0 (20240428.1522)
 -->
<!-- Pages: 1 -->
<svg width="242pt" height="188pt"
 viewBox="0.00 0.00 242.33 188.00" xmlns="http://www.w3.org/2000/svg" xmlns:xlink="http://www.w3.org/1999/xlink">
<g id="graph0" class="graph" transform="scale(1 1) rotate(0) translate(4 184)">
<polygon fill="white" stroke="none" points="-4,4 -4,-184 238.33,-184 238.33,4 -4,4"/>
<!-- {NONZERO, ZERO} -->
<g id="node1" class="node">
<title>{NONZERO, ZERO}</title>
<ellipse fill="none" stroke="black" cx="107.19" cy="-18" rx="93.32" ry="18"/>
<text text-anchor="middle" x="107.19" y="-12.95" font-family="Times,serif" font-size="14.00">{NONZERO, ZERO}</text>
</g>
<!-- set() -->
<g id="node2" class="node">
<title>set()</title>
<ellipse fill="none" stroke="black" cx="107.19" cy="-162" rx="27.3" ry="18"/>
<text text-anchor="middle" x="107.19" y="-156.95" font-family="Times,serif" font-size="14.00">set()</text>
</g>
<!-- {ZERO} -->
<g id="node3" class="node">
<title>{ZERO}</title>
<ellipse fill="none" stroke="black" cx="44.19" cy="-90" rx="44.19" ry="18"/>
<text text-anchor="middle" x="44.19" y="-84.95" font-family="Times,serif" font-size="14.00">{ZERO}</text>
</g>
<!-- set()&#45;&gt;{ZERO} -->
<g id="edge1" class="edge">
<title>set()&#45;&gt;{ZERO}</title>
<path fill="none" stroke="black" d="M93.83,-146.15C85.89,-137.34 75.63,-125.94 66.5,-115.79"/>
<polygon fill="black" stroke="black" points="69.15,-113.51 59.86,-108.42 63.95,-118.19 69.15,-113.51"/>
</g>
<!-- {NONZERO} -->
<g id="node4" class="node">
<title>{NONZERO}</title>
<ellipse fill="none" stroke="black" cx="170.19" cy="-90" rx="64.15" ry="18"/>
<text text-anchor="middle" x="170.19" y="-84.95" font-family="Times,serif" font-size="14.00">{NONZERO}</text>
</g>
<!-- set()&#45;&gt;{NONZERO} -->
<g id="edge2" class="edge">
<title>set()&#45;&gt;{NONZERO}</title>
<path fill="none" stroke="black" d="M120.55,-146.15C128.37,-137.46 138.45,-126.26 147.49,-116.22"/>
<polygon fill="black" stroke="black" points="149.98,-118.69 154.06,-108.91 144.77,-114.01 149.98,-118.69"/>
</g>
<!-- {ZERO}&#45;&gt;{NONZERO, ZERO} -->
<g id="edge3" class="edge">
<title>{ZERO}&#45;&gt;{NONZERO, ZERO}</title>
<path fill="none" stroke="black" d="M58.8,-72.76C66.37,-64.35 75.78,-53.89 84.29,-44.44"/>
<polygon fill="black" stroke="black" points="86.67,-47.02 90.76,-37.25 81.47,-42.34 86.67,-47.02"/>
</g>
<!-- {NONZERO}&#45;&gt;{NONZERO, ZERO} -->
<g id="edge4" class="edge">
<title>{NONZERO}&#45;&gt;{NONZERO, ZERO}</title>
<path fill="none" stroke="black" d="M154.94,-72.05C147.43,-63.71 138.23,-53.49 129.91,-44.25"/>
<polygon fill="black" stroke="black" points="132.6,-42.01 123.31,-36.91 127.4,-46.69 132.6,-42.01"/>
</g>
</g>
</svg>
