<?xml version="1.0" encoding="UTF-8" standalone="no"?>
<!DOCTYPE svg PUBLIC "-//W3C//DTD SVG 1.1//EN"
 "http://www.w3.org/Graphics/SVG/1.1/DTD/svg11.dtd">
<!-- Generated by graphviz version 11.0.0 (20240428.1522)
 -->
<!-- Pages: 1 -->
<svg width="2504pt" height="548pt"
 viewBox="0.00 0.00 2504.25 548.00" xmlns="http://www.w3.org/2000/svg" xmlns:xlink="http://www.w3.org/1999/xlink">
<g id="graph0" class="graph" transform="scale(1 1) rotate(0) translate(4 544)">
<polygon fill="white" stroke="none" points="-4,4 -4,-544 2500.25,-544 2500.25,4 -4,4"/>
<!-- 4369634912 -->
<g id="node1" class="node">
<title>4369634912</title>
<ellipse fill="none" stroke="black" cx="661.03" cy="-522" rx="156.78" ry="18"/>
<text text-anchor="start" x="554.15" y="-516.95" font-family="Times,serif" font-size="14.00">class &#39;javalang.tree.MethodDeclaration&#39;</text>
</g>
<!-- 4369632848 -->
<g id="node2" class="node">
<title>4369632848</title>
<ellipse fill="none" stroke="black" cx="124.03" cy="-450" rx="124.03" ry="18"/>
<text text-anchor="start" x="41.15" y="-444.95" font-family="Times,serif" font-size="14.00">class &#39;javalang.tree.BasicType&#39;</text>
</g>
<!-- 4369634912&#45;&gt;4369632848 -->
<g id="edge1" class="edge">
<title>4369634912&#45;&gt;4369632848</title>
<path fill="none" stroke="black" d="M560.02,-507.83C464.17,-495.34 320.89,-476.66 225.03,-464.17"/>
<polygon fill="black" stroke="black" points="225.74,-460.73 215.37,-462.91 224.84,-467.67 225.74,-460.73"/>
</g>
<!-- 1 -->
<g id="node3" class="node">
<title>1</title>
<ellipse fill="none" stroke="black" cx="293.03" cy="-450" rx="27" ry="18"/>
<text text-anchor="middle" x="293.03" y="-444.95" font-family="Times,serif" font-size="14.00">foo</text>
</g>
<!-- 4369634912&#45;&gt;1 -->
<g id="edge2" class="edge">
<title>4369634912&#45;&gt;1</title>
<path fill="none" stroke="black" d="M540.85,-510.11C476.94,-502.26 397.62,-489.2 329.03,-468 327.42,-467.5 325.79,-466.95 324.16,-466.35"/>
<polygon fill="black" stroke="black" points="325.54,-463.13 314.96,-462.5 322.84,-469.59 325.54,-463.13"/>
</g>
<!-- 4369632992 -->
<g id="node4" class="node">
<title>4369632992</title>
<ellipse fill="none" stroke="black" cx="488.03" cy="-450" rx="149.62" ry="18"/>
<text text-anchor="start" x="386.4" y="-444.95" font-family="Times,serif" font-size="14.00">class &#39;javalang.tree.FormalParameter&#39;</text>
</g>
<!-- 4369634912&#45;&gt;4369632992 -->
<g id="edge3" class="edge">
<title>4369634912&#45;&gt;4369632992</title>
<path fill="none" stroke="black" d="M619.59,-504.23C595.71,-494.57 565.48,-482.34 540.02,-472.04"/>
<polygon fill="black" stroke="black" points="541.41,-468.83 530.83,-468.32 538.79,-475.31 541.41,-468.83"/>
</g>
<!-- 4369633088 -->
<g id="node5" class="node">
<title>4369633088</title>
<ellipse fill="none" stroke="black" cx="835.03" cy="-450" rx="179.3" ry="18"/>
<text text-anchor="start" x="711.65" y="-444.95" font-family="Times,serif" font-size="14.00">class &#39;javalang.tree.LocalVariableDeclaration&#39;</text>
</g>
<!-- 4369634912&#45;&gt;4369633088 -->
<g id="edge4" class="edge">
<title>4369634912&#45;&gt;4369633088</title>
<path fill="none" stroke="black" d="M702.71,-504.23C726.63,-494.61 756.91,-482.43 782.46,-472.15"/>
<polygon fill="black" stroke="black" points="783.71,-475.42 791.68,-468.44 781.1,-468.92 783.71,-475.42"/>
</g>
<!-- 4369634432 -->
<g id="node6" class="node">
<title>4369634432</title>
<ellipse fill="none" stroke="black" cx="1276.03" cy="-450" rx="145.01" ry="18"/>
<text text-anchor="start" x="1177.78" y="-444.95" font-family="Times,serif" font-size="14.00">class &#39;javalang.tree.WhileStatement&#39;</text>
</g>
<!-- 4369634912&#45;&gt;4369634432 -->
<g id="edge5" class="edge">
<title>4369634912&#45;&gt;4369634432</title>
<path fill="none" stroke="black" d="M769.56,-508.65C879.25,-496.16 1048.12,-476.94 1160.3,-464.17"/>
<polygon fill="black" stroke="black" points="1160.61,-467.66 1170.15,-463.05 1159.82,-460.7 1160.61,-467.66"/>
</g>
<!-- 4369634624 -->
<g id="node7" class="node">
<title>4369634624</title>
<ellipse fill="none" stroke="black" cx="1957.03" cy="-450" rx="147.06" ry="18"/>
<text text-anchor="start" x="1857.28" y="-444.95" font-family="Times,serif" font-size="14.00">class &#39;javalang.tree.ReturnStatement&#39;</text>
</g>
<!-- 4369634912&#45;&gt;4369634624 -->
<g id="edge6" class="edge">
<title>4369634912&#45;&gt;4369634624</title>
<path fill="none" stroke="black" d="M800.34,-513.48C1048.07,-500.1 1562.67,-472.3 1813.44,-458.76"/>
<polygon fill="black" stroke="black" points="1813.5,-462.26 1823.3,-458.22 1813.12,-455.27 1813.5,-462.26"/>
</g>
<!-- 2 -->
<g id="node8" class="node">
<title>2</title>
<ellipse fill="none" stroke="black" cx="124.03" cy="-378" rx="27" ry="18"/>
<text text-anchor="middle" x="124.03" y="-372.95" font-family="Times,serif" font-size="14.00">int</text>
</g>
<!-- 4369632848&#45;&gt;2 -->
<g id="edge7" class="edge">
<title>4369632848&#45;&gt;2</title>
<path fill="none" stroke="black" d="M124.03,-431.7C124.03,-424.41 124.03,-415.73 124.03,-407.54"/>
<polygon fill="black" stroke="black" points="127.53,-407.62 124.03,-397.62 120.53,-407.62 127.53,-407.62"/>
</g>
<!-- 4369632896 -->
<g id="node9" class="node">
<title>4369632896</title>
<ellipse fill="none" stroke="black" cx="306.03" cy="-378" rx="124.03" ry="18"/>
<text text-anchor="start" x="223.15" y="-372.95" font-family="Times,serif" font-size="14.00">class &#39;javalang.tree.BasicType&#39;</text>
</g>
<!-- 4369632992&#45;&gt;4369632896 -->
<g id="edge8" class="edge">
<title>4369632992&#45;&gt;4369632896</title>
<path fill="none" stroke="black" d="M444.9,-432.41C419.19,-422.52 386.36,-409.9 359.08,-399.4"/>
<polygon fill="black" stroke="black" points="360.54,-396.22 349.95,-395.89 358.03,-402.75 360.54,-396.22"/>
</g>
<!-- 3 -->
<g id="node10" class="node">
<title>3</title>
<ellipse fill="none" stroke="black" cx="475.03" cy="-378" rx="27" ry="18"/>
<text text-anchor="middle" x="475.03" y="-372.95" font-family="Times,serif" font-size="14.00">x</text>
</g>
<!-- 4369632992&#45;&gt;3 -->
<g id="edge9" class="edge">
<title>4369632992&#45;&gt;3</title>
<path fill="none" stroke="black" d="M484.81,-431.7C483.45,-424.32 481.81,-415.52 480.27,-407.25"/>
<polygon fill="black" stroke="black" points="483.75,-406.79 478.48,-397.59 476.87,-408.06 483.75,-406.79"/>
</g>
<!-- 4369633136 -->
<g id="node12" class="node">
<title>4369633136</title>
<ellipse fill="none" stroke="black" cx="644.03" cy="-378" rx="124.03" ry="18"/>
<text text-anchor="start" x="561.15" y="-372.95" font-family="Times,serif" font-size="14.00">class &#39;javalang.tree.BasicType&#39;</text>
</g>
<!-- 4369633088&#45;&gt;4369633136 -->
<g id="edge11" class="edge">
<title>4369633088&#45;&gt;4369633136</title>
<path fill="none" stroke="black" d="M789.28,-432.23C762.17,-422.3 727.64,-409.64 699.06,-399.17"/>
<polygon fill="black" stroke="black" points="700.43,-395.94 689.84,-395.79 698.02,-402.52 700.43,-395.94"/>
</g>
<!-- 4369633280 -->
<g id="node13" class="node">
<title>4369633280</title>
<ellipse fill="none" stroke="black" cx="940.03" cy="-378" rx="154.22" ry="18"/>
<text text-anchor="start" x="835.03" y="-372.95" font-family="Times,serif" font-size="14.00">class &#39;javalang.tree.VariableDeclarator&#39;</text>
</g>
<!-- 4369633088&#45;&gt;4369633280 -->
<g id="edge12" class="edge">
<title>4369633088&#45;&gt;4369633280</title>
<path fill="none" stroke="black" d="M860.98,-431.7C874.21,-422.88 890.48,-412.03 904.82,-402.47"/>
<polygon fill="black" stroke="black" points="906.73,-405.4 913.11,-396.94 902.85,-399.58 906.73,-405.4"/>
</g>
<!-- 4369633328 -->
<g id="node18" class="node">
<title>4369633328</title>
<ellipse fill="none" stroke="black" cx="1276.03" cy="-378" rx="146.55" ry="18"/>
<text text-anchor="start" x="1176.65" y="-372.95" font-family="Times,serif" font-size="14.00">class &#39;javalang.tree.BinaryOperation&#39;</text>
</g>
<!-- 4369634432&#45;&gt;4369633328 -->
<g id="edge17" class="edge">
<title>4369634432&#45;&gt;4369633328</title>
<path fill="none" stroke="black" d="M1276.03,-431.7C1276.03,-424.41 1276.03,-415.73 1276.03,-407.54"/>
<polygon fill="black" stroke="black" points="1279.53,-407.62 1276.03,-397.62 1272.53,-407.62 1279.53,-407.62"/>
</g>
<!-- 4369634288 -->
<g id="node19" class="node">
<title>4369634288</title>
<ellipse fill="none" stroke="black" cx="1812.03" cy="-378" rx="143.99" ry="18"/>
<text text-anchor="start" x="1714.53" y="-372.95" font-family="Times,serif" font-size="14.00">class &#39;javalang.tree.BlockStatement&#39;</text>
</g>
<!-- 4369634432&#45;&gt;4369634288 -->
<g id="edge18" class="edge">
<title>4369634432&#45;&gt;4369634288</title>
<path fill="none" stroke="black" d="M1373.4,-436.28C1466.6,-424.11 1606.91,-405.79 1703.62,-393.16"/>
<polygon fill="black" stroke="black" points="1703.93,-396.65 1713.4,-391.88 1703.03,-389.71 1703.93,-396.65"/>
</g>
<!-- 4369634768 -->
<g id="node52" class="node">
<title>4369634768</title>
<ellipse fill="none" stroke="black" cx="2329.03" cy="-378" rx="154.22" ry="18"/>
<text text-anchor="start" x="2224.03" y="-372.95" font-family="Times,serif" font-size="14.00">class &#39;javalang.tree.MemberReference&#39;</text>
</g>
<!-- 4369634624&#45;&gt;4369634768 -->
<g id="edge51" class="edge">
<title>4369634624&#45;&gt;4369634768</title>
<path fill="none" stroke="black" d="M2035.01,-434.33C2094.6,-423.11 2176.83,-407.64 2239.18,-395.91"/>
<polygon fill="black" stroke="black" points="2239.52,-399.4 2248.7,-394.12 2238.22,-392.53 2239.52,-399.4"/>
</g>
<!-- 4 -->
<g id="node11" class="node">
<title>4</title>
<ellipse fill="none" stroke="black" cx="306.03" cy="-306" rx="27" ry="18"/>
<text text-anchor="middle" x="306.03" y="-300.95" font-family="Times,serif" font-size="14.00">int</text>
</g>
<!-- 4369632896&#45;&gt;4 -->
<g id="edge10" class="edge">
<title>4369632896&#45;&gt;4</title>
<path fill="none" stroke="black" d="M306.03,-359.7C306.03,-352.41 306.03,-343.73 306.03,-335.54"/>
<polygon fill="black" stroke="black" points="309.53,-335.62 306.03,-325.62 302.53,-335.62 309.53,-335.62"/>
</g>
<!-- 5 -->
<g id="node14" class="node">
<title>5</title>
<ellipse fill="none" stroke="black" cx="644.03" cy="-306" rx="27" ry="18"/>
<text text-anchor="middle" x="644.03" y="-300.95" font-family="Times,serif" font-size="14.00">int</text>
</g>
<!-- 4369633136&#45;&gt;5 -->
<g id="edge13" class="edge">
<title>4369633136&#45;&gt;5</title>
<path fill="none" stroke="black" d="M644.03,-359.7C644.03,-352.41 644.03,-343.73 644.03,-335.54"/>
<polygon fill="black" stroke="black" points="647.53,-335.62 644.03,-325.62 640.53,-335.62 647.53,-335.62"/>
</g>
<!-- 6 -->
<g id="node15" class="node">
<title>6</title>
<ellipse fill="none" stroke="black" cx="769.03" cy="-306" rx="27" ry="18"/>
<text text-anchor="middle" x="769.03" y="-300.95" font-family="Times,serif" font-size="14.00">y</text>
</g>
<!-- 4369633280&#45;&gt;6 -->
<g id="edge14" class="edge">
<title>4369633280&#45;&gt;6</title>
<path fill="none" stroke="black" d="M895.34,-360.32C868.89,-350.23 834.85,-336.88 805.03,-324 803.52,-323.35 801.98,-322.67 800.43,-321.98"/>
<polygon fill="black" stroke="black" points="802.17,-318.92 791.62,-317.94 799.25,-325.29 802.17,-318.92"/>
</g>
<!-- 4369633232 -->
<g id="node16" class="node">
<title>4369633232</title>
<ellipse fill="none" stroke="black" cx="923.03" cy="-306" rx="109.19" ry="18"/>
<text text-anchor="start" x="851.03" y="-300.95" font-family="Times,serif" font-size="14.00">class &#39;javalang.tree.Literal&#39;</text>
</g>
<!-- 4369633280&#45;&gt;4369633232 -->
<g id="edge15" class="edge">
<title>4369633280&#45;&gt;4369633232</title>
<path fill="none" stroke="black" d="M935.83,-359.7C934.03,-352.32 931.9,-343.52 929.89,-335.25"/>
<polygon fill="black" stroke="black" points="933.3,-334.47 927.54,-325.58 926.5,-336.12 933.3,-334.47"/>
</g>
<!-- 7 -->
<g id="node17" class="node">
<title>7</title>
<ellipse fill="none" stroke="black" cx="923.03" cy="-234" rx="27" ry="18"/>
<text text-anchor="middle" x="923.03" y="-228.95" font-family="Times,serif" font-size="14.00">0</text>
</g>
<!-- 4369633232&#45;&gt;7 -->
<g id="edge16" class="edge">
<title>4369633232&#45;&gt;7</title>
<path fill="none" stroke="black" d="M923.03,-287.7C923.03,-280.41 923.03,-271.73 923.03,-263.54"/>
<polygon fill="black" stroke="black" points="926.53,-263.62 923.03,-253.62 919.53,-263.62 926.53,-263.62"/>
</g>
<!-- 8 -->
<g id="node20" class="node">
<title>8</title>
<ellipse fill="none" stroke="black" cx="1077.03" cy="-306" rx="27" ry="18"/>
<text text-anchor="middle" x="1077.03" y="-300.95" font-family="Times,serif" font-size="14.00">&gt;=</text>
</g>
<!-- 4369633328&#45;&gt;8 -->
<g id="edge19" class="edge">
<title>4369633328&#45;&gt;8</title>
<path fill="none" stroke="black" d="M1220.71,-360.92C1188.86,-351.2 1148.29,-337.99 1113.03,-324 1111.5,-323.39 1109.95,-322.76 1108.39,-322.09"/>
<polygon fill="black" stroke="black" points="1110.09,-319.02 1099.53,-318.14 1107.24,-325.41 1110.09,-319.02"/>
</g>
<!-- 4369633424 -->
<g id="node21" class="node">
<title>4369633424</title>
<ellipse fill="none" stroke="black" cx="1276.03" cy="-306" rx="154.22" ry="18"/>
<text text-anchor="start" x="1171.03" y="-300.95" font-family="Times,serif" font-size="14.00">class &#39;javalang.tree.MemberReference&#39;</text>
</g>
<!-- 4369633328&#45;&gt;4369633424 -->
<g id="edge20" class="edge">
<title>4369633328&#45;&gt;4369633424</title>
<path fill="none" stroke="black" d="M1276.03,-359.7C1276.03,-352.41 1276.03,-343.73 1276.03,-335.54"/>
<polygon fill="black" stroke="black" points="1279.53,-335.62 1276.03,-325.62 1272.53,-335.62 1279.53,-335.62"/>
</g>
<!-- 4369633520 -->
<g id="node22" class="node">
<title>4369633520</title>
<ellipse fill="none" stroke="black" cx="1557.03" cy="-306" rx="109.19" ry="18"/>
<text text-anchor="start" x="1485.03" y="-300.95" font-family="Times,serif" font-size="14.00">class &#39;javalang.tree.Literal&#39;</text>
</g>
<!-- 4369633328&#45;&gt;4369633520 -->
<g id="edge21" class="edge">
<title>4369633328&#45;&gt;4369633520</title>
<path fill="none" stroke="black" d="M1339.09,-361.29C1383.19,-350.31 1442.09,-335.63 1487.54,-324.31"/>
<polygon fill="black" stroke="black" points="1488.17,-327.76 1497.02,-321.95 1486.47,-320.97 1488.17,-327.76"/>
</g>
<!-- 4369634144 -->
<g id="node26" class="node">
<title>4369634144</title>
<ellipse fill="none" stroke="black" cx="1812.03" cy="-306" rx="128.12" ry="18"/>
<text text-anchor="start" x="1726.15" y="-300.95" font-family="Times,serif" font-size="14.00">class &#39;javalang.tree.IfStatement&#39;</text>
</g>
<!-- 4369634288&#45;&gt;4369634144 -->
<g id="edge25" class="edge">
<title>4369634288&#45;&gt;4369634144</title>
<path fill="none" stroke="black" d="M1812.03,-359.7C1812.03,-352.41 1812.03,-343.73 1812.03,-335.54"/>
<polygon fill="black" stroke="black" points="1815.53,-335.62 1812.03,-325.62 1808.53,-335.62 1815.53,-335.62"/>
</g>
<!-- 4369634576 -->
<g id="node27" class="node">
<title>4369634576</title>
<ellipse fill="none" stroke="black" cx="2121.03" cy="-306" rx="162.93" ry="18"/>
<text text-anchor="start" x="2009.65" y="-300.95" font-family="Times,serif" font-size="14.00">class &#39;javalang.tree.StatementExpression&#39;</text>
</g>
<!-- 4369634288&#45;&gt;4369634576 -->
<g id="edge26" class="edge">
<title>4369634288&#45;&gt;4369634576</title>
<path fill="none" stroke="black" d="M1879.46,-361.72C1926.84,-350.99 1990.44,-336.58 2040.49,-325.24"/>
<polygon fill="black" stroke="black" points="2041.15,-328.68 2050.13,-323.06 2039.6,-321.86 2041.15,-328.68"/>
</g>
<!-- 9 -->
<g id="node23" class="node">
<title>9</title>
<ellipse fill="none" stroke="black" cx="1240.03" cy="-234" rx="27" ry="18"/>
</g>
<!-- 4369633424&#45;&gt;9 -->
<g id="edge22" class="edge">
<title>4369633424&#45;&gt;9</title>
<path fill="none" stroke="black" d="M1267.13,-287.7C1263.04,-279.75 1258.11,-270.16 1253.58,-261.34"/>
<polygon fill="black" stroke="black" points="1256.71,-259.78 1249.02,-252.49 1250.48,-262.98 1256.71,-259.78"/>
</g>
<!-- 10 -->
<g id="node24" class="node">
<title>10</title>
<ellipse fill="none" stroke="black" cx="1312.03" cy="-234" rx="27" ry="18"/>
<text text-anchor="middle" x="1312.03" y="-228.95" font-family="Times,serif" font-size="14.00">x</text>
</g>
<!-- 4369633424&#45;&gt;10 -->
<g id="edge23" class="edge">
<title>4369633424&#45;&gt;10</title>
<path fill="none" stroke="black" d="M1284.93,-287.7C1289.01,-279.75 1293.95,-270.16 1298.48,-261.34"/>
<polygon fill="black" stroke="black" points="1301.57,-262.98 1303.03,-252.49 1295.35,-259.78 1301.57,-262.98"/>
</g>
<!-- 11 -->
<g id="node25" class="node">
<title>11</title>
<ellipse fill="none" stroke="black" cx="1488.03" cy="-234" rx="27" ry="18"/>
<text text-anchor="middle" x="1488.03" y="-228.95" font-family="Times,serif" font-size="14.00">0</text>
</g>
<!-- 4369633520&#45;&gt;11 -->
<g id="edge24" class="edge">
<title>4369633520&#45;&gt;11</title>
<path fill="none" stroke="black" d="M1540.33,-288.05C1531.23,-278.82 1519.85,-267.29 1510.04,-257.33"/>
<polygon fill="black" stroke="black" points="1512.82,-255.17 1503.31,-250.5 1507.84,-260.08 1512.82,-255.17"/>
</g>
<!-- 4369633904 -->
<g id="node28" class="node">
<title>4369633904</title>
<ellipse fill="none" stroke="black" cx="1680.03" cy="-234" rx="146.55" ry="18"/>
<text text-anchor="start" x="1580.65" y="-228.95" font-family="Times,serif" font-size="14.00">class &#39;javalang.tree.BinaryOperation&#39;</text>
</g>
<!-- 4369634144&#45;&gt;4369633904 -->
<g id="edge27" class="edge">
<title>4369634144&#45;&gt;4369633904</title>
<path fill="none" stroke="black" d="M1780.41,-288.23C1762.91,-278.95 1740.93,-267.29 1722,-257.26"/>
<polygon fill="black" stroke="black" points="1723.66,-254.17 1713.18,-252.58 1720.38,-260.36 1723.66,-254.17"/>
</g>
<!-- 4369634096 -->
<g id="node29" class="node">
<title>4369634096</title>
<ellipse fill="none" stroke="black" cx="2007.03" cy="-234" rx="162.93" ry="18"/>
<text text-anchor="start" x="1895.65" y="-228.95" font-family="Times,serif" font-size="14.00">class &#39;javalang.tree.StatementExpression&#39;</text>
</g>
<!-- 4369634144&#45;&gt;4369634096 -->
<g id="edge28" class="edge">
<title>4369634144&#45;&gt;4369634096</title>
<path fill="none" stroke="black" d="M1857.26,-288.76C1884.91,-278.84 1920.53,-266.05 1950.1,-255.44"/>
<polygon fill="black" stroke="black" points="1951.04,-258.82 1959.27,-252.14 1948.67,-252.23 1951.04,-258.82"/>
</g>
<!-- 4369634528 -->
<g id="node48" class="node">
<title>4369634528</title>
<ellipse fill="none" stroke="black" cx="2342.03" cy="-234" rx="154.22" ry="18"/>
<text text-anchor="start" x="2237.03" y="-228.95" font-family="Times,serif" font-size="14.00">class &#39;javalang.tree.MemberReference&#39;</text>
</g>
<!-- 4369634576&#45;&gt;4369634528 -->
<g id="edge47" class="edge">
<title>4369634576&#45;&gt;4369634528</title>
<path fill="none" stroke="black" d="M2173.12,-288.5C2205.02,-278.4 2246.03,-265.41 2279.65,-254.76"/>
<polygon fill="black" stroke="black" points="2280.36,-258.2 2288.84,-251.85 2278.25,-251.53 2280.36,-258.2"/>
</g>
<!-- 12 -->
<g id="node30" class="node">
<title>12</title>
<ellipse fill="none" stroke="black" cx="1264.03" cy="-162" rx="27" ry="18"/>
<text text-anchor="middle" x="1264.03" y="-156.95" font-family="Times,serif" font-size="14.00">==</text>
</g>
<!-- 4369633904&#45;&gt;12 -->
<g id="edge29" class="edge">
<title>4369633904&#45;&gt;12</title>
<path fill="none" stroke="black" d="M1579.63,-220.59C1476.15,-207.54 1326.32,-187.84 1300.03,-180 1298.41,-179.52 1296.78,-178.97 1295.15,-178.38"/>
<polygon fill="black" stroke="black" points="1296.52,-175.17 1285.94,-174.57 1293.84,-181.63 1296.52,-175.17"/>
</g>
<!-- 4369633952 -->
<g id="node31" class="node">
<title>4369633952</title>
<ellipse fill="none" stroke="black" cx="1456.03" cy="-162" rx="146.55" ry="18"/>
<text text-anchor="start" x="1356.65" y="-156.95" font-family="Times,serif" font-size="14.00">class &#39;javalang.tree.BinaryOperation&#39;</text>
</g>
<!-- 4369633904&#45;&gt;4369633952 -->
<g id="edge30" class="edge">
<title>4369633904&#45;&gt;4369633952</title>
<path fill="none" stroke="black" d="M1628.08,-216.76C1595.54,-206.6 1553.4,-193.43 1518.97,-182.67"/>
<polygon fill="black" stroke="black" points="1520.12,-179.36 1509.53,-179.72 1518.03,-186.04 1520.12,-179.36"/>
</g>
<!-- 4369633664 -->
<g id="node32" class="node">
<title>4369633664</title>
<ellipse fill="none" stroke="black" cx="1730.03" cy="-162" rx="109.19" ry="18"/>
<text text-anchor="start" x="1658.03" y="-156.95" font-family="Times,serif" font-size="14.00">class &#39;javalang.tree.Literal&#39;</text>
</g>
<!-- 4369633904&#45;&gt;4369633664 -->
<g id="edge31" class="edge">
<title>4369633904&#45;&gt;4369633664</title>
<path fill="none" stroke="black" d="M1692.39,-215.7C1698.08,-207.73 1704.96,-198.1 1711.27,-189.26"/>
<polygon fill="black" stroke="black" points="1713.97,-191.51 1716.93,-181.34 1708.27,-187.44 1713.97,-191.51"/>
</g>
<!-- 4369633856 -->
<g id="node40" class="node">
<title>4369633856</title>
<ellipse fill="none" stroke="black" cx="2021.03" cy="-162" rx="129.15" ry="18"/>
<text text-anchor="start" x="1934.4" y="-156.95" font-family="Times,serif" font-size="14.00">class &#39;javalang.tree.Assignment&#39;</text>
</g>
<!-- 4369634096&#45;&gt;4369633856 -->
<g id="edge39" class="edge">
<title>4369634096&#45;&gt;4369633856</title>
<path fill="none" stroke="black" d="M2010.49,-215.7C2011.96,-208.32 2013.72,-199.52 2015.38,-191.25"/>
<polygon fill="black" stroke="black" points="2018.78,-192.08 2017.31,-181.59 2011.92,-190.71 2018.78,-192.08"/>
</g>
<!-- 13 -->
<g id="node33" class="node">
<title>13</title>
<ellipse fill="none" stroke="black" cx="1096.03" cy="-90" rx="27" ry="18"/>
<text text-anchor="middle" x="1096.03" y="-84.95" font-family="Times,serif" font-size="14.00">%</text>
</g>
<!-- 4369633952&#45;&gt;13 -->
<g id="edge32" class="edge">
<title>4369633952&#45;&gt;13</title>
<path fill="none" stroke="black" d="M1358.75,-148.13C1279.16,-137.03 1173.25,-120.83 1132.03,-108 1130.42,-107.5 1128.79,-106.94 1127.16,-106.34"/>
<polygon fill="black" stroke="black" points="1128.54,-103.12 1117.97,-102.49 1125.84,-109.58 1128.54,-103.12"/>
</g>
<!-- 4369633616 -->
<g id="node34" class="node">
<title>4369633616</title>
<ellipse fill="none" stroke="black" cx="1295.03" cy="-90" rx="154.22" ry="18"/>
<text text-anchor="start" x="1190.03" y="-84.95" font-family="Times,serif" font-size="14.00">class &#39;javalang.tree.MemberReference&#39;</text>
</g>
<!-- 4369633952&#45;&gt;4369633616 -->
<g id="edge33" class="edge">
<title>4369633952&#45;&gt;4369633616</title>
<path fill="none" stroke="black" d="M1417.46,-144.23C1395.52,-134.69 1367.81,-122.64 1344.3,-112.42"/>
<polygon fill="black" stroke="black" points="1345.79,-109.25 1335.22,-108.48 1343,-115.67 1345.79,-109.25"/>
</g>
<!-- 4369633568 -->
<g id="node35" class="node">
<title>4369633568</title>
<ellipse fill="none" stroke="black" cx="1576.03" cy="-90" rx="109.19" ry="18"/>
<text text-anchor="start" x="1504.03" y="-84.95" font-family="Times,serif" font-size="14.00">class &#39;javalang.tree.Literal&#39;</text>
</g>
<!-- 4369633952&#45;&gt;4369633568 -->
<g id="edge34" class="edge">
<title>4369633952&#45;&gt;4369633568</title>
<path fill="none" stroke="black" d="M1485.38,-143.88C1501.16,-134.67 1520.8,-123.22 1537.76,-113.32"/>
<polygon fill="black" stroke="black" points="1539.21,-116.53 1546.08,-108.47 1535.68,-110.48 1539.21,-116.53"/>
</g>
<!-- 17 -->
<g id="node39" class="node">
<title>17</title>
<ellipse fill="none" stroke="black" cx="1730.03" cy="-90" rx="27" ry="18"/>
<text text-anchor="middle" x="1730.03" y="-84.95" font-family="Times,serif" font-size="14.00">0</text>
</g>
<!-- 4369633664&#45;&gt;17 -->
<g id="edge38" class="edge">
<title>4369633664&#45;&gt;17</title>
<path fill="none" stroke="black" d="M1730.03,-143.7C1730.03,-136.41 1730.03,-127.73 1730.03,-119.54"/>
<polygon fill="black" stroke="black" points="1733.53,-119.62 1730.03,-109.62 1726.53,-119.62 1733.53,-119.62"/>
</g>
<!-- 14 -->
<g id="node36" class="node">
<title>14</title>
<ellipse fill="none" stroke="black" cx="1259.03" cy="-18" rx="27" ry="18"/>
</g>
<!-- 4369633616&#45;&gt;14 -->
<g id="edge35" class="edge">
<title>4369633616&#45;&gt;14</title>
<path fill="none" stroke="black" d="M1286.13,-71.7C1282.04,-63.75 1277.11,-54.16 1272.58,-45.34"/>
<polygon fill="black" stroke="black" points="1275.71,-43.78 1268.02,-36.49 1269.48,-46.98 1275.71,-43.78"/>
</g>
<!-- 15 -->
<g id="node37" class="node">
<title>15</title>
<ellipse fill="none" stroke="black" cx="1331.03" cy="-18" rx="27" ry="18"/>
<text text-anchor="middle" x="1331.03" y="-12.95" font-family="Times,serif" font-size="14.00">x</text>
</g>
<!-- 4369633616&#45;&gt;15 -->
<g id="edge36" class="edge">
<title>4369633616&#45;&gt;15</title>
<path fill="none" stroke="black" d="M1303.93,-71.7C1308.01,-63.75 1312.95,-54.16 1317.48,-45.34"/>
<polygon fill="black" stroke="black" points="1320.57,-46.98 1322.03,-36.49 1314.35,-43.78 1320.57,-46.98"/>
</g>
<!-- 16 -->
<g id="node38" class="node">
<title>16</title>
<ellipse fill="none" stroke="black" cx="1576.03" cy="-18" rx="27" ry="18"/>
<text text-anchor="middle" x="1576.03" y="-12.95" font-family="Times,serif" font-size="14.00">2</text>
</g>
<!-- 4369633568&#45;&gt;16 -->
<g id="edge37" class="edge">
<title>4369633568&#45;&gt;16</title>
<path fill="none" stroke="black" d="M1576.03,-71.7C1576.03,-64.41 1576.03,-55.73 1576.03,-47.54"/>
<polygon fill="black" stroke="black" points="1579.53,-47.62 1576.03,-37.62 1572.53,-47.62 1579.53,-47.62"/>
</g>
<!-- 4369633808 -->
<g id="node41" class="node">
<title>4369633808</title>
<ellipse fill="none" stroke="black" cx="1929.03" cy="-90" rx="154.22" ry="18"/>
<text text-anchor="start" x="1824.03" y="-84.95" font-family="Times,serif" font-size="14.00">class &#39;javalang.tree.MemberReference&#39;</text>
</g>
<!-- 4369633856&#45;&gt;4369633808 -->
<g id="edge40" class="edge">
<title>4369633856&#45;&gt;4369633808</title>
<path fill="none" stroke="black" d="M1998.76,-144.05C1987.29,-135.33 1973.11,-124.54 1960.54,-114.98"/>
<polygon fill="black" stroke="black" points="1963.02,-112.46 1952.94,-109.19 1958.78,-118.03 1963.02,-112.46"/>
</g>
<!-- 4369633760 -->
<g id="node42" class="node">
<title>4369633760</title>
<ellipse fill="none" stroke="black" cx="2255.03" cy="-90" rx="154.22" ry="18"/>
<text text-anchor="start" x="2150.03" y="-84.95" font-family="Times,serif" font-size="14.00">class &#39;javalang.tree.MemberReference&#39;</text>
</g>
<!-- 4369633856&#45;&gt;4369633760 -->
<g id="edge41" class="edge">
<title>4369633856&#45;&gt;4369633760</title>
<path fill="none" stroke="black" d="M2073.83,-145.2C2108.31,-134.89 2153.55,-121.36 2190.21,-110.39"/>
<polygon fill="black" stroke="black" points="2190.76,-113.88 2199.34,-107.66 2188.76,-107.17 2190.76,-113.88"/>
</g>
<!-- 18 -->
<g id="node43" class="node">
<title>18</title>
<ellipse fill="none" stroke="black" cx="2454.03" cy="-90" rx="27" ry="18"/>
<text text-anchor="middle" x="2454.03" y="-84.95" font-family="Times,serif" font-size="14.00">+=</text>
</g>
<!-- 4369633856&#45;&gt;18 -->
<g id="edge42" class="edge">
<title>4369633856&#45;&gt;18</title>
<path fill="none" stroke="black" d="M2117.65,-149.68C2225.86,-136.75 2389.85,-116.31 2418.03,-108 2419.64,-107.52 2421.28,-106.98 2422.91,-106.4"/>
<polygon fill="black" stroke="black" points="2424.21,-109.65 2432.12,-102.59 2421.54,-103.18 2424.21,-109.65"/>
</g>
<!-- 19 -->
<g id="node44" class="node">
<title>19</title>
<ellipse fill="none" stroke="black" cx="1893.03" cy="-18" rx="27" ry="18"/>
</g>
<!-- 4369633808&#45;&gt;19 -->
<g id="edge43" class="edge">
<title>4369633808&#45;&gt;19</title>
<path fill="none" stroke="black" d="M1920.13,-71.7C1916.04,-63.75 1911.11,-54.16 1906.58,-45.34"/>
<polygon fill="black" stroke="black" points="1909.71,-43.78 1902.02,-36.49 1903.48,-46.98 1909.71,-43.78"/>
</g>
<!-- 20 -->
<g id="node45" class="node">
<title>20</title>
<ellipse fill="none" stroke="black" cx="1965.03" cy="-18" rx="27" ry="18"/>
<text text-anchor="middle" x="1965.03" y="-12.95" font-family="Times,serif" font-size="14.00">y</text>
</g>
<!-- 4369633808&#45;&gt;20 -->
<g id="edge44" class="edge">
<title>4369633808&#45;&gt;20</title>
<path fill="none" stroke="black" d="M1937.93,-71.7C1942.01,-63.75 1946.95,-54.16 1951.48,-45.34"/>
<polygon fill="black" stroke="black" points="1954.57,-46.98 1956.03,-36.49 1948.35,-43.78 1954.57,-46.98"/>
</g>
<!-- 21 -->
<g id="node46" class="node">
<title>21</title>
<ellipse fill="none" stroke="black" cx="2219.03" cy="-18" rx="27" ry="18"/>
</g>
<!-- 4369633760&#45;&gt;21 -->
<g id="edge45" class="edge">
<title>4369633760&#45;&gt;21</title>
<path fill="none" stroke="black" d="M2246.13,-71.7C2242.04,-63.75 2237.11,-54.16 2232.58,-45.34"/>
<polygon fill="black" stroke="black" points="2235.71,-43.78 2228.02,-36.49 2229.48,-46.98 2235.71,-43.78"/>
</g>
<!-- 22 -->
<g id="node47" class="node">
<title>22</title>
<ellipse fill="none" stroke="black" cx="2291.03" cy="-18" rx="27" ry="18"/>
<text text-anchor="middle" x="2291.03" y="-12.95" font-family="Times,serif" font-size="14.00">x</text>
</g>
<!-- 4369633760&#45;&gt;22 -->
<g id="edge46" class="edge">
<title>4369633760&#45;&gt;22</title>
<path fill="none" stroke="black" d="M2263.93,-71.7C2268.01,-63.75 2272.95,-54.16 2277.48,-45.34"/>
<polygon fill="black" stroke="black" points="2280.57,-46.98 2282.03,-36.49 2274.35,-43.78 2280.57,-46.98"/>
</g>
<!-- 4369654128 -->
<g id="node49" class="node">
<title>4369654128</title>
<ellipse fill="none" stroke="black" cx="2240.03" cy="-162" rx="56.98" ry="18"/>
<text text-anchor="middle" x="2240.03" y="-156.95" font-family="Times,serif" font-size="14.00">4369654128</text>
</g>
<!-- 4369634528&#45;&gt;4369654128 -->
<g id="edge48" class="edge">
<title>4369634528&#45;&gt;4369654128</title>
<path fill="none" stroke="black" d="M2317.08,-215.88C2303.53,-206.58 2286.63,-194.98 2272.11,-185.02"/>
<polygon fill="black" stroke="black" points="2274.45,-182.38 2264.23,-179.61 2270.49,-188.15 2274.45,-182.38"/>
</g>
<!-- 23 -->
<g id="node50" class="node">
<title>23</title>
<ellipse fill="none" stroke="black" cx="2342.03" cy="-162" rx="27" ry="18"/>
</g>
<!-- 4369634528&#45;&gt;23 -->
<g id="edge49" class="edge">
<title>4369634528&#45;&gt;23</title>
<path fill="none" stroke="black" d="M2342.03,-215.7C2342.03,-208.41 2342.03,-199.73 2342.03,-191.54"/>
<polygon fill="black" stroke="black" points="2345.53,-191.62 2342.03,-181.62 2338.53,-191.62 2345.53,-191.62"/>
</g>
<!-- 24 -->
<g id="node51" class="node">
<title>24</title>
<ellipse fill="none" stroke="black" cx="2414.03" cy="-162" rx="27" ry="18"/>
<text text-anchor="middle" x="2414.03" y="-156.95" font-family="Times,serif" font-size="14.00">x</text>
</g>
<!-- 4369634528&#45;&gt;24 -->
<g id="edge50" class="edge">
<title>4369634528&#45;&gt;24</title>
<path fill="none" stroke="black" d="M2359.83,-215.7C2369.33,-206.46 2381.12,-194.99 2391.28,-185.12"/>
<polygon fill="black" stroke="black" points="2393.53,-187.81 2398.26,-178.33 2388.65,-182.8 2393.53,-187.81"/>
</g>
<!-- 25 -->
<g id="node53" class="node">
<title>25</title>
<ellipse fill="none" stroke="black" cx="2329.03" cy="-306" rx="27" ry="18"/>
</g>
<!-- 4369634768&#45;&gt;25 -->
<g id="edge52" class="edge">
<title>4369634768&#45;&gt;25</title>
<path fill="none" stroke="black" d="M2329.03,-359.7C2329.03,-352.41 2329.03,-343.73 2329.03,-335.54"/>
<polygon fill="black" stroke="black" points="2332.53,-335.62 2329.03,-325.62 2325.53,-335.62 2332.53,-335.62"/>
</g>
<!-- 26 -->
<g id="node54" class="node">
<title>26</title>
<ellipse fill="none" stroke="black" cx="2401.03" cy="-306" rx="27" ry="18"/>
<text text-anchor="middle" x="2401.03" y="-300.95" font-family="Times,serif" font-size="14.00">y</text>
</g>
<!-- 4369634768&#45;&gt;26 -->
<g id="edge53" class="edge">
<title>4369634768&#45;&gt;26</title>
<path fill="none" stroke="black" d="M2346.83,-359.7C2356.33,-350.46 2368.12,-338.99 2378.28,-329.12"/>
<polygon fill="black" stroke="black" points="2380.53,-331.81 2385.26,-322.33 2375.65,-326.8 2380.53,-331.81"/>
</g>
</g>
</svg>
